<svg viewBox="0 0 350 350" id="index-ico4" width="100%" height="100%">
<g id="фон">
<rect fill="#FFFFFF" width="350" height="350"></rect>
</g>
<g id="пятно">
<circle fill="#D6ECFC" cx="151" cy="176.1" r="115.8"></circle>
<circle fill="#D6ECFC" cx="264.2" cy="235.2" r="29.9"></circle>
<circle fill="#D6ECFC" cx="63.2" cy="62.3" r="19.7"></circle>
<circle fill="#D6ECFC" cx="259.2" cy="93.9" r="46.6"></circle>
</g>
<g id="элементы">
<line fill="none" stroke="#7FB2F0" stroke-width="3" stroke-linecap="round" stroke-linejoin="round" stroke-miterlimit="10" x1="141.6" y1="30.5" x2="66" y2="30.5"></line>
<line fill="none" stroke="#7FB2F0" stroke-width="3" stroke-linecap="round" stroke-linejoin="round" stroke-miterlimit="10" x1="170.9" y1="39.9" x2="115.2" y2="39.9"></line>
<line fill="none" stroke="#7FB2F0" stroke-width="3" stroke-linecap="round" stroke-linejoin="round" stroke-miterlimit="10" x1="41.4" y1="30.5" x2="21" y2="30.5"></line>
<line fill="none" stroke="#7FB2F0" stroke-width="3" stroke-linecap="round" stroke-linejoin="round" stroke-miterlimit="10" x1="58" y1="26.3" x2="49.8" y2="34.6"></line>
<line fill="none" stroke="#7FB2F0" stroke-width="3" stroke-linecap="round" stroke-linejoin="round" stroke-miterlimit="10" x1="58" y1="34.6" x2="49.8" y2="26.3"></line>
<line fill="none" stroke="#7FB2F0" stroke-width="3" stroke-linecap="round" stroke-linejoin="round" stroke-miterlimit="10" x1="324.3" y1="204.4" x2="316.1" y2="212.6"></line>
<line fill="none" stroke="#7FB2F0" stroke-width="3" stroke-linecap="round" stroke-linejoin="round" stroke-miterlimit="10" x1="324.3" y1="212.6" x2="316.1" y2="204.4"></line>
<line fill="none" stroke="#7FB2F0" stroke-width="3" stroke-linecap="round" stroke-linejoin="round" stroke-miterlimit="10" x1="21.5" y1="189.1" x2="53.9" y2="189.1"></line>
<circle fill="none" stroke="#7FB2F0" stroke-width="3" stroke-linecap="round" stroke-linejoin="round" stroke-miterlimit="10" cx="39.4" cy="108.5" r="6.4"></circle>
<circle fill="none" stroke="#7FB2F0" stroke-width="3" stroke-linecap="round" stroke-linejoin="round" stroke-miterlimit="10" cx="316.1" cy="30.5" r="16.4"></circle>
<circle fill="none" stroke="#7FB2F0" stroke-width="3" stroke-linecap="round" stroke-linejoin="round" stroke-miterlimit="10" cx="21.5" cy="142.9" r="8.3"></circle>
<line fill="none" stroke="#7FB2F0" stroke-width="3" stroke-linecap="round" stroke-linejoin="round" stroke-miterlimit="10" x1="23.6" y1="202.5" x2="11.9" y2="202.5"></line>
<line fill="none" stroke="#7FB2F0" stroke-width="3" stroke-linecap="round" stroke-linejoin="round" stroke-miterlimit="10" x1="17.8" y1="208.3" x2="17.8" y2="196.6"></line>
<line fill="none" stroke="#7FB2F0" stroke-width="3" stroke-linecap="round" stroke-linejoin="round" stroke-miterlimit="10" x1="306.1" y1="74.7" x2="294.4" y2="74.7"></line>
<line fill="none" stroke="#7FB2F0" stroke-width="3" stroke-linecap="round" stroke-linejoin="round" stroke-miterlimit="10" x1="300.2" y1="80.5" x2="300.2" y2="68.8"></line>
<line fill="none" stroke="#7FB2F0" stroke-width="3" stroke-linecap="round" stroke-linejoin="round" stroke-miterlimit="10" x1="241.5" y1="30.5" x2="229.9" y2="30.5"></line>
<line fill="none" stroke="#7FB2F0" stroke-width="3" stroke-linecap="round" stroke-linejoin="round" stroke-miterlimit="10" x1="235.7" y1="36.3" x2="235.7" y2="24.6"></line>
<line fill="none" stroke="#7FB2F0" stroke-width="3" stroke-linecap="round" stroke-linejoin="round" stroke-miterlimit="10" x1="285.5" y1="195.1" x2="335.3" y2="195.1"></line>
<line fill="none" stroke="#7FB2F0" stroke-width="3" stroke-linecap="round" stroke-linejoin="round" stroke-miterlimit="10" x1="276.8" y1="186" x2="300.2" y2="186"></line>
<line fill="none" stroke="#7FB2F0" stroke-width="3" stroke-linecap="round" stroke-linejoin="round" stroke-miterlimit="10" x1="231.6" y1="52" x2="302" y2="52"></line>
</g>
<g id="письмо_зад_цвет">
<polygon fill="#CCCBC9" points="96.2,212.5 43.1,247.3 44.1,250 94.9,280.5 97.5,281.2 100,280.5 151,249.5 152.2,246.9
		97.6,212.5 	"></polygon>
<line fill="none" stroke="#B2B2B2" stroke-width="3" stroke-linecap="round" stroke-linejoin="round" stroke-miterlimit="10" x1="99.2" y1="213.3" x2="45.9" y2="248.4"></line>
<line fill="none" stroke="#B2B2B2" stroke-width="3" stroke-linecap="round" stroke-linejoin="round" stroke-miterlimit="10" x1="49.4" y1="252.5" x2="49.4" y2="246.9"></line>
</g>
<g id="письмо_зад">
<path fill="none" stroke="#005F8C" stroke-width="3" stroke-linecap="round" stroke-linejoin="round" stroke-miterlimit="10" d="
		M153.5,248.4l-53.4-35.1c-1.7-1.1-3.8-1.1-5.4,0l-53.3,35.1"></path>
</g>
<g id="карта_цвет">
<path fill="#FFFFFF" d="M136.6,290H58.7c-3.8,0-6.9-3.1-6.9-6.9v-51.6c0-3.8,3.1-6.9,6.9-6.9h77.9c3.8,0,6.9,3.1,6.9,6.9v51.6
		C143.4,286.9,140.3,290,136.6,290z"></path>
<rect x="51.7" y="237.5" fill="#47B2E5" width="91.6" height="13.5"></rect>
<path fill="#47B2E5" d="M122.8,278.9H116c-5.1,0-9.3-4.2-9.3-9.3v0c0-5.1,4.2-9.3,9.3-9.3h6.8c5.1,0,9.3,4.2,9.3,9.3v0
		C132.1,274.8,128,278.9,122.8,278.9z"></path>
<path fill="none" stroke="#2BA1DB" stroke-width="3" stroke-linecap="round" stroke-linejoin="round" stroke-miterlimit="10" d="
		M120.4,278.9h-1.3c-5.1,0-9.3-4.2-9.3-9.3v0c0-5.1,4.2-9.3,9.3-9.3h1.9"></path>
<line fill="none" stroke="#2BA1DB" stroke-width="3" stroke-linecap="round" stroke-linejoin="round" stroke-miterlimit="10" x1="54.4" y1="238" x2="54.4" y2="250.2"></line>
<path fill="none" stroke="#E8E7E8" stroke-width="3" stroke-linecap="round" stroke-linejoin="round" stroke-miterlimit="10" d="
		M54.4,236.9v-5.3c0-3.8,3.1-6.9,6.9-6.9h57"></path>
<path fill="none" stroke="#E8E7E8" stroke-width="3" stroke-linecap="round" stroke-linejoin="round" stroke-miterlimit="10" d="
		M118.3,290h-57c-3.8,0-6.9-3.1-6.9-6.9V251"></path>
<path fill="none" stroke="#2BA1DB" stroke-width="3" stroke-linecap="round" stroke-linejoin="round" stroke-miterlimit="10" d="
		M138.7,238c1.2,3,2.5,5.9,4,8.7"></path>
<path fill="none" stroke="#E8E7E8" stroke-width="3" stroke-linecap="round" stroke-linejoin="round" stroke-miterlimit="10" d="
		M134,224.8c1.3,4.1,2.6,8.1,4,12.1"></path>
</g>
<g id="карта">
<path fill="none" stroke="#1690CF" stroke-width="3" stroke-linecap="round" stroke-linejoin="round" stroke-miterlimit="10" d="
		M136.4,290H58.5c-3.8,0-6.9-3.1-6.9-6.9v-51.6c0-3.8,3.1-6.9,6.9-6.9h77.9c3.8,0,6.9,3.1,6.9,6.9v51.6
		C143.2,286.9,140.2,290,136.4,290z"></path>
<rect x="51.7" y="237.5" fill="none" stroke="#1690CF" stroke-width="3" stroke-linecap="round" stroke-linejoin="round" stroke-miterlimit="10" width="91.6" height="13.5"></rect>
<line fill="none" stroke="#1690CF" stroke-width="3" stroke-linecap="round" stroke-linejoin="round" stroke-miterlimit="10" x1="62.6" y1="261.8" x2="98.8" y2="261.8"></line>
<line fill="none" stroke="#1690CF" stroke-width="3" stroke-linecap="round" stroke-linejoin="round" stroke-miterlimit="10" x1="62.6" y1="268.2" x2="94.4" y2="268.2"></line>
<line fill="none" stroke="#1690CF" stroke-width="3" stroke-linecap="round" stroke-linejoin="round" stroke-miterlimit="10" x1="62.6" y1="275.1" x2="70" y2="275.1"></line>
<line fill="none" stroke="#1690CF" stroke-width="3" stroke-linecap="round" stroke-linejoin="round" stroke-miterlimit="10" x1="75.8" y1="275.1" x2="90" y2="275.1"></line>
<path fill="none" stroke="#1690CF" stroke-width="3" stroke-linecap="round" stroke-linejoin="round" stroke-miterlimit="10" d="
		M122.8,278.9H116c-5.1,0-9.3-4.2-9.3-9.3v0c0-5.1,4.2-9.3,9.3-9.3h6.8c5.1,0,9.3,4.2,9.3,9.3v0C132.1,274.8,128,278.9,122.8,278.9z
		"></path>
</g>
<g id="письмо_перед_цвет">
<path fill="#E8E7E8" d="M41.5,248.4L94.9,281c1.6,1,3.6,1,5.2,0l53.5-32.6l0,0c1.1,0.9,1.9,2.3,1.9,3.9v60.5c0,2.8-2.2,5-5,5h-106
		c-2.8,0-5-2.2-5-5v-60.5C39.5,250.7,40.3,249.2,41.5,248.4"></path>
<path fill="none" stroke="#CCCBC9" stroke-width="3" stroke-linecap="round" stroke-linejoin="round" stroke-miterlimit="10" d="
		M153.2,317.8h-106c-2.8,0-5-2.2-5-5v-60.5c0-0.8,0.2-1.6,0.5-2.2"></path>
<path fill="none" stroke="#CCCBC9" stroke-width="3" stroke-linecap="round" stroke-linejoin="round" stroke-miterlimit="10" d="
		M95.9,281c1.6,1,5.3,1,6.9,0l46.8-28.5"></path>
<path fill="none" stroke="#CCCBC9" stroke-width="3" stroke-linecap="round" stroke-linejoin="round" stroke-miterlimit="10" d="
		M146.4,252.8c2.3,3.1,5.2,6,8.7,8.8"></path>
</g>
<g id="письмо_перед">
<path fill="none" stroke="#005F8C" stroke-width="3" stroke-linecap="round" stroke-linejoin="round" stroke-miterlimit="10" d="
		M152.8,248.4l-50.3,30.5l-2.5,1.5c-0.8,0.5-1.7,0.7-2.6,0.7c-0.9,0-1.8-0.2-2.6-0.7L42,248.4"></path>
<path fill="none" stroke="#005F8C" stroke-width="3" stroke-linecap="round" stroke-linejoin="round" stroke-miterlimit="10" d="
		M41.4,248.4l2.6,1.6l45.7,27.9l5.1,3.1c1.6,1,3.6,1,5.2,0l53.5-32.6l0,0c1.1,0.9,1.9,2.3,1.9,3.9v60.5c0,2.8-2.2,5-5,5h-106
		c-2.8,0-5-2.2-5-5v-60.5C39.4,250.7,40.2,249.2,41.4,248.4"></path>
</g>
<g id="деньги3_цвет">
<path fill="#AFD4E2" d="M236.9,267.8h79.9c1.9,0,3.4,1.5,3.4,3.4v43c0,1.9-1.5,3.4-3.4,3.4h-79.9c-1.9,0-3.4-1.5-3.4-3.4v-43
		C233.5,269.3,235,267.8,236.9,267.8z"></path>
<circle fill="#FFFFFF" cx="276.8" cy="292.7" r="15.3"></circle>
<path fill="none" stroke="#8EBFCE" stroke-width="3" stroke-linecap="round" stroke-linejoin="round" stroke-miterlimit="10" d="
		M310.4,317.6h-71.3c-1.9,0-3.4-1.5-3.4-3.4v-43c0-1.9,1.5-3.4,3.4-3.4h69.6"></path>
<path fill="none" stroke="#8EBFCE" stroke-width="3" stroke-linecap="round" stroke-linejoin="round" stroke-miterlimit="10" d="
		M255.5,317.4c-0.7-2.4-1.5-4.5-2.3-6.5"></path>
<path fill="none" stroke="#8EBFCE" stroke-width="3" stroke-linecap="round" stroke-linejoin="round" stroke-miterlimit="10" d="
		M310,268.6l5.9,14.3c0.7,1.7-0.1,3.7-1.8,4.5l-22,9.1"></path>
<line fill="none" stroke="#8EBFCE" stroke-width="3" stroke-linecap="round" stroke-linejoin="round" stroke-miterlimit="10" x1="269.6" y1="305.8" x2="252" y2="313.1"></line>
</g>
<g id="деньги3">
<path fill="none" stroke="#1690CF" stroke-width="3" stroke-linecap="round" stroke-linejoin="round" stroke-miterlimit="10" d="
		M236.9,267.8h79.9c1.9,0,3.4,1.5,3.4,3.4v43c0,1.9-1.5,3.4-3.4,3.4h-79.9c-1.9,0-3.4-1.5-3.4-3.4v-43
		C233.5,269.3,235,267.8,236.9,267.8z"></path>
<line fill="none" stroke="#1690CF" stroke-width="3" stroke-linecap="round" stroke-linejoin="round" stroke-miterlimit="10" x1="242.9" y1="283.6" x2="242.9" y2="275.7"></line>
<line fill="none" stroke="#1690CF" stroke-width="3" stroke-linecap="round" stroke-linejoin="round" stroke-miterlimit="10" x1="242.9" y1="309.7" x2="242.9" y2="301.8"></line>
<line fill="none" stroke="#1690CF" stroke-width="3" stroke-linecap="round" stroke-linejoin="round" stroke-miterlimit="10" x1="311.2" y1="301.8" x2="311.2" y2="309.7"></line>
<line fill="none" stroke="#1690CF" stroke-width="3" stroke-linecap="round" stroke-linejoin="round" stroke-miterlimit="10" x1="311.2" y1="275.7" x2="311.2" y2="283.6"></line>
<path fill="none" stroke="#1690CF" stroke-width="3" stroke-linecap="round" stroke-linejoin="round" stroke-miterlimit="10" d="
		M242.9,283.6c5,0,9.1,4.1,9.1,9.1c0,5-4.1,9.1-9.1,9.1"></path>
<path fill="none" stroke="#1690CF" stroke-width="3" stroke-linecap="round" stroke-linejoin="round" stroke-miterlimit="10" d="
		M311.1,301.8c-5,0-9.1-4.1-9.1-9.1c0-5,4.1-9.1,9.1-9.1"></path>
<path fill="none" stroke="#CCCBC9" stroke-width="3" stroke-linecap="round" stroke-linejoin="round" stroke-miterlimit="10" d="
		M278.2,307.9c-7.8-0.7-13.9-7.2-13.9-15.2c0-8,6.1-14.5,13.9-15.2"></path>
<g>
<path fill="#1690CF" d="M275.9,300.7v-1.9c-2-0.1-3-0.9-3-2.2v-0.8c0.9,0.4,2,0.7,3.1,0.7c1.2,0,1.8-0.3,1.8-1
			c0-0.2-0.1-0.4-0.4-0.6c-0.3-0.2-0.6-0.3-1-0.4c-0.4-0.1-0.8-0.2-1.3-0.4c-0.5-0.2-0.9-0.4-1.3-0.6c-0.4-0.2-0.7-0.6-1-1.1
			c-0.3-0.5-0.4-1.1-0.4-1.7c0-1,0.3-1.8,0.9-2.5c0.6-0.7,1.4-1.1,2.5-1.3v-2h2.1v1.9c1,0.1,1.8,0.4,2.4,0.9
			c0.6,0.5,0.9,1.1,0.9,1.8c0,0.5-0.2,0.9-0.5,1.2c-0.3,0.3-0.8,0.4-1.4,0.4h-0.7v-0.4c0-0.5-0.1-0.8-0.4-1.1
			c-0.3-0.3-0.7-0.4-1.2-0.4c-0.4,0-0.8,0.1-1.1,0.4c-0.3,0.2-0.4,0.5-0.4,0.9c0,0.5,0.2,0.8,0.6,1.1c0.4,0.3,0.8,0.5,1.4,0.6
			c0.5,0.1,1.1,0.3,1.6,0.5c0.5,0.2,1,0.5,1.4,1c0.4,0.5,0.6,1.1,0.6,1.8c0,0.9-0.3,1.6-0.9,2.2c-0.6,0.6-1.3,1-2.2,1.2v2H275.9z"></path>
</g>
<circle fill="none" stroke="#1690CF" stroke-width="3" stroke-linecap="round" stroke-linejoin="round" stroke-miterlimit="10" cx="276.8" cy="292.7" r="15.3"></circle>
</g>
<g id="деньги2_цвет">
<path fill="#AFD4E2" d="M218.9,270.6l73.8-30.6c1.7-0.7,3.7,0.1,4.5,1.8l16.4,39.7c0.7,1.7-0.1,3.7-1.8,4.5L238,316.6
		c-1.7,0.7-3.7-0.1-4.5-1.8l-16.4-39.7C216.4,273.4,217.2,271.4,218.9,270.6z"></path>
<ellipse transform="matrix(0.9239 -0.3827 0.3827 0.9239 -86.2824 122.7876)" fill="#FFFFFF" cx="265.5" cy="278.3" rx="15.3" ry="15.3"></ellipse>
<path fill="none" stroke="#8EBFCE" stroke-width="3" stroke-linecap="round" stroke-linejoin="round" stroke-miterlimit="10" d="
		M236.4,315.7L219.9,276c-0.7-1.7,0.1-3.7,1.8-4.5l72.4-30"></path>
<path fill="none" stroke="#8EBFCE" stroke-width="3" stroke-linecap="round" stroke-linejoin="round" stroke-miterlimit="10" d="
		M252.8,310.1c-0.8-1.9-1.6-3.6-2.4-5.2"></path>
<line fill="none" stroke="#8EBFCE" stroke-width="3" stroke-linecap="round" stroke-linejoin="round" stroke-miterlimit="10" x1="263.6" y1="293.5" x2="249.3" y2="307.8"></line>
<path fill="none" stroke="#8EBFCE" stroke-width="3" stroke-linecap="round" stroke-linejoin="round" stroke-miterlimit="10" d="
		M286.1,243.5l11.3,11.3c1.3,1.3,1.3,3.5,0,4.8l-16.8,16.8"></path>
</g>
<g id="деньги2">
<path fill="none" stroke="#1690CF" stroke-width="3" stroke-linecap="round" stroke-linejoin="round" stroke-miterlimit="10" d="
		M218.9,270.6l73.8-30.6c1.7-0.7,3.7,0.1,4.5,1.8l16.4,39.7c0.7,1.7-0.1,3.7-1.8,4.5L238,316.6c-1.7,0.7-3.7-0.1-4.5-1.8l-16.4-39.7
		C216.4,273.4,217.2,271.4,218.9,270.6z"></path>
<line fill="none" stroke="#1690CF" stroke-width="3" stroke-linecap="round" stroke-linejoin="round" stroke-miterlimit="10" x1="230.5" y1="282.9" x2="227.5" y2="275.6"></line>
<line fill="none" stroke="#1690CF" stroke-width="3" stroke-linecap="round" stroke-linejoin="round" stroke-miterlimit="10" x1="240.5" y1="307.1" x2="237.5" y2="299.8"></line>
<line fill="none" stroke="#1690CF" stroke-width="3" stroke-linecap="round" stroke-linejoin="round" stroke-miterlimit="10" x1="300.5" y1="273.6" x2="303.6" y2="280.9"></line>
<line fill="none" stroke="#1690CF" stroke-width="3" stroke-linecap="round" stroke-linejoin="round" stroke-miterlimit="10" x1="290.6" y1="249.5" x2="293.6" y2="256.8"></line>
<path fill="none" stroke="#1690CF" stroke-width="3" stroke-linecap="round" stroke-linejoin="round" stroke-miterlimit="10" d="
		M230.5,282.9c4.7-1.9,10,0.3,11.9,4.9c1.9,4.7-0.3,10-4.9,11.9"></path>
<path fill="none" stroke="#1690CF" stroke-width="3" stroke-linecap="round" stroke-linejoin="round" stroke-miterlimit="10" d="
		M300.5,273.6c-4.7,1.9-10-0.3-11.9-4.9c-1.9-4.7,0.3-10,4.9-11.9"></path>
<path fill="none" stroke="#CCCBC9" stroke-width="3" stroke-linecap="round" stroke-linejoin="round" stroke-miterlimit="10" d="
		M271.3,292.1c-7.2,1.8-14.8-1.9-17.8-9c-2.9-7.1-0.2-15,6.2-18.9"></path>
<g>
<path fill="#1690CF" d="M267.6,286.1l-0.7-1.8c-1.9,0.6-3.1,0.3-3.6-0.9l-0.3-0.7c1,0,2.1-0.1,3.1-0.6c1.1-0.5,1.6-1,1.3-1.6
			c-0.1-0.2-0.3-0.4-0.6-0.4c-0.3-0.1-0.7-0.1-1.1,0c-0.4,0.1-0.8,0.1-1.3,0.1c-0.5,0-1,0-1.4-0.1c-0.5-0.1-0.9-0.3-1.3-0.6
			c-0.4-0.4-0.8-0.8-1-1.5c-0.4-0.9-0.4-1.8-0.1-2.7c0.3-0.9,0.9-1.6,1.8-2.2l-0.8-1.9l2-0.8l0.7,1.8c1-0.3,1.8-0.3,2.5-0.1
			c0.7,0.2,1.2,0.6,1.5,1.3c0.2,0.5,0.2,0.9,0,1.3c-0.2,0.4-0.6,0.7-1.1,0.9l-0.7,0.3l-0.1-0.3c-0.2-0.4-0.5-0.7-0.8-0.9
			c-0.4-0.2-0.8-0.1-1.2,0c-0.4,0.2-0.7,0.4-0.8,0.8c-0.2,0.3-0.2,0.7,0,1c0.2,0.4,0.5,0.7,0.9,0.8c0.5,0.1,0.9,0.1,1.5,0.1
			c0.5-0.1,1.1-0.1,1.7-0.1c0.6,0,1.1,0.1,1.6,0.4c0.5,0.3,0.9,0.8,1.2,1.5c0.3,0.8,0.4,1.6,0.1,2.4c-0.3,0.8-0.8,1.4-1.6,2l0.8,1.9
			L267.6,286.1z"></path>
</g>
<ellipse transform="matrix(0.9239 -0.3827 0.3827 0.9239 -86.3212 122.7313)" fill="none" stroke="#1690CF" stroke-width="3" stroke-linecap="round" stroke-linejoin="round" stroke-miterlimit="10" cx="265.3" cy="278.3" rx="15.3" ry="15.3"></ellipse>
</g>
<g id="деньги1_цвет">
<path fill="#AFD4E2" d="M203.4,281.1l56.5-56.5c1.3-1.3,3.5-1.3,4.8,0L295,255c1.3,1.3,1.3,3.5,0,4.8l-56.5,56.5
		c-1.3,1.3-3.5,1.3-4.8,0l-30.4-30.4C202,284.6,202,282.4,203.4,281.1z"></path>
<path fill="none" stroke="#8EBFCE" stroke-width="3" stroke-linecap="round" stroke-linejoin="round" stroke-miterlimit="10" d="
		M236.5,316.4L206.1,286c-1.3-1.3-1.3-3.5,0-4.8l56.5-56.5"></path>
<ellipse transform="matrix(0.7071 -0.7071 0.7071 0.7071 -118.3012 255.5596)" fill="#FFFFFF" cx="249.3" cy="270.6" rx="15.3" ry="15.3"></ellipse>
<path fill="none" stroke="#8EBFCE" stroke-width="3" stroke-linecap="round" stroke-linejoin="round" stroke-miterlimit="10" d="
		M227.4,257.2l8.6,22.4c1,2.6,0.3,5.4-1.6,7.2"></path>
<path fill="none" stroke="#8EBFCE" stroke-width="3" stroke-linecap="round" stroke-linejoin="round" stroke-miterlimit="10" d="
		M249.4,303.7c-6-10.8-12.7-15.2-13.7-17.8"></path>
</g>
<g id="деньги1">
<path fill="none" stroke="#1690CF" stroke-width="3" stroke-linecap="round" stroke-linejoin="round" stroke-miterlimit="10" d="
		M203.4,281.1l56.5-56.5c1.3-1.3,3.5-1.3,4.8,0L295,255c1.3,1.3,1.3,3.5,0,4.8l-56.5,56.5c-1.3,1.3-3.5,1.3-4.8,0l-30.4-30.4
		C202,284.6,202,282.4,203.4,281.1z"></path>
<line fill="none" stroke="#1690CF" stroke-width="3" stroke-linecap="round" stroke-linejoin="round" stroke-miterlimit="10" x1="218.7" y1="288" x2="213.2" y2="282.4"></line>
<line fill="none" stroke="#1690CF" stroke-width="3" stroke-linecap="round" stroke-linejoin="round" stroke-miterlimit="10" x1="237.2" y1="306.5" x2="231.6" y2="300.9"></line>
<line fill="none" stroke="#1690CF" stroke-width="3" stroke-linecap="round" stroke-linejoin="round" stroke-miterlimit="10" x1="279.9" y1="252.6" x2="285.5" y2="258.2"></line>
<line fill="none" stroke="#1690CF" stroke-width="3" stroke-linecap="round" stroke-linejoin="round" stroke-miterlimit="10" x1="261.5" y1="234.2" x2="267" y2="239.7"></line>
<path fill="none" stroke="#1690CF" stroke-width="3" stroke-linecap="round" stroke-linejoin="round" stroke-miterlimit="10" d="
		M218.7,288c3.6-3.6,9.3-3.6,12.9,0c3.6,3.6,3.6,9.3,0,12.9"></path>
<path fill="none" stroke="#1690CF" stroke-width="3" stroke-linecap="round" stroke-linejoin="round" stroke-miterlimit="10" d="
		M279.9,252.6c-3.6,3.6-9.3,3.6-12.9,0c-3.6-3.6-3.6-9.3,0-12.9"></path>
<path fill="none" stroke="#CCCBC9" stroke-width="3" stroke-linecap="round" stroke-linejoin="round" stroke-miterlimit="10" d="
		M260,281.2c-6,4.3-14.4,3.8-19.7-1.6c-5.6-5.6-5.9-14.5-1-20.5"></path>
<g>
<path fill="#1690CF" d="M254.2,276.7l-1.3-1.3c-1.5,1.3-2.7,1.5-3.6,0.6l-0.6-0.6c1-0.4,1.9-0.9,2.6-1.7c0.9-0.9,1.1-1.5,0.6-2
			c-0.2-0.2-0.4-0.2-0.7-0.2c-0.3,0.1-0.6,0.2-1,0.4c-0.3,0.2-0.7,0.4-1.2,0.6c-0.5,0.2-0.9,0.3-1.4,0.5c-0.4,0.1-0.9,0.1-1.5-0.1
			c-0.5-0.2-1-0.5-1.5-1c-0.7-0.7-1.1-1.5-1.1-2.4c0-0.9,0.2-1.8,0.8-2.7l-1.4-1.4l1.5-1.5l1.4,1.4c0.8-0.6,1.5-1,2.3-1.1
			c0.8-0.1,1.4,0.1,1.9,0.6c0.4,0.4,0.5,0.7,0.5,1.2c0,0.4-0.3,0.9-0.7,1.3l-0.5,0.5l-0.3-0.3c-0.3-0.3-0.7-0.5-1.1-0.5
			c-0.4,0-0.8,0.2-1.1,0.5c-0.3,0.3-0.5,0.6-0.5,1c0,0.4,0.1,0.7,0.4,0.9c0.3,0.3,0.7,0.4,1.2,0.4c0.5-0.1,0.9-0.3,1.4-0.5
			c0.5-0.3,1-0.5,1.5-0.8c0.5-0.2,1.1-0.3,1.7-0.3c0.6,0.1,1.2,0.4,1.7,0.9c0.6,0.6,1,1.4,1,2.2s-0.2,1.6-0.7,2.4l1.4,1.4
			L254.2,276.7z"></path>
</g>
<ellipse transform="matrix(0.7071 -0.7071 0.7071 0.7071 -118.2473 255.4295)" fill="none" stroke="#1690CF" stroke-width="3" stroke-linecap="round" stroke-linejoin="round" stroke-miterlimit="10" cx="249.2" cy="270.5" rx="15.3" ry="15.3"></ellipse>
</g>
<g id="холдер_цвет">
<path fill="#AFD4E2" d="M66,70.5c-21.9,0-39.6,17.7-39.6,39.6c0,31.7,35.8,61,35.8,61c2.1,1.7,5.5,1.7,7.6,0c0,0,35.8-29.3,35.8-61
		C105.5,88.2,87.8,70.5,66,70.5z M66,130c-11,0-19.9-8.9-19.9-19.9S55,90.1,66,90.1s19.9,8.9,19.9,19.9S77,130,66,130z"></path>
<path fill="none" stroke="#8EBFCE" stroke-width="3" stroke-linecap="round" stroke-linejoin="round" stroke-miterlimit="10" d="
		M29.5,110c0-20.6,15.7-37.5,35.9-39.4"></path>
<path fill="none" stroke="#8EBFCE" stroke-width="3" stroke-linecap="round" stroke-linejoin="round" stroke-miterlimit="10" d="
		M29.5,110c0,26,26.6,52.4,38.1,61.2"></path>
<path fill="none" stroke="#8EBFCE" stroke-width="3" stroke-linecap="round" stroke-linejoin="round" stroke-miterlimit="10" d="
		M67.6,90.2c0.3,0,0.7,0,1,0c11,0,19.9,8.9,19.9,19.9c0,11-8.9,19.9-19.9,19.9c-0.3,0-0.7,0-1,0"></path>
</g>
<g id="холдер">
<circle fill="none" stroke="#1690CF" stroke-width="3" stroke-linecap="round" stroke-linejoin="round" stroke-miterlimit="10" cx="66" cy="110" r="19.9"></circle>
<path fill="none" stroke="#1690CF" stroke-width="3" stroke-linecap="round" stroke-linejoin="round" stroke-miterlimit="10" d="
		M26.4,110c0-21.9,17.7-39.6,39.6-39.6"></path>
<path fill="none" stroke="#1690CF" stroke-width="3" stroke-linecap="round" stroke-linejoin="round" stroke-miterlimit="10" d="
		M26.4,110c0,27.2,29,54.8,39.6,62.3"></path>
<path fill="none" stroke="#1690CF" stroke-width="3" stroke-linecap="round" stroke-linejoin="round" stroke-miterlimit="10" d="
		M105.7,110c0-21.9-17.7-39.6-39.6-39.6"></path>
<path fill="none" stroke="#1690CF" stroke-width="3" stroke-linecap="round" stroke-linejoin="round" stroke-miterlimit="10" d="
		M105.7,110c0,27.2-29,54.8-39.6,62.3"></path>
</g>
<g id="календарь_цвет">
<path fill="#AFD4E2" d="M312.7,169H182.3c-4.7,0-8.4-3.8-8.4-8.4V68.7c0-4.7,3.8-8.4,8.4-8.4h130.3c4.7,0,8.4,3.8,8.4,8.4v91.8
		C321.1,165.2,317.3,169,312.7,169z"></path>
<path fill="#FFFFFF" d="M205.4,115.9h-20c-1.9,0-3.4-1.5-3.4-3.4v-20c0-1.9,1.5-3.4,3.4-3.4h20c1.9,0,3.4,1.5,3.4,3.4v20
		C208.8,114.4,207.3,115.9,205.4,115.9z"></path>
<path fill="#FFFFFF" d="M240.2,115.9h-20c-1.9,0-3.4-1.5-3.4-3.4v-20c0-1.9,1.5-3.4,3.4-3.4h20c1.9,0,3.4,1.5,3.4,3.4v20
		C243.6,114.4,242.1,115.9,240.2,115.9z"></path>
<path fill="#FFFFFF" d="M205.4,150.6h-20c-1.9,0-3.4-1.5-3.4-3.4v-20c0-1.9,1.5-3.4,3.4-3.4h20c1.9,0,3.4,1.5,3.4,3.4v20
		C208.8,149.1,207.3,150.6,205.4,150.6z"></path>
<path fill="#FFFFFF" d="M274.9,115.9h-20c-1.9,0-3.4-1.5-3.4-3.4v-20c0-1.9,1.5-3.4,3.4-3.4h20c1.9,0,3.4,1.5,3.4,3.4v20
		C278.3,114.4,276.8,115.9,274.9,115.9z"></path>
<path fill="#FFFFFF" d="M309.6,115.9h-20c-1.9,0-3.4-1.5-3.4-3.4v-20c0-1.9,1.5-3.4,3.4-3.4h20c1.9,0,3.4,1.5,3.4,3.4v20
		C313,114.4,311.5,115.9,309.6,115.9z"></path>
<path fill="#FFFFFF" d="M274.9,150.6h-20c-1.9,0-3.4-1.5-3.4-3.4v-20c0-1.9,1.5-3.4,3.4-3.4h20c1.9,0,3.4,1.5,3.4,3.4v20
		C278.3,149.1,276.8,150.6,274.9,150.6z"></path>
<path fill="#FFFFFF" d="M309.6,150.6h-20c-1.9,0-3.4-1.5-3.4-3.4v-20c0-1.9,1.5-3.4,3.4-3.4h20c1.9,0,3.4,1.5,3.4,3.4v20
		C313,149.1,311.5,150.6,309.6,150.6z"></path>
<path fill="none" stroke="#8EBFCE" stroke-width="3" stroke-linecap="round" stroke-linejoin="round" stroke-miterlimit="10" d="
		M292.8,169.3H185.2c-4.7,0-8.4-3.8-8.4-8.4V69.1c0-4.7,3.8-8.4,8.4-8.4h115.1"></path>
<path fill="none" stroke="#8EBFCE" stroke-width="3" stroke-linecap="round" stroke-linejoin="round" stroke-miterlimit="10" d="
		M223.7,61.2v8.5c0,2.8-2.2,5-5,5h-6.4"></path>
<path fill="none" stroke="#8EBFCE" stroke-width="3" stroke-linecap="round" stroke-linejoin="round" stroke-miterlimit="10" d="
		M292.9,61.1v7.7c0,2.8-2.2,5-5,5h-6.4"></path>
<path fill="none" stroke="#8EBFCE" stroke-width="3" stroke-linecap="round" stroke-linejoin="round" stroke-miterlimit="10" d="
		M216.4,128.9c-2-3.5-5.9-5.4-9.9-4.7"></path>
<path fill="none" stroke="#8EBFCE" stroke-width="3" stroke-linecap="round" stroke-linejoin="round" stroke-miterlimit="10" d="
		M187.3,123.7l-1.2-3c-1.1-2.9-3.6-5-6.4-5.8"></path>
<path fill="none" stroke="#8EBFCE" stroke-width="3" stroke-linecap="round" stroke-linejoin="round" stroke-miterlimit="10" d="
		M232.7,168.2l3.4-1.3c1.7-0.7,2.6-2.6,1.9-4.3l-4.5-11.7"></path>
<path fill="#FFFFFF" d="M240.2,150.6h-20c-1.9,0-3.4-1.5-3.4-3.4v-20c0-1.9,1.5-3.4,3.4-3.4h20c1.9,0,3.4,1.5,3.4,3.4v20
		C243.6,149.1,242.1,150.6,240.2,150.6z"></path>
<path fill="none" stroke="#E8E7E8" stroke-width="3" stroke-linecap="round" stroke-linejoin="round" stroke-miterlimit="10" d="
		M232.7,150.6l-2.9-7.5c-0.7-1.7-2.6-2.6-4.3-1.9l-4.9,1.9"></path>
<line fill="none" stroke="#E8E7E8" stroke-width="3" stroke-linecap="round" stroke-linejoin="round" stroke-miterlimit="10" x1="187.3" y1="128.9" x2="201.3" y2="124"></line>
<line fill="none" stroke="#E8E7E8" stroke-width="3" stroke-linecap="round" stroke-linejoin="round" stroke-miterlimit="10" x1="190.2" y1="129.8" x2="187.8" y2="124.8"></line>
</g>
<g id="календарь">
<path fill="none" stroke="#005F8C" stroke-width="3" stroke-linecap="round" stroke-linejoin="round" stroke-miterlimit="10" d="
		M312.6,169.3H182.3c-4.7,0-8.4-3.8-8.4-8.4V69.1c0-4.7,3.8-8.4,8.4-8.4h130.3c4.7,0,8.4,3.8,8.4,8.4v91.8
		C321,165.5,317.3,169.3,312.6,169.3z"></path>
<path fill="none" stroke="#E8E7E8" stroke-width="3" stroke-linecap="round" stroke-linejoin="round" stroke-miterlimit="10" d="
		M201.5,115.9h-13c-1.9,0-3.4-1.5-3.4-3.4v-20c0-1.9,1.5-3.4,3.4-3.4H201"></path>
<path fill="none" stroke="#E8E7E8" stroke-width="3" stroke-linecap="round" stroke-linejoin="round" stroke-miterlimit="10" d="
		M223.3,115.9c-1.9,0-3.4-1.5-3.4-3.4v-20c0-1.9,1.5-3.4,3.4-3.4"></path>
<path fill="none" stroke="#E8E7E8" stroke-width="3" stroke-linecap="round" stroke-linejoin="round" stroke-miterlimit="10" d="
		M200,150.6h-11.5c-1.9,0-3.4-1.5-3.4-3.4v-20c0-1.9,1.5-3.4,3.4-3.4H202"></path>
<path fill="none" stroke="#E8E7E8" stroke-width="3" stroke-linecap="round" stroke-linejoin="round" stroke-miterlimit="10" d="
		M258,115.9c-1.9,0-3.4-1.5-3.4-3.4v-20c0-1.9,1.5-3.4,3.4-3.4"></path>
<path fill="none" stroke="#E8E7E8" stroke-width="3" stroke-linecap="round" stroke-linejoin="round" stroke-miterlimit="10" d="
		M292.7,115.9c-1.9,0-3.4-1.5-3.4-3.4v-20c0-1.9,1.5-3.4,3.4-3.4"></path>
<path fill="none" stroke="#E8E7E8" stroke-width="3" stroke-linecap="round" stroke-linejoin="round" stroke-miterlimit="10" d="
		M223.3,150.6c-1.9,0-3.4-1.5-3.4-3.4v-20c0-1.9,1.5-3.4,3.4-3.4"></path>
<path fill="none" stroke="#E8E7E8" stroke-width="3" stroke-linecap="round" stroke-linejoin="round" stroke-miterlimit="10" d="
		M258,150.6c-1.9,0-3.4-1.5-3.4-3.4v-20c0-1.9,1.5-3.4,3.4-3.4"></path>
<path fill="none" stroke="#E8E7E8" stroke-width="3" stroke-linecap="round" stroke-linejoin="round" stroke-miterlimit="10" d="
		M292.7,150.6c-1.9,0-3.4-1.5-3.4-3.4v-20c0-1.9,1.5-3.4,3.4-3.4"></path>
<line fill="none" stroke="#005F8C" stroke-width="3" stroke-linecap="round" stroke-linejoin="round" stroke-miterlimit="10" x1="257.5" y1="102.1" x2="263.1" y2="107.7"></line>
<line fill="none" stroke="#005F8C" stroke-width="3" stroke-linecap="round" stroke-linejoin="round" stroke-miterlimit="10" x1="263.1" y1="107.7" x2="273.2" y2="97.6"></line>
<path fill="#FFFFFF" d="M216,74.6h-6.4c-2.8,0-5-2.2-5-5v-17c0-2.8,2.2-5,5-5h6.4c2.8,0,5,2.2,5,5v17C221,72.3,218.8,74.6,216,74.6
		z"></path>
<path fill="none" stroke="#E8E7E8" stroke-width="3" stroke-linecap="round" stroke-linejoin="round" stroke-miterlimit="10" d="
		M215.1,74.6H212c-2.8,0-5-2.2-5-5v-17c0-2.8,2.2-5,5-5h2.8"></path>
<path fill="#FFFFFF" d="M285.4,73.7H279c-2.8,0-5-2.2-5-5v-17c0-2.8,2.2-5,5-5h6.4c2.8,0,5,2.2,5,5v17
		C290.4,71.5,288.1,73.7,285.4,73.7z"></path>
<path fill="none" stroke="#005F8C" stroke-width="3" stroke-linecap="round" stroke-linejoin="round" stroke-miterlimit="10" d="
		M215.8,74.7h-6.4c-2.8,0-5-2.2-5-5v-17c0-2.8,2.2-5,5-5h6.4c2.8,0,5,2.2,5,5v17C220.7,72.4,218.5,74.7,215.8,74.7z"></path>
<path fill="none" stroke="#E8E7E8" stroke-width="3" stroke-linecap="round" stroke-linejoin="round" stroke-miterlimit="10" d="
		M284.8,73.7h-3.1c-2.8,0-5-2.2-5-5v-17c0-2.8,2.2-5,5-5h2.8"></path>
<path fill="none" stroke="#005F8C" stroke-width="3" stroke-linecap="round" stroke-linejoin="round" stroke-miterlimit="10" d="
		M285.1,73.8h-6.4c-2.8,0-5-2.2-5-5v-17c0-2.8,2.2-5,5-5h6.4c2.8,0,5,2.2,5,5v17C290.1,71.6,287.9,73.8,285.1,73.8z"></path>
<path fill="none" stroke="#005F8C" stroke-width="3" stroke-linecap="round" stroke-linejoin="round" stroke-miterlimit="10" d="
		M205.4,115.9h-20c-1.9,0-3.4-1.5-3.4-3.4v-20c0-1.9,1.5-3.4,3.4-3.4h20c1.9,0,3.4,1.5,3.4,3.4v20
		C208.8,114.4,207.3,115.9,205.4,115.9z"></path>
<path fill="none" stroke="#005F8C" stroke-width="3" stroke-linecap="round" stroke-linejoin="round" stroke-miterlimit="10" d="
		M240.2,115.9h-20c-1.9,0-3.4-1.5-3.4-3.4v-20c0-1.9,1.5-3.4,3.4-3.4h20c1.9,0,3.4,1.5,3.4,3.4v20
		C243.6,114.4,242.1,115.9,240.2,115.9z"></path>
<path fill="none" stroke="#005F8C" stroke-width="3" stroke-linecap="round" stroke-linejoin="round" stroke-miterlimit="10" d="
		M205.4,150.6h-20c-1.9,0-3.4-1.5-3.4-3.4v-20c0-1.9,1.5-3.4,3.4-3.4h20c1.9,0,3.4,1.5,3.4,3.4v20
		C208.8,149.1,207.3,150.6,205.4,150.6z"></path>
<path fill="none" stroke="#005F8C" stroke-width="3" stroke-linecap="round" stroke-linejoin="round" stroke-miterlimit="10" d="
		M274.9,115.9h-20c-1.9,0-3.4-1.5-3.4-3.4v-20c0-1.9,1.5-3.4,3.4-3.4h20c1.9,0,3.4,1.5,3.4,3.4v20
		C278.3,114.4,276.8,115.9,274.9,115.9z"></path>
<path fill="none" stroke="#005F8C" stroke-width="3" stroke-linecap="round" stroke-linejoin="round" stroke-miterlimit="10" d="
		M309.6,115.9h-20c-1.9,0-3.4-1.5-3.4-3.4v-20c0-1.9,1.5-3.4,3.4-3.4h20c1.9,0,3.4,1.5,3.4,3.4v20
		C313,114.4,311.5,115.9,309.6,115.9z"></path>
<path fill="none" stroke="#005F8C" stroke-width="3" stroke-linecap="round" stroke-linejoin="round" stroke-miterlimit="10" d="
		M240.2,150.6h-20c-1.9,0-3.4-1.5-3.4-3.4v-20c0-1.9,1.5-3.4,3.4-3.4h20c1.9,0,3.4,1.5,3.4,3.4v20
		C243.6,149.1,242.1,150.6,240.2,150.6z"></path>
<path fill="none" stroke="#005F8C" stroke-width="3" stroke-linecap="round" stroke-linejoin="round" stroke-miterlimit="10" d="
		M274.9,150.6h-20c-1.9,0-3.4-1.5-3.4-3.4v-20c0-1.9,1.5-3.4,3.4-3.4h20c1.9,0,3.4,1.5,3.4,3.4v20
		C278.3,149.1,276.8,150.6,274.9,150.6z"></path>
<path fill="none" stroke="#005F8C" stroke-width="3" stroke-linecap="round" stroke-linejoin="round" stroke-miterlimit="10" d="
		M309.6,150.6h-20c-1.9,0-3.4-1.5-3.4-3.4v-20c0-1.9,1.5-3.4,3.4-3.4h20c1.9,0,3.4,1.5,3.4,3.4v20
		C313,149.1,311.5,150.6,309.6,150.6z"></path>
</g>
<g id="рука_цвет">
<polygon fill="#FFFFFF" points="134.5,218.2 140.3,235.2 145.7,248.5 152.2,254.7 157.7,260.3 166.6,265.9 171,268 169.4,271.3
		170.2,277.7 179.8,300.8 182.7,304.4 184.1,307.5 183.6,316.8 197.5,318.6 252,318.6 252,315.2 249.2,306.8 240.5,293.7
		233.5,287.1 234.5,283.7 233.8,279.3 223.9,253.8 222.4,251.5 219.8,249.2 223.3,240.1 225.2,229 224.1,219.7 221.1,208.5
		217.1,199.5 146.7,227 141.5,227.2 137.1,223.9 	"></polygon>
<polygon fill="#47B2E5" points="224.9,256.2 221.7,250.9 218.7,249.6 214.6,250 173.1,266.4 170,269 169.4,273.8 179.8,300.8
		182.7,304.4 184.1,307.5 183.6,317.8 252,317.8 252,315.2 246.9,302.9 240.5,293.7 233.6,286.4 234.6,282.9 233.5,277.3 	"></polygon>
<path fill="none" stroke="#E8E7E8" stroke-width="3" stroke-linecap="round" stroke-linejoin="round" stroke-miterlimit="10" d="
		M140.8,227.1c4.9,15,10,29.1,30.7,39.2"></path>
<path fill="none" stroke="#E8E7E8" stroke-width="3" stroke-linecap="round" stroke-linejoin="round" stroke-miterlimit="10" d="
		M137.4,226.5c2.5,3.5,7,4.9,11.2,3.3l68.5-26.4"></path>
<path fill="none" stroke="#2BA1DB" stroke-width="3" stroke-linecap="round" stroke-linejoin="round" stroke-miterlimit="10" d="
		M227.5,289.9L190.9,304c-3.4,1.3-7.3-0.4-8.6-3.8l-10.2-26.5c-1.3-3.4,0.4-7.3,3.8-8.6l33-12.6"></path>
<path fill="none" stroke="#2BA1DB" stroke-width="3" stroke-linecap="round" stroke-linejoin="round" stroke-miterlimit="10" d="
		M185.9,315.8c0.5-4.8,1.6-8.5,0.7-11"></path>
</g>
<g id="рука">
<path fill="none" stroke="#005F8C" stroke-width="3" stroke-linecap="round" stroke-linejoin="round" stroke-miterlimit="10" d="
		M230.3,288.9L188.6,305c-3.4,1.3-7.3-0.4-8.6-3.8l-10.2-26.5c-1.3-3.4,0.4-7.3,3.8-8.6l41.7-16.1c3.4-1.3,7.3,0.4,8.6,3.8
		l10.2,26.5C235.4,283.7,233.7,287.6,230.3,288.9z"></path>
<path fill="none" stroke="#005F8C" stroke-width="3" stroke-linecap="round" stroke-linejoin="round" stroke-miterlimit="10" d="
		M183.6,316.8c0.5-4.8,1.6-8.5,0.7-11"></path>
<path fill="none" stroke="#005F8C" stroke-width="3" stroke-linecap="round" stroke-linejoin="round" stroke-miterlimit="10" d="
		M252.6,317.1c-6.2-20.9-17.7-27.5-19-30.9"></path>
<ellipse transform="matrix(0.9332 -0.3594 0.3594 0.9332 -89.5708 85.6332)" fill="none" stroke="#005F8C" stroke-width="3" stroke-linecap="round" stroke-linejoin="round" stroke-miterlimit="10" cx="185.5" cy="283.7" rx="5.6" ry="5.6"></ellipse>
<ellipse transform="matrix(0.9332 -0.3594 0.3594 0.9332 -89.0151 85.7721)" fill="#005F8C" cx="186.1" cy="282.3" rx="0.4" ry="0.4"></ellipse>
<ellipse transform="matrix(0.9332 -0.3594 0.3594 0.9332 -90.1346 85.5054)" fill="#005F8C" cx="184.9" cy="285.1" rx="0.4" ry="0.4"></ellipse>
<ellipse transform="matrix(0.9332 -0.3593 0.3593 0.9332 -89.6846 86.1656)" fill="#005F8C" cx="186.9" cy="284.3" rx="0.4" ry="0.4"></ellipse>
<ellipse transform="matrix(0.9332 -0.3594 0.3594 0.9332 -89.4415 85.079)" fill="#005F8C" cx="184.1" cy="283.1" rx="0.4" ry="0.4"></ellipse>
<path fill="none" stroke="#005F8C" stroke-width="3" stroke-linecap="round" stroke-linejoin="round" stroke-miterlimit="10" d="
		M219.8,249.2c7.8-17.6,7.2-26.4-2.7-48.8"></path>
<path fill="none" stroke="#005F8C" stroke-width="3" stroke-linecap="round" stroke-linejoin="round" stroke-miterlimit="10" d="
		M135.8,221.5c5.9,17.7,9.4,34.8,34.6,46.2"></path>
</g>
 <g id="кошелёк_цвет">
<polygon fill="#FFFFFF" points="122.9,134.8 110.3,140.5 107.4,145.7 108.7,152.3 135.3,221.5 137.9,224.8 142.1,227.4
		145.5,227.6 231.8,195.1 233.9,191.7 235.2,187.7 234.9,183.8 229.4,169.4 234.8,167.1 235.6,163.4 227.7,143.8 226,143
		220.6,144.4 213.2,129.8 210.1,126 205.8,124.9 199.5,126.3 187.5,130.8 182.4,119.2 179.3,116.6 174.5,115.5 170.3,116.5 	"></polygon>
<polyline fill="#47B2E5" points="185.9,126 182.4,118.1 178.2,115.9 174.5,115.5 170.3,116.5 109.9,141.2 107.6,147 110.4,155.4
		136.2,222.8 139.9,226.3 143.4,227.9 149.1,226.6 229.7,195.6 233.5,192.9 235.8,188.1 234.4,181.2 229.8,169.4 234.8,167.1
		236.3,164.2 227.7,143.8 224.6,143.1 220.3,144.8 213.4,126.9 208.8,125.7 204,125.2 189,130.8 187.4,129.8 185.9,126 	"></polyline>
<path fill="none" stroke="#2BA1DB" stroke-width="3" stroke-linecap="round" stroke-linejoin="round" stroke-miterlimit="10" d="
		M131.6,201.7l7.1,18.6c1.4,3.6,4.7,5.9,8.3,6.1"></path>
<path fill="none" stroke="#2BA1DB" stroke-width="3" stroke-linecap="round" stroke-linejoin="round" stroke-miterlimit="10" d="
		M117,137.2c-4.9,1.9-7.4,7.4-5.5,12.3l20.1,52.2"></path>
<path fill="none" stroke="#2BA1DB" stroke-width="3" stroke-linecap="round" stroke-linejoin="round" stroke-miterlimit="10" d="
		M197.7,153.5c-1.7,0.7-2.6,2.6-1.9,4.3l7.1,18.4c0.7,1.7,2.6,2.6,4.3,1.9"></path>
<line fill="none" stroke="#2BA1DB" stroke-width="3" stroke-linecap="round" stroke-linejoin="round" stroke-miterlimit="10" x1="127.4" y1="152.7" x2="186.7" y2="129.9"></line>
<path fill="none" stroke="#2BA1DB" stroke-width="3" stroke-linecap="round" stroke-linejoin="round" stroke-miterlimit="10" d="
		M163,124.8c0,4-2.4,7.7-6.3,9.2c-3.9,1.5-8.2,0.4-10.9-2.6"></path>
<path fill="none" stroke="#2BA1DB" stroke-width="3" stroke-linecap="round" stroke-linejoin="round" stroke-miterlimit="10" d="
		M181.3,118c-0.1,3.8-2.5,7.4-6.3,8.9c-3.7,1.4-7.8,0.5-10.5-2.2"></path>
<path fill="none" stroke="#2BA1DB" stroke-width="3" stroke-linecap="round" stroke-linejoin="round" stroke-miterlimit="10" d="
		M125.6,136.2c0.3,0.7,0.5,1.5,0.5,2.2c0.3,3.7-1.8,7.3-5.4,8.6c-3.8,1.5-8,0-10.1-3.3"></path>
<path fill="none" stroke="#2BA1DB" stroke-width="3" stroke-linecap="round" stroke-linejoin="round" stroke-miterlimit="10" d="
		M144.5,130.9c0.5,4.3-2,8.6-6.3,10.2c-4,1.5-8.3,0.3-11-2.7"></path>
</g>
<g id="кошелёк">
<path fill="none" stroke="#242D3C" stroke-width="3" stroke-linecap="round" stroke-linejoin="round" stroke-miterlimit="10" d="
		M220.3,144.8L215,131c-1.9-4.9-7.4-7.4-12.3-5.5l-72.7,28"></path>
<path fill="none" stroke="#242D3C" stroke-width="3" stroke-linecap="round" stroke-linejoin="round" stroke-miterlimit="10" d="
		M128.7,202.9l7.1,18.6c1.9,4.9,7.4,7.4,12.3,5.5l81.6-31.4c4.9-1.9,7.4-7.4,5.5-12.3l-5.3-13.8"></path>
<path fill="none" stroke="#242D3C" stroke-width="3" stroke-linecap="round" stroke-linejoin="round" stroke-miterlimit="10" d="
		M187.9,131.2l-3.7-9.7c-1.9-4.9-7.4-7.4-12.3-5.5L114,138.4"></path>
<path fill="none" stroke="#242D3C" stroke-width="3" stroke-linecap="round" stroke-linejoin="round" stroke-miterlimit="10" d="
		M114,138.4c-4.9,1.9-7.4,7.4-5.5,12.3l20.1,52.2"></path>
<path fill="none" stroke="#242D3C" stroke-width="3" stroke-linecap="round" stroke-linejoin="round" stroke-miterlimit="10" d="
		M205.3,178.9l28.8-11.1c1.7-0.7,2.6-2.6,1.9-4.3L229,145c-0.7-1.7-2.6-2.6-4.3-1.9l-28.8,11.1c-1.7,0.7-2.6,2.6-1.9,4.3l7.1,18.4
		C201.7,178.7,203.6,179.5,205.3,178.9z"></path>
<ellipse transform="matrix(0.9332 -0.3594 0.3594 0.9332 -42.1919 90.1532)" fill="none" stroke="#242D3C" stroke-width="3" stroke-linecap="round" stroke-linejoin="round" stroke-miterlimit="10" cx="221.3" cy="158.5" rx="6.3" ry="6.3"></ellipse>
<path fill="none" stroke="#242D3C" stroke-width="3" stroke-linecap="round" stroke-linejoin="round" stroke-miterlimit="10" d="
		M130.1,153.6c-1.7,0.6-3.5-0.2-4.1-1.8c-0.6-1.7,0.2-3.5,1.8-4.1"></path>
<line fill="none" stroke="#242D3C" stroke-width="3" stroke-linecap="round" stroke-linejoin="round" stroke-miterlimit="10" x1="127.7" y1="147.6" x2="162.8" y2="134.1"></line>
<path fill="none" stroke="#242D3C" stroke-width="3" stroke-linecap="round" stroke-linejoin="round" stroke-miterlimit="10" d="
		M134.8,157.7l68.7-26.5c2.7-1.1,5.8,0.3,6.9,3l2.4,6.3"></path>
<line fill="none" stroke="#242D3C" stroke-width="3" stroke-linecap="round" stroke-linejoin="round" stroke-miterlimit="10" x1="202.2" y1="199.4" x2="157" y2="217.1"></line>
<path fill="none" stroke="#242D3C" stroke-width="3" stroke-linecap="round" stroke-linejoin="round" stroke-miterlimit="10" d="
		M227.1,177.2l2.4,6.3c1,2.5-0.3,5.3-2.8,6.3l-15.5,6"></path>
</g>
<g id="палец_цвет">
<ellipse transform="matrix(0.9332 -0.3594 0.3594 0.9332 -41.5286 51.1096)" fill="#FFFFFF" cx="116.7" cy="137.2" rx="8.4" ry="8.4"></ellipse>
<ellipse transform="matrix(0.9332 -0.3594 0.3594 0.9332 -37.7685 56.7069)" fill="#FFFFFF" cx="133.6" cy="129.9" rx="9.9" ry="9.9"></ellipse>
<ellipse transform="matrix(0.9332 -0.3594 0.3594 0.9332 -33.9832 62.8607)" fill="#FFFFFF" cx="152.1" cy="122.8" rx="9.9" ry="9.9"></ellipse>
<ellipse transform="matrix(0.9332 -0.3594 0.3594 0.9332 -30.224 68.9717)" fill="#FFFFFF" cx="170.4" cy="115.8" rx="9.9" ry="9.9"></ellipse>
<polygon fill="#FFFFFF" points="161.5,235.2 159.5,227.6 160.2,218 163.1,211.7 168.5,206.1 172,201.7 172.7,197.1 170.3,191
		162.2,168.7 162.8,163.4 166.1,158.5 170.2,155.5 175,154.3 179.8,154.3 184.6,157.7 188.2,162.9 191.5,171.6 206.3,210 	"></polygon>
<line fill="none" stroke="#2BA1DB" stroke-width="3" stroke-linecap="round" stroke-linejoin="round" stroke-miterlimit="10" x1="190.9" y1="162.2" x2="206.8" y2="203.5"></line>
<path fill="none" stroke="#2BA1DB" stroke-width="3" stroke-linecap="round" stroke-linejoin="round" stroke-miterlimit="10" d="
		M175.5,153.9c6.4-1.4,13,2,15.4,8.3"></path>
</g>
<g id="палец">
<path fill="none" stroke="#E8E7E8" stroke-width="3" stroke-linecap="round" stroke-linejoin="round" stroke-miterlimit="10" d="
		M117.3,145.5c-3-0.4-5.7-2.3-6.8-5.3c-1.7-4.3,0.5-9.2,4.8-10.9c0.5-0.2,1-0.3,1.4-0.4"></path>
<path fill="none" stroke="#E8E7E8" stroke-width="3" stroke-linecap="round" stroke-linejoin="round" stroke-miterlimit="10" d="
		M132.9,139.3c-2.8-0.9-5.2-3-6.3-5.9c-2-5.1,0.6-10.8,5.7-12.8c0.5-0.2,0.9-0.3,1.4-0.4"></path>
<path fill="none" stroke="#E8E7E8" stroke-width="3" stroke-linecap="round" stroke-linejoin="round" stroke-miterlimit="10" d="
		M150.9,132.3c-2.8-0.9-5.2-3-6.3-5.9c-2-5.1,0.6-10.8,5.7-12.8c0.5-0.2,0.9-0.3,1.4-0.4"></path>
<path fill="none" stroke="#E8E7E8" stroke-width="3" stroke-linecap="round" stroke-linejoin="round" stroke-miterlimit="10" d="
		M169.8,125.2c-2.8-0.9-5.2-3-6.3-5.9c-2-5.1,0.6-10.8,5.7-12.8c0.5-0.2,0.9-0.3,1.4-0.4"></path>
<ellipse transform="matrix(0.9332 -0.3594 0.3594 0.9332 -33.9728 62.6976)" fill="none" stroke="#005F8C" stroke-width="3" stroke-linecap="round" stroke-linejoin="round" stroke-miterlimit="10" cx="151.6" cy="122.7" rx="9.9" ry="9.9"></ellipse>
<ellipse transform="matrix(0.9332 -0.3594 0.3594 0.9332 -30.2136 68.8085)" fill="none" stroke="#005F8C" stroke-width="3" stroke-linecap="round" stroke-linejoin="round" stroke-miterlimit="10" cx="169.9" cy="115.7" rx="9.9" ry="9.9"></ellipse>
<path fill="none" stroke="#E8E7E8" stroke-width="3" stroke-linecap="round" stroke-linejoin="round" stroke-miterlimit="10" d="
		M166,173.1c-2.7-6.9,0.8-14.7,7.7-17.3c1.4-0.6,2.9-0.8,4.4-0.9"></path>
<line fill="none" stroke="#E8E7E8" stroke-width="3" stroke-linecap="round" stroke-linejoin="round" stroke-miterlimit="10" x1="166" y1="173.1" x2="174.7" y2="195.6"></line>
<path fill="none" stroke="#E8E7E8" stroke-width="3" stroke-linecap="round" stroke-linejoin="round" stroke-miterlimit="10" d="
		M164,215.8c3.3-7.5,8.7-8.8,10.8-13.5"></path>
<path fill="none" stroke="#E8E7E8" stroke-width="3" stroke-linecap="round" stroke-linejoin="round" stroke-miterlimit="10" d="
		M164,215.8c-4.2,9.4-2.1,21.1,0.9,29.8"></path>
<path fill="none" stroke="#E8E7E8" stroke-width="3" stroke-linecap="round" stroke-linejoin="round" stroke-miterlimit="10" d="
		M174.9,202.3c0.9-2.1,1-4.5-0.1-6.6"></path>
<ellipse transform="matrix(0.9332 -0.3594 0.3594 0.9332 -41.5182 50.9464)" fill="none" stroke="#005F8C" stroke-width="3" stroke-linecap="round" stroke-linejoin="round" stroke-miterlimit="10" cx="116.2" cy="137.1" rx="8.4" ry="8.4"></ellipse>
<ellipse transform="matrix(0.9332 -0.3594 0.3594 0.9332 -37.7582 56.5441)" fill="none" stroke="#005F8C" stroke-width="3" stroke-linecap="round" stroke-linejoin="round" stroke-miterlimit="10" cx="133.2" cy="129.8" rx="9.9" ry="9.9"></ellipse>
<path fill="none" stroke="#005F8C" stroke-width="3" stroke-linecap="round" stroke-linejoin="round" stroke-miterlimit="10" d="
		M163.2,172.5c-2.7-6.9,0.8-14.7,7.7-17.3c6.9-2.7,14.7,0.8,17.3,7.7"></path>
<line fill="none" stroke="#005F8C" stroke-width="3" stroke-linecap="round" stroke-linejoin="round" stroke-miterlimit="10" x1="163.2" y1="172.5" x2="171.8" y2="195.1"></line>
<path fill="none" stroke="#005F8C" stroke-width="3" stroke-linecap="round" stroke-linejoin="round" stroke-miterlimit="10" d="
		M161.1,215.2c3.3-7.5,8.7-8.8,10.8-13.5"></path>
<path fill="none" stroke="#005F8C" stroke-width="3" stroke-linecap="round" stroke-linejoin="round" stroke-miterlimit="10" d="
		M161.1,215.2c-4.2,9.4,0.8,21.6,3.7,30.4"></path>
<path fill="none" stroke="#005F8C" stroke-width="3" stroke-linecap="round" stroke-linejoin="round" stroke-miterlimit="10" d="
		M172,201.7c0.9-2.1,1-4.5-0.1-6.6"></path>
<line fill="none" stroke="#242D3C" stroke-width="3" stroke-linecap="round" stroke-linejoin="round" stroke-miterlimit="10" x1="212.3" y1="202.3" x2="205.4" y2="204.9"></line>
<line fill="none" stroke="#005F8C" stroke-width="3" stroke-linecap="round" stroke-linejoin="round" stroke-miterlimit="10" x1="188.2" y1="162.9" x2="206.8" y2="211.2"></line>
</g>
<g id="вспышка">
<line fill="none" stroke="#7FB2F0" stroke-width="3" stroke-linecap="round" stroke-linejoin="round" stroke-miterlimit="10" x1="71.9" y1="160.3" x2="84.1" y2="160.3"></line>
<path fill="none" stroke="#7FB2F0" stroke-width="3" stroke-linecap="round" stroke-linejoin="round" stroke-miterlimit="10" d="
		M109.6,97.2l-8.6-8.6L109.6,97.2z"></path>
<path fill="none" stroke="#7FB2F0" stroke-width="3" stroke-linecap="round" stroke-linejoin="round" stroke-miterlimit="10" d="
		M68.1,116.6l34.5,14.3L68.1,116.6z"></path>
<line fill="none" stroke="#7FB2F0" stroke-width="3" stroke-linecap="round" stroke-linejoin="round" stroke-miterlimit="10" x1="138.6" y1="78.3" x2="133.9" y2="67.1"></line>
<path fill="none" stroke="#7FB2F0" stroke-width="3" stroke-linecap="round" stroke-linejoin="round" stroke-miterlimit="10" d="
		M68.1,204.3l34.5-14.3L68.1,204.3z"></path>
<path fill="none" stroke="#7FB2F0" stroke-width="3" stroke-linecap="round" stroke-linejoin="round" stroke-miterlimit="10" d="
		M235,223.6l8.6,8.6L235,223.6z"></path>
<path fill="none" stroke="#7FB2F0" stroke-width="3" stroke-linecap="round" stroke-linejoin="round" stroke-miterlimit="10" d="
		M276.5,204.3L242,189.9L276.5,204.3z"></path>
</g>
<g id="полоска">
<line fill="none" stroke="#005F8C" stroke-width="3" stroke-linecap="round" stroke-linejoin="round" stroke-miterlimit="10" x1="30.3" y1="317.8" x2="325.7" y2="317.8"></line>
</g>
</svg>