<svg viewBox="0 0 350 350" id="index-ico2" width="100%" height="100%">
<g id="фон">
<rect fill="#FFFFFF" width="350" height="350"></rect>
</g>
<g id="пятно">
<circle fill="#D6ECFC" cx="212.6" cy="158.7" r="115.8"></circle>
<circle fill="#D6ECFC" cx="89.8" cy="180" r="73.8"></circle>
<circle fill="#D6ECFC" cx="67.2" cy="53.5" r="35.8"></circle>
<circle fill="#D6ECFC" cx="118.7" cy="29.5" r="16.1"></circle>
</g>
<g id="элементы">
<line fill="none" stroke="#47B2E5" stroke-width="3" stroke-linecap="round" stroke-linejoin="round" stroke-miterlimit="10" x1="303.4" y1="234.1" x2="311.7" y2="242.4"></line>
<line fill="none" stroke="#47B2E5" stroke-width="3" stroke-linecap="round" stroke-linejoin="round" stroke-miterlimit="10" x1="303.4" y1="242.4" x2="311.7" y2="234.1"></line>
<line fill="none" stroke="#47B2E5" stroke-width="3" stroke-linecap="round" stroke-linejoin="round" stroke-miterlimit="10" x1="320.2" y1="238.3" x2="340.9" y2="238.3"></line>
<circle fill="none" stroke="#47B2E5" stroke-width="3" stroke-linecap="round" stroke-linejoin="round" stroke-miterlimit="10" cx="326.6" cy="133.1" r="6.4"></circle>
<circle fill="none" stroke="#47B2E5" stroke-width="3" stroke-linecap="round" stroke-linejoin="round" stroke-miterlimit="10" cx="260.5" cy="17.6" r="6.4"></circle>
<line fill="none" stroke="#47B2E5" stroke-width="3" stroke-linecap="round" stroke-linejoin="round" stroke-miterlimit="10" x1="87.4" y1="43" x2="75.7" y2="43"></line>
<line fill="none" stroke="#47B2E5" stroke-width="3" stroke-linecap="round" stroke-linejoin="round" stroke-miterlimit="10" x1="81.6" y1="48.8" x2="81.6" y2="37.1"></line>
<line fill="none" stroke="#47B2E5" stroke-width="3" stroke-linecap="round" stroke-linejoin="round" stroke-miterlimit="10" x1="319.5" y1="105.2" x2="307.8" y2="105.2"></line>
<line fill="none" stroke="#47B2E5" stroke-width="3" stroke-linecap="round" stroke-linejoin="round" stroke-miterlimit="10" x1="313.6" y1="111.1" x2="313.6" y2="99.4"></line>
<line fill="none" stroke="#47B2E5" stroke-width="3" stroke-linecap="round" stroke-linejoin="round" stroke-miterlimit="10" x1="67.2" y1="43" x2="36" y2="43"></line>
<line fill="none" stroke="#47B2E5" stroke-width="3" stroke-linecap="round" stroke-linejoin="round" stroke-miterlimit="10" x1="98.7" y1="43" x2="204.6" y2="43"></line>
<line fill="none" stroke="#47B2E5" stroke-width="3" stroke-linecap="round" stroke-linejoin="round" stroke-miterlimit="10" x1="193.8" y1="53.5" x2="237.3" y2="53.5"></line>
<line fill="none" stroke="#47B2E5" stroke-width="3" stroke-linecap="round" stroke-linejoin="round" stroke-miterlimit="10" x1="11.9" y1="152.7" x2="20.1" y2="161"></line>
<line fill="none" stroke="#47B2E5" stroke-width="3" stroke-linecap="round" stroke-linejoin="round" stroke-miterlimit="10" x1="11.9" y1="161" x2="20.1" y2="152.7"></line>
<line fill="none" stroke="#47B2E5" stroke-width="3" stroke-linecap="round" stroke-linejoin="round" stroke-miterlimit="10" x1="26.2" y1="114.7" x2="34.5" y2="123"></line>
<line fill="none" stroke="#47B2E5" stroke-width="3" stroke-linecap="round" stroke-linejoin="round" stroke-miterlimit="10" x1="26.2" y1="123" x2="34.5" y2="114.7"></line>
<circle fill="none" stroke="#47B2E5" stroke-width="3" stroke-linecap="round" stroke-linejoin="round" stroke-miterlimit="10" cx="303.4" cy="42.5" r="25.9"></circle>
</g>
<g id="страница_цвет">
<path fill="#FFFFFF" d="M295.6,317.2l-248.6,0.1V90.1c0-6.1,4.9-11,11-11h226.6c6.1,0,11,4.9,11,11V317.2z"></path>
<polygon fill="#47B2E5" points="63.2,79.1 52.5,81.2 48.3,83.9 47.1,92.8 47.1,102.1 295.6,102.1 295.6,86.3 292.2,82.2
		287.4,79.5 282.6,79.5 	"></polygon>
<circle fill="#E8E7E8" cx="60.7" cy="91.2" r="3.8"></circle>
<circle fill="#E8E7E8" cx="72" cy="91.2" r="3.8"></circle>
<circle fill="#E8E7E8" cx="83.5" cy="91.2" r="3.8"></circle>
<rect x="47.1" y="102.1" fill="#E8E7E8" width="248.6" height="215.1"></rect>
<rect x="60.7" y="115.1" fill="#FFFFFF" width="221.9" height="194.9"></rect>
<line fill="none" stroke="#CCCBC9" stroke-width="3" stroke-linecap="round" stroke-linejoin="round" stroke-miterlimit="10" x1="49.5" y1="165.3" x2="49.5" y2="102.5"></line>
<line fill="none" stroke="#2BA1DB" stroke-width="3" stroke-linecap="round" stroke-linejoin="round" stroke-miterlimit="10" x1="49.5" y1="100.8" x2="49.5" y2="93"></line>
<path fill="none" stroke="#2BA1DB" stroke-width="3" stroke-linecap="round" stroke-linejoin="round" stroke-miterlimit="10" d="
		M49.5,93c0-7.5,6-13.5,13.5-13.5"></path>
<path fill="none" stroke="#CCCBC9" stroke-width="3" stroke-linecap="round" stroke-linejoin="round" stroke-miterlimit="10" d="
		M57.7,93c0-2.4,2-4.4,4.4-4.4"></path>
<path fill="none" stroke="#CCCBC9" stroke-width="3" stroke-linecap="round" stroke-linejoin="round" stroke-miterlimit="10" d="
		M69.3,93c0-2.4,2-4.4,4.4-4.4"></path>
<path fill="none" stroke="#CCCBC9" stroke-width="3" stroke-linecap="round" stroke-linejoin="round" stroke-miterlimit="10" d="
		M80.8,92.3c0-2.2,1.8-3.9,3.9-3.9"></path>
<line fill="none" stroke="#E8E7E8" stroke-width="3" stroke-linecap="round" stroke-linejoin="round" stroke-miterlimit="10" x1="62.2" y1="115.1" x2="62.2" y2="165.3"></line>
<path fill="none" stroke="#E8E7E8" stroke-width="3" stroke-linecap="round" stroke-linejoin="round" stroke-miterlimit="10" d="
		M227.6,309v-77.8c0-3.9,3.2-7.1,7.1-7.1h25.9"></path>
<path fill="none" stroke="#CCCBC9" stroke-width="3" stroke-linecap="round" stroke-linejoin="round" stroke-miterlimit="10" d="
		M231.5,316.8c-2.3-1.2-3.8-3.6-3.8-6.3"></path>
<path fill="none" stroke="#E8E7E8" stroke-width="3" stroke-linecap="round" stroke-linejoin="round" stroke-miterlimit="10" d="
		M211,265.8l-85.4-7.7c-1.9-0.2-3.5-1.5-4-3.3l-2.2-7.9"></path>
<path fill="none" stroke="#E8E7E8" stroke-width="3" stroke-linecap="round" stroke-linejoin="round" stroke-miterlimit="10" d="
		M124.8,308.7c-0.6-1.6-1-3.3-1-5.1c0-7.8,6.3-14.1,14.1-14.1"></path>
<path fill="none" stroke="#E8E7E8" stroke-width="3" stroke-linecap="round" stroke-linejoin="round" stroke-miterlimit="10" d="
		M182.3,309.1c-0.6-1.6-1-3.3-1-5.1c0-7.8,6.3-14.1,14.1-14.1"></path>
<path fill="none" stroke="#CCCBC9" stroke-width="3" stroke-linecap="round" stroke-linejoin="round" stroke-miterlimit="10" d="
		M138,317.7c-5.7,0-10.5-3.3-12.8-8.1"></path>
<path fill="none" stroke="#CCCBC9" stroke-width="3" stroke-linecap="round" stroke-linejoin="round" stroke-miterlimit="10" d="
		M195.7,317.7c-5.5,0-10.2-3.1-12.5-7.6"></path>
<path fill="none" stroke="#E8E7E8" stroke-width="3" stroke-linecap="round" stroke-linejoin="round" stroke-miterlimit="10" d="
		M116.2,180.8c5-5.1,9.7-6.4,18-6.3"></path>
<path fill="none" stroke="#E8E7E8" stroke-width="3" stroke-linecap="round" stroke-linejoin="round" stroke-miterlimit="10" d="
		M142.2,170.4c0,3,0.6,5.4,1.4,5.4"></path>
<path fill="none" stroke="#E8E7E8" stroke-width="3" stroke-linecap="round" stroke-linejoin="round" stroke-miterlimit="10" d="
		M142.2,170.4c0-11.8,11.2-21.3,25-21.3"></path>
<line fill="none" stroke="#E8E7E8" stroke-width="3" stroke-linecap="round" stroke-linejoin="round" stroke-miterlimit="10" x1="271.1" y1="215.2" x2="266" y2="215.2"></line>
<line fill="none" stroke="#E8E7E8" stroke-width="3" stroke-linecap="round" stroke-linejoin="round" stroke-miterlimit="10" x1="266" y1="215.2" x2="266" y2="199"></line>
<path fill="none" stroke="#E8E7E8" stroke-width="3" stroke-linecap="round" stroke-linejoin="round" stroke-miterlimit="10" d="
		M263.8,186.1c0,7.1,1.1,9.6,2.2,12.9"></path>
<path fill="none" stroke="#E8E7E8" stroke-width="3" stroke-linecap="round" stroke-linejoin="round" stroke-miterlimit="10" d="
		M263.8,186.1c0-14.2,9-25.4,18.1-29"></path>
<path fill="none" stroke="#CCCBC9" stroke-width="3" stroke-linecap="round" stroke-linejoin="round" stroke-miterlimit="10" d="
		M283.1,156.7c2.1-1.1,7.4-2.6,12.6-2.6"></path>
<line fill="none" stroke="#E8E7E8" stroke-width="3" stroke-linecap="round" stroke-linejoin="round" stroke-miterlimit="10" x1="120.8" y1="252" x2="116.1" y2="309.5"></line>
<path fill="none" stroke="#CCCBC9" stroke-width="3" stroke-linecap="round" stroke-linejoin="round" stroke-miterlimit="10" d="
		M61.7,317.7h13.7h34c3.3,0,6-2.5,6.3-5.8l0.3-1.9"></path>
</g>
<g id="страница">
<path fill="none" stroke="#1690CF" stroke-width="3" stroke-linecap="round" stroke-linejoin="round" stroke-miterlimit="10" d="
		M295.7,317.5l-248.6,0.1V90.5c0-6.1,4.9-11,11-11h226.6c6.1,0,11,4.9,11,11V317.5z"></path>
<line fill="none" stroke="#1690CF" stroke-width="3" stroke-linecap="round" stroke-linejoin="round" stroke-miterlimit="10" x1="47.1" y1="102.1" x2="295.7" y2="102.1"></line>
<circle fill="none" stroke="#1690CF" stroke-width="3" stroke-linecap="round" stroke-linejoin="round" stroke-miterlimit="10" cx="60.7" cy="91.2" r="3.5"></circle>
<circle fill="none" stroke="#1690CF" stroke-width="3" stroke-linecap="round" stroke-linejoin="round" stroke-miterlimit="10" cx="72" cy="91.2" r="3.5"></circle>
<circle fill="none" stroke="#1690CF" stroke-width="3" stroke-linecap="round" stroke-linejoin="round" stroke-miterlimit="10" cx="83.5" cy="91.2" r="3.5"></circle>
<rect x="60" y="115.1" fill="none" stroke="#1690CF" stroke-width="3" stroke-linecap="round" stroke-linejoin="round" stroke-miterlimit="10" width="222.6" height="194.5"></rect>
</g>
<g id="стакан_цвет">
<path fill="#FFFFFF" d="M125.7,202.7H21.4c-1.5,0-2.7-1.2-2.7-2.7v-12.2c0-1.5,1.2-2.7,2.7-2.7h104.4c1.5,0,2.7,1.2,2.7,2.7v12.2
		C128.5,201.4,127.2,202.7,125.7,202.7z"></path>
<path fill="#FFFFFF" d="M28.8,184.7l3.5-13.9c0.9-3.7,2.6-5.5,5.8-5.5H73h34.9c3.2,0,4.9,1.8,5.8,5.5l3.5,13.9"></path>
<path fill="#FFFFFF" d="M23.7,202.7l9,108.9c0.3,3.3,3,5.8,6.3,5.8h34h34c3.3,0,6-2.5,6.3-5.8l9-108.9"></path>
<polyline fill="#47B2E5" points="25,221.2 25.8,218.9 119.2,218.8 120.8,221.2 115.1,290.3 112.8,291.6 32.3,291.6 30.5,288.8
		25,221.2 	"></polyline>
<polygon fill="#E8E7E8" points="50.2,239.1 48.5,241.2 48.5,260.4 49.8,262.4 54.2,264.4 70.5,263.8 72.5,262.8 73.6,259.8
		73,239.5 61,232.8 	"></polygon>
<path fill="none" stroke="#E8E7E8" stroke-width="3" stroke-linecap="round" stroke-linejoin="round" stroke-miterlimit="10" d="
		M31.7,184.3l3.2-12.9c0.9-3.7,2.6-5.5,5.8-5.5h34.9l33.4-0.1"></path>
<path fill="#E8E7E8" stroke="#E8E7E8" stroke-width="3" stroke-linecap="round" stroke-linejoin="round" stroke-miterlimit="10" d="
		M52.6,165.8c-3.2,0-4.9,1.8-5.8,5.5l-3.2,12.9h-6.7l3.2-12.9c0.9-3.7,2.6-5.5,5.8-5.5"></path>
<path fill="none" stroke="#E8E7E8" stroke-width="3" stroke-linecap="round" stroke-linejoin="round" stroke-miterlimit="10" d="
		M81.2,202.7l-57.5,0.1c-1.5,0-2.7-1.2-2.7-2.7v-12.2c0-1.5,1.2-2.7,2.7-2.7h57.5"></path>
<path fill="none" stroke="#E8E7E8" stroke-width="3" stroke-linecap="round" stroke-linejoin="round" stroke-miterlimit="10" d="
		M33.3,292.4l1.6,19.3c0.3,3.3,3,5.8,6.3,5.8h34"></path>
<line fill="none" stroke="#E8E7E8" stroke-width="3" stroke-linecap="round" stroke-linejoin="round" stroke-miterlimit="10" x1="25.9" y1="202.8" x2="27.2" y2="218.5"></line>
<polyline fill="#E8E7E8" stroke="#E8E7E8" stroke-width="3" stroke-linecap="round" stroke-linejoin="round" stroke-miterlimit="10" points="
		45.1,292.4 47.2,317.2 40.6,317.2 38.5,291.4 	"></polyline>
<polyline fill="#E8E7E8" stroke="#E8E7E8" stroke-width="3" stroke-linecap="round" stroke-linejoin="round" stroke-miterlimit="10" points="
		39,218.5 37.7,202.8 31.1,202.8 32.4,218.5 	"></polyline>
<polyline fill="#2BA1DB" stroke="#2BA1DB" stroke-width="3" stroke-linecap="round" stroke-linejoin="round" stroke-miterlimit="10" points="
		44.9,291.1 39,219.5 32.4,219.5 38.4,291.1 	"></polyline>
<line fill="none" stroke="#2BA1DB" stroke-width="3" stroke-linecap="round" stroke-linejoin="round" stroke-miterlimit="10" x1="27.2" y1="219.1" x2="33.2" y2="291.1"></line>
<path fill="none" stroke="#2BA1DB" stroke-width="3" stroke-linecap="round" stroke-linejoin="round" stroke-miterlimit="10" d="
		M67.4,264.1H51.1c-2.4,0-4.4-2-4.4-4.4v-19.4"></path>
<path fill="none" stroke="#2BA1DB" stroke-width="3" stroke-linecap="round" stroke-linejoin="round" stroke-miterlimit="10" d="
		M46.7,240.1l10.2-6.4c1-0.6,2.2-0.8,3.3-0.6"></path>
<line fill="none" stroke="#2BA1DB" stroke-width="3" stroke-linecap="round" stroke-linejoin="round" stroke-miterlimit="10" x1="59.1" y1="232.8" x2="59.1" y2="219.5"></line>
<line fill="none" stroke="#E8E7E8" stroke-width="3" stroke-linecap="round" stroke-linejoin="round" stroke-miterlimit="10" x1="59.1" y1="218.5" x2="59.1" y2="202.8"></line>
<line fill="none" stroke="#E8E7E8" stroke-width="3" stroke-linecap="round" stroke-linejoin="round" stroke-miterlimit="10" x1="24.2" y1="205.1" x2="107" y2="205.1"></line>
<line fill="none" stroke="#E8E7E8" stroke-width="3" stroke-linecap="round" stroke-linejoin="round" stroke-miterlimit="10" x1="32" y1="293.6" x2="114.5" y2="293.6"></line>
<path fill="none" stroke="#E8E7E8" stroke-width="3" stroke-linecap="round" stroke-linejoin="round" stroke-miterlimit="10" d="
		M109.4,204.8c-0.7-2.2-1.1-4.5-1.1-7c0-6.7,2.9-12.8,7.4-17.1"></path>
<path fill="none" stroke="#E8E7E8" stroke-width="3" stroke-linecap="round" stroke-linejoin="round" stroke-miterlimit="10" d="
		M114.1,205.4H106c-2.1,0-3.6,2-3,4l2.4,8.5"></path>
<path fill="none" stroke="#2BA1DB" stroke-width="3" stroke-linecap="round" stroke-linejoin="round" stroke-miterlimit="10" d="
		M119,244.2l-6.2-21.2h-1.8c-2.7,0-3.7-0.9-4.8-3.6"></path>
<polyline fill="#E8E7E8" stroke="#E8E7E8" stroke-width="3" stroke-linecap="round" stroke-linejoin="round" stroke-miterlimit="10" points="
		34.9,185.5 34.9,202.2 27.2,201.8 27.2,186 	"></polyline>
</g>
<g id="стакан">
<path fill="none" stroke="#005F8C" stroke-width="3" stroke-linecap="round" stroke-linejoin="round" stroke-miterlimit="10" d="
		M125.7,202.7H21.4c-1.5,0-2.7-1.2-2.7-2.7v-12.2c0-1.5,1.2-2.7,2.7-2.7h104.4c1.5,0,2.7,1.2,2.7,2.7V200
		C128.5,201.5,127.2,202.7,125.7,202.7z"></path>
<path fill="none" stroke="#005F8C" stroke-width="3" stroke-linecap="round" stroke-linejoin="round" stroke-miterlimit="10" d="
		M28.8,185l3.5-13.9c0.9-3.7,2.6-5.5,5.8-5.5H73h34.9c3.2,0,4.9,1.8,5.8,5.5l3.5,13.9"></path>
<path fill="none" stroke="#005F8C" stroke-width="3" stroke-linecap="round" stroke-linejoin="round" stroke-miterlimit="10" d="
		M23.7,202.8l9,108.9c0.3,3.3,3,5.8,6.3,5.8h34h34c3.3,0,6-2.5,6.3-5.8l9-108.9"></path>
<line fill="none" stroke="#005F8C" stroke-width="3" stroke-linecap="round" stroke-linejoin="round" stroke-miterlimit="10" x1="25" y1="219" x2="121.1" y2="219"></line>
<line fill="none" stroke="#005F8C" stroke-width="3" stroke-linecap="round" stroke-linejoin="round" stroke-miterlimit="10" x1="31" y1="291.4" x2="114.5" y2="291.4"></line>
<line fill="none" stroke="#005F8C" stroke-width="3" stroke-linecap="round" stroke-linejoin="round" stroke-miterlimit="10" x1="61" y1="202.8" x2="61" y2="232.5"></line>
<path fill="none" stroke="#005F8C" stroke-width="3" stroke-linecap="round" stroke-linejoin="round" stroke-miterlimit="10" d="
		M48.5,240.2l10.2-6.4c1.4-0.9,3.2-0.9,4.6,0l10.3,6.4v0.2v19.4c0,2.4-2,4.4-4.4,4.4H52.8c-2.4,0-4.4-2-4.4-4.4v-19.4"></path>
<line fill="none" stroke="#005F8C" stroke-width="3" stroke-linecap="round" stroke-linejoin="round" stroke-miterlimit="10" x1="77.3" y1="189.1" x2="119.8" y2="189.1"></line>
<line fill="none" stroke="#005F8C" stroke-width="3" stroke-linecap="round" stroke-linejoin="round" stroke-miterlimit="10" x1="92.3" y1="223.1" x2="105.5" y2="223.1"></line>
<line fill="none" stroke="#005F8C" stroke-width="3" stroke-linecap="round" stroke-linejoin="round" stroke-miterlimit="10" x1="42.3" y1="295.6" x2="66.3" y2="295.6"></line>
</g>
<g id="монеты">
<circle fill="#FFFFFF" cx="167.8" cy="172.5" r="23.4"></circle>
<path fill="none" stroke="#E8E7E8" stroke-width="3" stroke-linecap="round" stroke-linejoin="round" stroke-miterlimit="10" d="
		M156.1,188.7c6.7-7.5,19.5-9.5,28.1-5.3"></path>
<path fill="none" stroke="#E8E7E8" stroke-width="3" stroke-linecap="round" stroke-linejoin="round" stroke-miterlimit="10" d="
		M157.5,188.7c-2.5-7.5-6-10.6-12.1-13.7"></path>
<path fill="none" stroke="#E8E7E8" stroke-width="3" stroke-linecap="round" stroke-linejoin="round" stroke-miterlimit="10" d="
		M182.1,185c1.4-8.3,4.2-11.5,8.4-14.9"></path>
<circle fill="none" stroke="#1690CF" stroke-width="3" stroke-linecap="round" stroke-linejoin="round" stroke-miterlimit="10" cx="167.8" cy="172.5" r="23.4"></circle>
<g>
<g>
<path fill="#1690CF" d="M166.3,179.7c0,0.1,0,0.2,0,0.3c0.1,0,0.2,0,0.3,0l0.5,3.4l2.9-0.4l-0.5-3.6c0.1,0,0.1-0.1,0.2-0.1
				L166.3,179.7z"></path>
</g>
<g>
<rect x="164.4" y="161.9" transform="matrix(0.9905 -0.1377 0.1377 0.9905 -20.9982 24.3973)" fill="#1690CF" width="2.9" height="4"></rect>
</g>
<g>
<path fill="#1690CF" d="M172.7,178.9c-1.1,1-2.5,1.6-4.4,1.9l-1.2,0.2c-1.7,0.2-2.9,0-3.8-0.6c-0.8-0.6-1.4-1.8-1.6-3.4l-1.3-9.6
				c-0.1-1,0-1.6,0.4-1.8c0.4-0.3,1.4-0.5,3.1-0.7l2.5-0.3c1.8-0.3,3.3-0.1,4.5,0.4c1.2,0.5,1.9,1.5,2.1,3c0.3,1.9-0.5,3.4-2.4,4.4
				c2,0.3,3.1,1.3,3.3,3.1C174.2,176.7,173.8,177.9,172.7,178.9z M166,167.5l-1.8,0.2l0.6,4.2l1.4-0.2c1-0.1,1.8-0.4,2.3-0.9
				c0.5-0.5,0.7-1,0.6-1.8C169,167.7,168,167.2,166,167.5z M166.8,174.2l-1.5,0.2l0.3,2c0.1,0.6,0.3,1.1,0.5,1.3
				c0.3,0.2,0.7,0.3,1.3,0.2l0.3,0c0.7-0.1,1.3-0.4,1.8-0.8c0.5-0.4,0.7-0.9,0.6-1.6C169.9,174.3,168.8,173.9,166.8,174.2z"></path>
</g>
</g>
<circle fill="#FFFFFF" cx="134.1" cy="197.8" r="23.4"></circle>
<path fill="none" stroke="#E8E7E8" stroke-width="3" stroke-linecap="round" stroke-linejoin="round" stroke-miterlimit="10" d="
		M148.1,205.1c0-6.5,4-12.5,8-16.4"></path>
<circle fill="#FFFFFF" cx="207.6" cy="189.5" r="23.4"></circle>
<path fill="none" stroke="#E8E7E8" stroke-width="3" stroke-linecap="round" stroke-linejoin="round" stroke-miterlimit="10" d="
		M198.7,204.6c0-10.5-7.2-18.3-14.5-21.2"></path>
<circle fill="none" stroke="#1690CF" stroke-width="3" stroke-linecap="round" stroke-linejoin="round" stroke-miterlimit="10" cx="134.1" cy="197.8" r="23.4"></circle>
<circle fill="none" stroke="#1690CF" stroke-width="3" stroke-linecap="round" stroke-linejoin="round" stroke-miterlimit="10" cx="207.6" cy="189.1" r="23.4"></circle>
<circle fill="#FFFFFF" cx="173.5" cy="206.8" r="23.4"></circle>
<g>
<path fill="#1690CF" d="M133.9,200.4c1.3,0.8,2.6,0.8,4.1-0.1c1.2-0.7,2.1-1.5,2.9-2.5l0.5,0.9c0.4,0.8,0.4,1.6-0.3,2.5
			c-0.6,0.9-1.6,1.7-2.8,2.4c-1.4,0.8-2.8,1.1-4.2,0.9c-1.4-0.2-2.7-0.9-3.9-2l-1.6,0.9l-1.1-1.9l1.3-0.7c-0.2-0.3-0.5-0.7-0.7-1.1
			l-1.2,0.7l-1.1-1.9l1.3-0.8c-0.6-1.8-0.5-3.5,0.2-5c0.7-1.5,1.8-2.7,3.3-3.6c1.3-0.7,2.5-1.1,3.7-1.1c1.2,0,2,0.5,2.6,1.4
			c0.6,1.1,0.3,2-0.9,2.8l-0.7,0.4l-0.3-0.5c-0.3-0.5-0.7-0.8-1.1-0.8c-0.5-0.1-1,0.1-1.6,0.4c-0.7,0.4-1.2,0.9-1.5,1.6
			c-0.3,0.7-0.4,1.5-0.1,2.5l4.2-2.4l1.1,1.9l-4.4,2.5c0.2,0.4,0.5,0.8,0.7,1.1l4.3-2.4l1.1,1.9L133.9,200.4z"></path>
</g>
<g>
<path fill="#1690CF" d="M175,215.5l-0.7-2.5c-2.6,0.5-4.1,0-4.6-1.8l-0.3-1c1.4,0.2,2.8,0.2,4.2-0.2c1.6-0.4,2.2-1.1,2-1.9
			c-0.1-0.3-0.3-0.5-0.7-0.6c-0.4-0.1-0.9-0.2-1.4-0.2c-0.5,0-1.1,0-1.8-0.1c-0.7-0.1-1.3-0.2-1.9-0.4c-0.6-0.2-1.1-0.5-1.7-1.1
			s-0.9-1.2-1.1-2.1c-0.4-1.3-0.3-2.5,0.3-3.6c0.6-1.1,1.5-2,2.7-2.6l-0.7-2.6l2.8-0.8l0.7,2.5c1.3-0.2,2.5-0.1,3.4,0.3
			c0.9,0.4,1.5,1,1.8,1.9c0.2,0.6,0.1,1.2-0.2,1.7c-0.3,0.5-0.9,0.8-1.6,1l-0.9,0.3l-0.1-0.5c-0.2-0.6-0.5-1-1-1.3
			c-0.5-0.3-1-0.3-1.7-0.1c-0.6,0.2-1,0.4-1.2,0.9c-0.3,0.4-0.3,0.9-0.2,1.3c0.2,0.6,0.5,1,1.1,1.2c0.6,0.2,1.2,0.3,2,0.3
			c0.7,0,1.5,0,2.2,0.1c0.8,0.1,1.5,0.3,2.1,0.8c0.7,0.5,1.1,1.2,1.4,2.2c0.3,1.2,0.2,2.2-0.3,3.2c-0.5,1-1.4,1.8-2.5,2.3l0.7,2.6
			L175,215.5z"></path>
</g>
<g>
<path fill="#1690CF" d="M207.5,191.5c0.1,0.9,0.1,1.8,0,2.6l5.2,1.1l-0.7,3.1l-12.3-2.7l0.7-3.1l3.1,0.7c0-0.8-0.1-1.7-0.2-2.7
			l-2-0.4l0.5-2.3l1.1,0.2c-0.1-1-0.1-1.9,0.1-2.8c0.3-1.5,1.2-2.6,2.5-3.4c1.3-0.7,2.9-0.9,4.8-0.5c1.4,0.3,2.5,0.9,3.3,1.7
			c0.8,0.8,1.1,1.7,0.8,2.8c-0.1,0.7-0.5,1.1-1.1,1.3c-0.6,0.2-1.2,0.2-1.8,0.1l-0.8-0.2l0.1-0.5c0.1-0.6,0.1-1-0.1-1.5
			c-0.2-0.4-0.6-0.7-1.2-0.8c-0.6-0.1-1.2,0-1.6,0.3c-0.4,0.3-0.7,0.9-0.9,1.5c-0.2,0.8-0.2,1.7,0,2.8l3.3,0.7
			c0.5,0.1,0.7,0.3,0.7,0.6c0,0.3-0.1,1-0.3,1.9L207.5,191.5z"></path>
</g>
<circle fill="none" stroke="#1690CF" stroke-width="3" stroke-linecap="round" stroke-linejoin="round" stroke-miterlimit="10" cx="173.5" cy="206.8" r="23.4"></circle>
</g>
<g id="корзина_цвет">
<path fill="#FFFFFF" d="M110.8,220.3h117.8c1.5,0,2.7-1,3.1-2.4l2.1-8.5c0.5-2-1-3.9-3.1-3.9H108.4c-2.1,0-3.6,2-3,4l2.4,8.5
		C108.2,219.3,109.4,220.3,110.8,220.3z"></path>
<path fill="#AFD4E2" d="M110.8,220.3h117.8c1.5,0,2.7-1,3.1-2.4l2.1-8.5c0.5-2-1-3.9-3.1-3.9H108.4c-2.1,0-3.6,2-3,4l2.4,8.5
		C108.2,219.3,109.4,220.3,110.8,220.3z"></path>
<path fill="#FFFFFF" d="M212.6,263.7l-85-7.5c-1.9-0.2-3.5-1.5-4-3.3l-9.1-32.7h110.6L212.6,263.7z"></path>
<path fill="#47B2E5" d="M212.8,263.7l-85-7.5c-1.9-0.2-3.5-1.5-4-3.3l-9.1-32.7h110.6L212.8,263.7z"></path>
<circle fill="#FFFFFF" cx="140.4" cy="303.6" r="14.1"></circle>
<circle fill="#AFD4E2" cx="140.7" cy="303.6" r="14.1"></circle>
<circle fill="#FFFFFF" cx="198.1" cy="303.6" r="14.1"></circle>
<circle fill="#AFD4E2" cx="198.6" cy="303.6" r="14.1"></circle>
<circle fill="#8EBFCE" cx="140.7" cy="303.6" r="9.2"></circle>
<circle fill="#8EBFCE" cx="198.4" cy="303.6" r="9.2"></circle>
<path fill="#47B2E5" d="M258,187.6h-13.6c-1.5,0-2.7-1.2-2.7-2.7v-5.4c0-1.5,1.2-2.7,2.7-2.7H258c1.5,0,2.7,1.2,2.7,2.7v5.4
		C260.7,186.4,259.5,187.6,258,187.6z"></path>
<path fill="none" stroke="#2BA1DB" stroke-width="3" stroke-linecap="round" stroke-linejoin="round" stroke-miterlimit="10" d="
		M256.1,187.9h-9.5c-1.5,0-2.7-1.2-2.7-2.7v-5.4c0-1.5,1.2-2.7,2.7-2.7h9.5"></path>
<path fill="none" stroke="#8EBFCE" stroke-width="3" stroke-linecap="round" stroke-linejoin="round" stroke-miterlimit="10" d="
		M217.7,205.4H111.1c-2.1,0-3.6,2-3,4l2.4,8.5c0.4,1.4,1.6,2.3,3,2.3h104.5"></path>
<path fill="#8EBFCE" stroke="#8EBFCE" stroke-width="3" stroke-linecap="round" stroke-linejoin="round" stroke-miterlimit="10" d="
		M127.7,220.3c-1.4,0-2.7-0.9-3-2.3l-2.4-8.5c-0.6-2,0.9-4,3-4l-8.6,0c-2.1,0-3.6,2-3,4l2.4,8.5c0.4,1.4,1.6,2.3,3,2.3"></path>
<path fill="none" stroke="#2BA1DB" stroke-width="3" stroke-linecap="round" stroke-linejoin="round" stroke-miterlimit="10" d="
		M212.6,263.7l-82.2-7.5c-1.9-0.2-3.5-1.5-4-3.3l-9.1-32.7"></path>
<path fill="none" stroke="#8EBFCE" stroke-width="3" stroke-linecap="round" stroke-linejoin="round" stroke-miterlimit="10" d="
		M142.8,317.3c-7.7,0-13.9-6.2-13.9-13.9c0-7.7,6.2-13.9,13.9-13.9"></path>
<path fill="none" stroke="#8EBFCE" stroke-width="3" stroke-linecap="round" stroke-linejoin="round" stroke-miterlimit="10" d="
		M199.6,317.3c-7.7,0-13.9-6.2-13.9-13.9c0-7.7,6.2-13.9,13.9-13.9"></path>
<path fill="none" stroke="#7AAFBC" stroke-width="3" stroke-linecap="round" stroke-linejoin="round" stroke-miterlimit="10" d="
		M141.2,312.6c-4.3-0.7-7.6-4.5-7.6-9c0-4.5,3.2-8.2,7.5-9"></path>
<path fill="none" stroke="#7AAFBC" stroke-width="3" stroke-linecap="round" stroke-linejoin="round" stroke-miterlimit="10" d="
		M199.4,312.6c-4.3-0.7-7.6-4.5-7.6-9c0-4.5,3.2-8.2,7.5-9"></path>
<path fill="#2BA1DB" stroke="#2BA1DB" stroke-width="3" stroke-linecap="round" stroke-linejoin="round" stroke-miterlimit="10" d="
		M122.9,250.5l2.9,5.1l86.8,8.1l1.2-6.6l-79.7-7.3c-1.9-0.2-3.5-1.5-4-3.3l-7.1-25.3h-7.4L122.9,250.5z"></path>
</g>
<g id="корзина">
<circle fill="none" stroke="#242D3C" stroke-width="3" stroke-linecap="round" stroke-linejoin="round" stroke-miterlimit="10" cx="140.7" cy="303.6" r="14.1"></circle>
<circle fill="none" stroke="#242D3C" stroke-width="3" stroke-linecap="round" stroke-linejoin="round" stroke-miterlimit="10" cx="198.5" cy="303.6" r="14.1"></circle>
<line fill="none" stroke="#242D3C" stroke-width="3" stroke-linecap="round" stroke-linejoin="round" stroke-miterlimit="10" x1="141.5" y1="289.5" x2="144.4" y2="278.6"></line>
<line fill="none" stroke="#242D3C" stroke-width="3" stroke-linecap="round" stroke-linejoin="round" stroke-miterlimit="10" x1="198.5" y1="289.4" x2="195.5" y2="279.3"></line>
<path fill="none" stroke="#242D3C" stroke-width="3" stroke-linecap="round" stroke-linejoin="round" stroke-miterlimit="10" d="
		M225.1,220.3l-15,54.1c-0.6,2.2-2.6,3.7-4.8,3.7h-79"></path>
<path fill="none" stroke="#242D3C" stroke-width="3" stroke-linecap="round" stroke-linejoin="round" stroke-miterlimit="10" d="
		M212.6,263.7l-85-7.5c-1.9-0.2-3.5-1.5-4-3.3l-9.1-32.7"></path>
<line fill="none" stroke="#242D3C" stroke-width="3" stroke-linecap="round" stroke-linejoin="round" stroke-miterlimit="10" x1="157.5" y1="230.6" x2="168.6" y2="230.6"></line>
<line fill="none" stroke="#242D3C" stroke-width="3" stroke-linecap="round" stroke-linejoin="round" stroke-miterlimit="10" x1="175.3" y1="230.6" x2="222.1" y2="230.6"></line>
<line fill="none" stroke="#242D3C" stroke-width="3" stroke-linecap="round" stroke-linejoin="round" stroke-miterlimit="10" x1="170.3" y1="241.5" x2="218.1" y2="241.5"></line>
<line fill="none" stroke="#242D3C" stroke-width="3" stroke-linecap="round" stroke-linejoin="round" stroke-miterlimit="10" x1="196.8" y1="252.4" x2="215.6" y2="252.4"></line>
<path fill="none" stroke="#242D3C" stroke-width="3" stroke-linecap="round" stroke-linejoin="round" stroke-miterlimit="10" d="
		M110.8,220.3h117.8c1.5,0,2.7-1,3.1-2.4l2.1-8.5c0.5-2-1-3.9-3.1-3.9H108.4c-2.1,0-3.6,2-3,4l2.4,8.5
		C108.2,219.3,109.4,220.3,110.8,220.3z"></path>
<line fill="none" stroke="#242D3C" stroke-width="3" stroke-linecap="round" stroke-linejoin="round" stroke-miterlimit="10" x1="229" y1="205.4" x2="233.6" y2="191"></line>
<path fill="none" stroke="#242D3C" stroke-width="3" stroke-linecap="round" stroke-linejoin="round" stroke-miterlimit="10" d="
		M258,187.9h-13.6c-1.5,0-2.7-1.2-2.7-2.7v-5.4c0-1.5,1.2-2.7,2.7-2.7H258c1.5,0,2.7,1.2,2.7,2.7v5.4
		C260.7,186.7,259.5,187.9,258,187.9z"></path>
<path fill="none" stroke="#242D3C" stroke-width="3" stroke-linecap="round" stroke-linejoin="round" stroke-miterlimit="10" d="
		M233.6,191c1.2-3.8,2.6-5.1,7.7-7.6"></path>
<circle fill="none" stroke="#242D3C" stroke-width="3" stroke-linecap="round" stroke-linejoin="round" stroke-miterlimit="10" cx="140.7" cy="303.6" r="9.2"></circle>
<circle fill="none" stroke="#242D3C" stroke-width="3" stroke-linecap="round" stroke-linejoin="round" stroke-miterlimit="10" cx="198.5" cy="303.6" r="9.2"></circle>
</g>
<g id="телефон_цвет">
<path fill="#FFFFFF" d="M268.7,198.5v16.6h16.6l0,0c3.6,1.5,7.5,2.2,11.7,2.2c16.9,0,30.6-13.7,30.6-30.6
		c0-16.9-13.7-30.6-30.6-30.6s-30.6,13.7-30.6,30.6C266.4,191,267.1,194.9,268.7,198.5"></path>
<path fill="none" stroke="#E8E7E8" stroke-width="3" stroke-linecap="round" stroke-linejoin="round" stroke-miterlimit="10" d="
		M295.6,174.1L295.6,174.1c-5.7,0-10.4,4.4-10.4,9.9v9.1"></path>
<path fill="none" stroke="#E8E7E8" stroke-width="3" stroke-linecap="round" stroke-linejoin="round" stroke-miterlimit="10" d="
		M295.6,170.4L295.6,170.4c-1.8,0-3.3,1.8-3.3,4.1"></path>
<path fill="none" stroke="#E8E7E8" stroke-width="3" stroke-linecap="round" stroke-linejoin="round" stroke-miterlimit="10" d="
		M295.6,198.2h-15.1c0-2.8,3.2-5.1,7.2-5.1h7.9"></path>
<path fill="none" stroke="#E8E7E8" stroke-width="3" stroke-linecap="round" stroke-linejoin="round" stroke-miterlimit="10" d="
		M295.6,203.1L295.6,203.1c-3.1,0-5.6-2-5.6-4.5"></path>
<path fill="#FFFFFF" d="M278.6,317.6h-41.8c-3.9,0-7.1-3.2-7.1-7.1v-79.3c0-3.9,3.2-7.1,7.1-7.1h41.8c3.9,0,7.1,3.2,7.1,7.1v79.3
		C285.6,314.4,282.5,317.6,278.6,317.6z"></path>
<rect x="234.8" y="237" fill="#AFD4E2" width="45.2" height="63.7"></rect>
<line fill="none" stroke="#8EBFCE" stroke-width="3" stroke-linecap="round" stroke-linejoin="round" stroke-miterlimit="10" x1="237" y1="237.1" x2="237" y2="299.6"></line>
<polygon fill="#47B2E5" points="286.3,193.4 282.4,196 282.4,198.6 291.6,198.9 292.9,201.9 296.3,203.4 299.7,202.7 303.4,198.4
		311.9,197.8 311.7,195.7 307,191.8 306.8,180.9 303.1,175.4 300.2,172.8 298.2,170.4 294.7,171.2 292.6,175 288.2,178.4
		286.6,183.9 	"></polygon>
<path fill="none" stroke="#E8E7E8" stroke-width="3" stroke-linecap="round" stroke-linejoin="round" stroke-miterlimit="10" d="
		M261.7,317.5l-22.5,0.1c-3.9,0-7.1-3.2-7.1-7.1v-79.3c0-3.9,3.2-7.1,7.1-7.1h24.6"></path>
<path fill="none" stroke="#2BA1DB" stroke-width="3" stroke-linecap="round" stroke-linejoin="round" stroke-miterlimit="10" d="
		M299.6,174.1L299.6,174.1c-5.7,0-10.4,4.4-10.4,9.9v9.1"></path>
<path fill="none" stroke="#2BA1DB" stroke-width="3" stroke-linecap="round" stroke-linejoin="round" stroke-miterlimit="10" d="
		M297.7,171.1c-0.9,0.7-1.4,2-1.4,3.4"></path>
<path fill="none" stroke="#2BA1DB" stroke-width="3" stroke-linecap="round" stroke-linejoin="round" stroke-miterlimit="10" d="
		M299.6,198.2"></path>
<path fill="none" stroke="#2BA1DB" stroke-width="3" stroke-linecap="round" stroke-linejoin="round" stroke-miterlimit="10" d="
		M299.6,198.2h-15.1c0-2.8,3.2-5.1,7.2-5.1h7.9"></path>
<path fill="none" stroke="#2BA1DB" stroke-width="3" stroke-linecap="round" stroke-linejoin="round" stroke-miterlimit="10" d="
		M297.5,202.8c-1.8-0.8-3.5-2.5-3.5-4.2"></path>
<path fill="none" stroke="#8EBFCE" stroke-width="3" stroke-linecap="round" stroke-linejoin="round" stroke-miterlimit="10" d="
		M242.8,300.3v-41.1c0-3.8,3.1-6.9,6.9-6.9h28.9"></path>
<path fill="none" stroke="#E8E7E8" stroke-width="3" stroke-linecap="round" stroke-linejoin="round" stroke-miterlimit="10" d="
		M249.6,317.7c-0.9,0-1.8-0.2-2.6-0.5c-2.5-1-4.3-3.5-4.3-6.4v-9.5"></path>
<line fill="none" stroke="#E8E7E8" stroke-width="3" stroke-linecap="round" stroke-linejoin="round" stroke-miterlimit="10" x1="310.7" y1="198.2" x2="295.6" y2="198.2"></line>
</g>
<g id="телефон">
<path fill="none" stroke="#005F8C" stroke-width="3" stroke-linecap="round" stroke-linejoin="round" stroke-miterlimit="10" d="
		M278.6,317.6h-41.8c-3.9,0-7.1-3.2-7.1-7.1v-79.3c0-3.9,3.2-7.1,7.1-7.1h41.8c3.9,0,7.1,3.2,7.1,7.1v79.3
		C285.7,314.4,282.6,317.6,278.6,317.6z"></path>
<rect x="235" y="237.1" fill="none" stroke="#005F8C" stroke-width="3" stroke-linecap="round" stroke-linejoin="round" stroke-miterlimit="10" width="45.2" height="63.5"></rect>
<line fill="none" stroke="#005F8C" stroke-width="3" stroke-linecap="round" stroke-linejoin="round" stroke-miterlimit="10" x1="249.1" y1="231.1" x2="266.4" y2="231.1"></line>
<circle fill="none" stroke="#005F8C" stroke-width="3" stroke-linecap="round" stroke-linejoin="round" stroke-miterlimit="10" cx="257.6" cy="308.8" r="4.1"></circle>
<path fill="none" stroke="#1690CF" stroke-width="3" stroke-linecap="round" stroke-linejoin="round" stroke-miterlimit="10" d="
		M268.7,198.5v16.6h16.6l0,0c3.6,1.5,7.5,2.2,11.7,2.2c16.9,0,30.6-13.7,30.6-30.6c0-16.9-13.7-30.6-30.6-30.6s-30.6,13.7-30.6,30.6
		C266.4,191,267.1,194.9,268.7,198.5"></path>
<path fill="none" stroke="#1690CF" stroke-width="3" stroke-linecap="round" stroke-linejoin="round" stroke-miterlimit="10" d="
		M307.4,193.1V184c0-5.5-4.6-9.9-10.4-9.9h0c-5.7,0-10.4,4.4-10.4,9.9v9.1"></path>
<path fill="none" stroke="#1690CF" stroke-width="3" stroke-linecap="round" stroke-linejoin="round" stroke-miterlimit="10" d="
		M300.2,174.5c0-2.3-1.5-4.1-3.3-4.1h0c-1.8,0-3.3,1.8-3.3,4.1"></path>
<path fill="none" stroke="#1690CF" stroke-width="3" stroke-linecap="round" stroke-linejoin="round" stroke-miterlimit="10" d="
		M297,198.2h-15.1c0-2.8,3.2-5.1,7.2-5.1h7.9h7.9c4,0,7.2,2.3,7.2,5.1H297"></path>
<path fill="none" stroke="#1690CF" stroke-width="3" stroke-linecap="round" stroke-linejoin="round" stroke-miterlimit="10" d="
		M302.6,198.6c0,2.5-2.5,4.5-5.6,4.5h0c-3.1,0-5.6-2-5.6-4.5"></path>
</g>
<g id="карта_цвет">
<path fill="#FFFFFF" d="M330.2,317.7h-77.9c-3.8,0-6.9-3.1-6.9-6.9v-51.6c0-3.8,3.1-6.9,6.9-6.9h77.9c3.8,0,6.9,3.1,6.9,6.9v51.6
		C337,314.6,334,317.7,330.2,317.7z"></path>
<rect x="245.4" y="265.2" fill="#47B2E5" width="91.6" height="13.5"></rect>
<path fill="#47B2E5" d="M316.6,306.6h-6.8c-5.1,0-9.3-4.2-9.3-9.3l0,0c0-5.1,4.2-9.3,9.3-9.3h6.8c5.1,0,9.3,4.2,9.3,9.3l0,0
		C325.9,302.4,321.7,306.6,316.6,306.6z"></path>
<path fill="none" stroke="#E8E7E8" stroke-width="3" stroke-linecap="round" stroke-linejoin="round" stroke-miterlimit="10" d="
		M248,264.1v-4.9c0-3.8,3.1-6.9,6.9-6.9H309"></path>
<path fill="none" stroke="#E8E7E8" stroke-width="3" stroke-linecap="round" stroke-linejoin="round" stroke-miterlimit="10" d="
		M299.6,317.7h-44.8c-3.8,0-6.9-3.1-6.9-6.9v-31.6"></path>
<line fill="none" stroke="#2BA1DB" stroke-width="3" stroke-linecap="round" stroke-linejoin="round" stroke-miterlimit="10" x1="248" y1="265.2" x2="248" y2="278.7"></line>
<path fill="none" stroke="#2BA1DB" stroke-width="3" stroke-linecap="round" stroke-linejoin="round" stroke-miterlimit="10" d="
		M315.2,306.6h-3c-5.1,0-9.3-4.2-9.3-9.3l0,0c0-5.1,4.2-9.3,9.3-9.3h2"></path>
</g>
<g id="карта">
<path fill="none" stroke="#1690CF" stroke-width="3" stroke-linecap="round" stroke-linejoin="round" stroke-miterlimit="10" d="
		M330.2,317.6h-77.9c-3.8,0-6.9-3.1-6.9-6.9v-51.6c0-3.8,3.1-6.9,6.9-6.9h77.9c3.8,0,6.9,3.1,6.9,6.9v51.6
		C337,314.6,334,317.6,330.2,317.6z"></path>
<rect x="245.4" y="265.2" fill="none" stroke="#1690CF" stroke-width="3" stroke-linecap="round" stroke-linejoin="round" stroke-miterlimit="10" width="91.6" height="13.5"></rect>
<line fill="none" stroke="#1690CF" stroke-width="3" stroke-linecap="round" stroke-linejoin="round" stroke-miterlimit="10" x1="256.4" y1="289.5" x2="292.6" y2="289.5"></line>
<line fill="none" stroke="#1690CF" stroke-width="3" stroke-linecap="round" stroke-linejoin="round" stroke-miterlimit="10" x1="256.4" y1="295.9" x2="288.2" y2="295.9"></line>
<line fill="none" stroke="#1690CF" stroke-width="3" stroke-linecap="round" stroke-linejoin="round" stroke-miterlimit="10" x1="256.4" y1="302.8" x2="263.8" y2="302.8"></line>
<line fill="none" stroke="#1690CF" stroke-width="3" stroke-linecap="round" stroke-linejoin="round" stroke-miterlimit="10" x1="269.6" y1="302.8" x2="283.8" y2="302.8"></line>
<path fill="none" stroke="#1690CF" stroke-width="3" stroke-linecap="round" stroke-linejoin="round" stroke-miterlimit="10" d="
		M316.6,306.6h-6.8c-5.1,0-9.3-4.2-9.3-9.3l0,0c0-5.1,4.2-9.3,9.3-9.3h6.8c5.1,0,9.3,4.2,9.3,9.3l0,0
		C325.9,302.4,321.7,306.6,316.6,306.6z"></path>
</g>
<g id="полоска">
<line fill="none" stroke="#005F8C" stroke-width="3" stroke-linecap="round" stroke-linejoin="round" stroke-miterlimit="10" x1="25" y1="317.5" x2="342.7" y2="317.5"></line>
</g>
</svg>