<svg viewBox="0 0 350 350" id="index-ico1" width="100%" height="100%">
<g id="фон">
<rect fill="#FFFFFF" width="350" height="350"></rect>
</g>
<g id="пятно">
<circle fill="#D6ECFC" cx="151.8" cy="157" r="115.8"></circle>
<circle fill="#D6ECFC" cx="261.3" cy="231.4" r="29.9"></circle>
</g>
<g id="элементы">
<line fill="none" stroke="#47B2E5" stroke-width="3" stroke-linecap="round" stroke-linejoin="round" stroke-miterlimit="10" x1="47" y1="35.5" x2="122.5" y2="35.5"></line>
<line fill="none" stroke="#47B2E5" stroke-width="3" stroke-linecap="round" stroke-linejoin="round" stroke-miterlimit="10" x1="147.1" y1="35.5" x2="167.5" y2="35.5"></line>
<line fill="none" stroke="#47B2E5" stroke-width="3" stroke-linecap="round" stroke-linejoin="round" stroke-miterlimit="10" x1="130.5" y1="31.4" x2="138.8" y2="39.6"></line>
<line fill="none" stroke="#47B2E5" stroke-width="3" stroke-linecap="round" stroke-linejoin="round" stroke-miterlimit="10" x1="130.5" y1="39.6" x2="138.8" y2="31.4"></line>
<line fill="none" stroke="#47B2E5" stroke-width="3" stroke-linecap="round" stroke-linejoin="round" stroke-miterlimit="10" x1="305.1" y1="108.9" x2="313.4" y2="117.1"></line>
<line fill="none" stroke="#47B2E5" stroke-width="3" stroke-linecap="round" stroke-linejoin="round" stroke-miterlimit="10" x1="305.1" y1="117.1" x2="313.4" y2="108.9"></line>
<line fill="none" stroke="#47B2E5" stroke-width="3" stroke-linecap="round" stroke-linejoin="round" stroke-miterlimit="10" x1="227.5" y1="61.3" x2="239.2" y2="61.3"></line>
<line fill="none" stroke="#47B2E5" stroke-width="3" stroke-linecap="round" stroke-linejoin="round" stroke-miterlimit="10" x1="233.3" y1="67.2" x2="233.3" y2="55.5"></line>
<line fill="none" stroke="#47B2E5" stroke-width="3" stroke-linecap="round" stroke-linejoin="round" stroke-miterlimit="10" x1="59.5" y1="128.3" x2="71.2" y2="128.3"></line>
<line fill="none" stroke="#47B2E5" stroke-width="3" stroke-linecap="round" stroke-linejoin="round" stroke-miterlimit="10" x1="65.3" y1="134.2" x2="65.3" y2="122.5"></line>
<line fill="none" stroke="#47B2E5" stroke-width="3" stroke-linecap="round" stroke-linejoin="round" stroke-miterlimit="10" x1="245.7" y1="61.3" x2="276.9" y2="61.3"></line>
<line fill="none" stroke="#47B2E5" stroke-width="3" stroke-linecap="round" stroke-linejoin="round" stroke-miterlimit="10" x1="216.2" y1="61.3" x2="110.3" y2="61.3"></line>
<line fill="none" stroke="#47B2E5" stroke-width="3" stroke-linecap="round" stroke-linejoin="round" stroke-miterlimit="10" x1="14.3" y1="111.4" x2="57.8" y2="111.4"></line>
<line fill="none" stroke="#47B2E5" stroke-width="3" stroke-linecap="round" stroke-linejoin="round" stroke-miterlimit="10" x1="67.3" y1="141.9" x2="87.8" y2="141.9"></line>
<line fill="none" stroke="#47B2E5" stroke-width="3" stroke-linecap="round" stroke-linejoin="round" stroke-miterlimit="10" x1="300" y1="113" x2="261.3" y2="113"></line>
<line fill="none" stroke="#47B2E5" stroke-width="3" stroke-linecap="round" stroke-linejoin="round" stroke-miterlimit="10" x1="319" y1="113" x2="331" y2="113"></line>
<circle fill="none" stroke="#47B2E5" stroke-width="3" stroke-linecap="round" stroke-linejoin="round" stroke-miterlimit="10" cx="58.5" cy="71.5" r="11.5"></circle>
<circle fill="none" stroke="#47B2E5" stroke-width="3" stroke-linecap="round" stroke-linejoin="round" stroke-miterlimit="10" cx="304.9" cy="237.5" r="8"></circle>
<circle fill="none" stroke="#47B2E5" stroke-width="3" stroke-linecap="round" stroke-linejoin="round" stroke-miterlimit="10" cx="307.1" cy="41.2" r="20.1"></circle>
<circle fill="none" stroke="#47B2E5" stroke-width="3" stroke-linecap="round" stroke-linejoin="round" stroke-miterlimit="10" cx="36" cy="161.5" r="6.4"></circle>
<line fill="none" stroke="#47B2E5" stroke-width="3" stroke-linecap="round" stroke-linejoin="round" stroke-miterlimit="10" x1="262.9" y1="255.7" x2="293" y2="255.7"></line>
<line fill="none" stroke="#47B2E5" stroke-width="3" stroke-linecap="round" stroke-linejoin="round" stroke-miterlimit="10" x1="303.1" y1="255.7" x2="311" y2="255.7"></line>
</g>
<g id="телефон_цвет">
<path fill="#FFFFFF" d="M235.6,318h-41.8c-3.9,0-7.1-3.2-7.1-7.1v-79.3c0-3.9,3.2-7.1,7.1-7.1h41.8c3.9,0,7.1,3.2,7.1,7.1v79.3
		C242.7,314.8,239.5,318,235.6,318z"></path>
<rect x="192" y="237.3" fill="#AFD4E2" width="45.2" height="63.7"></rect>
<polyline fill="#E8E7E8" points="192,286.9 237.2,252.2 237.2,240.2 192,274.5 	"></polyline>
<polyline fill="#E8E7E8" points="192.8,295.4 237.9,260.1 235.9,256.6 192,290.4 	"></polyline>
<line fill="none" stroke="#E8E7E8" stroke-width="3" stroke-linecap="round" stroke-linejoin="round" stroke-miterlimit="10" x1="206.9" y1="236.9" x2="211.7" y2="224.8"></line>
<path fill="none" stroke="#8EBFCE" stroke-width="3" stroke-linecap="round" stroke-linejoin="round" stroke-miterlimit="10" d="
		M200,262.4c0.5-6.5,3.2-15.3,6.5-24.4"></path>
<path fill="none" stroke="#8EBFCE" stroke-width="3" stroke-linecap="round" stroke-linejoin="round" stroke-miterlimit="10" d="
		M198.3,262.1c3.7,0,6.7,3,6.7,6.7v23.3c0,3-2,5.5-4.7,6.4"></path>
<path fill="none" stroke="#E8E7E8" stroke-width="3" stroke-linecap="round" stroke-linejoin="round" stroke-miterlimit="10" d="
		M210.5,318c0-7.9-3.5-12.3-5.5-16.3"></path>
<path fill="none" stroke="#8EBFCE" stroke-width="3" stroke-linecap="round" stroke-linejoin="round" stroke-miterlimit="10" d="
		M237.2,299.9H230c-1.5,0-2.8-1.2-2.8-2.8v-3.4c0-1.5,1.2-2.8,2.8-2.8h5.9"></path>
<path fill="none" stroke="#8EBFCE" stroke-width="3" stroke-linecap="round" stroke-linejoin="round" stroke-miterlimit="10" d="
		M235.3,290.9h-3.6c-1.5,0-2.8-1.2-2.8-2.8v-3.4c0-1.5,1.2-2.8,2.8-2.8h5.2"></path>
<path fill="none" stroke="#E8E7E8" stroke-width="3" stroke-linecap="round" stroke-linejoin="round" stroke-miterlimit="10" d="
		M247.7,317.9h-18.5c-1.5,0-2.8-1.2-2.8-2.8v-3.4c0-1.5,1.2-2.8,2.8-2.8h18.5"></path>
<path fill="none" stroke="#E8E7E8" stroke-width="3" stroke-linecap="round" stroke-linejoin="round" stroke-miterlimit="10" d="
		M244.2,308.9h-18.5c-1.5,0-2.8-1.2-2.8-2.8v-3.4c0-0.5,0.1-0.9,0.3-1.3"></path>
<path fill="none" stroke="#8EBFCE" stroke-width="3" stroke-linecap="round" stroke-linejoin="round" stroke-miterlimit="10" d="
		M223.7,300.8c0.5-0.5,1.2-0.8,2-0.8h6.5"></path>
<path fill="none" stroke="#E8E7E8" stroke-width="3" stroke-linecap="round" stroke-linejoin="round" stroke-miterlimit="10" d="
		M242.1,282c-1.5,0-2.8-1.2-2.8-2.8v-3.4c0-1.5,1.2-2.8,2.8-2.8"></path>
</g>
<g id="телефон">
<path fill="none" stroke="#027BB6" stroke-width="3" stroke-linecap="round" stroke-linejoin="round" stroke-miterlimit="10" d="
		M235.6,318h-41.8c-3.9,0-7.1-3.2-7.1-7.1v-79.3c0-3.9,3.2-7.1,7.1-7.1h41.8c3.9,0,7.1,3.2,7.1,7.1v79.3
		C242.7,314.8,239.5,318,235.6,318z"></path>
<rect x="192" y="237.5" fill="none" stroke="#027BB6" stroke-width="3" stroke-linecap="round" stroke-linejoin="round" stroke-miterlimit="10" width="45.2" height="63.5"></rect>
<line fill="none" stroke="#027BB6" stroke-width="3" stroke-linecap="round" stroke-linejoin="round" stroke-miterlimit="10" x1="206" y1="231.5" x2="223.3" y2="231.5"></line>
<circle fill="none" stroke="#027BB6" stroke-width="3" stroke-linecap="round" stroke-linejoin="round" stroke-miterlimit="10" cx="214.6" cy="309.2" r="4.1"></circle>
</g>
<g id="рука_цвет">
<polygon fill="#FFFFFF" points="143.3,199.3 143.8,203.5 147,210.8 152.2,217.8 150.3,224.5 147.9,237.5 150.6,244.9 156.2,255.1
		157.4,261.2 153.4,265 152.3,278.9 152.3,294 154.4,297.3 154.4,299.8 149.1,310.5 147.9,318 208,318.5 207.4,312.8 202,301
		200.8,297.2 202.9,294.2 203.3,287.1 203,266.7 199.9,262.9 197.7,261.2 200.5,248.3 213.1,212.5 216.2,199.3 214.7,194.4
		206.9,189.6 197.7,185.8 196.9,195.4 193.9,197.9 189.4,199.5 184.2,199.1 	"></polygon>
<path fill="#47B2E5" d="M196.7,298.6H159c-3.7,0-6.7-3-6.7-6.7v-23.3c0-3.7,3-6.7,6.7-6.7h37.7c3.7,0,6.7,3,6.7,6.7v23.3
		C203.3,295.6,200.3,298.6,196.7,298.6z"></path>
<polygon fill="#47B2E5" points="149.5,317.9 147.4,316.6 151.4,305.1 156.1,297.9 161.7,298.5 195.2,298.7 200.5,298.5
		206.6,307.9 207.4,317.4 	"></polygon>
<path fill="#2BA1DB" d="M152.3,269.6l1.5-5.6l3.6-2l5.9,0c-3.7,0-6.7,3-6.7,6.7V292c0,3.7,3,6.7,6.7,6.7l-7.5-0.4l-3.2-4.2
		l-0.9-6.4l0.5-18.5"></path>
<path fill="#2BA1DB" d="M150.4,307.2l3.9-7.9l2-1l3,1c-1.8,4-6.4,9.4-6.4,18l-4.5,0.8l-0.4-2.4l2.6-8.2"></path>
<path fill="#E8E7E8" d="M147.8,199.3l-3.4,0.3l-1.1,1.7l1.1,4.4l3.1,5.9l4.3,5.6l0.9-5.2c-2.6-3.5-4.5-7.6-4.5-12.7"></path>
<path fill="#E8E7E8" d="M156.1,253.3l-5.2-8l-2.7-5.9l-0.3-5.7l1.9-7.8l3.1-11.9l0.7-10.8l3.6,2.8c0,15.7-5.6,20.7-5.6,30
		c0,9.9,8.8,12.1,9.6,26h-3.7L156.1,253.3z"></path>
<path fill="none" stroke="#E8E7E8" stroke-width="3" stroke-linecap="round" stroke-linejoin="round" stroke-miterlimit="10" d="
		M210.8,218.6c4.3-14.1-2.5-23.5-12.7-30.2"></path>
<path fill="none" stroke="#E8E7E8" stroke-width="3" stroke-linecap="round" stroke-linejoin="round" stroke-miterlimit="10" d="
		M197.6,192.5v2.2c0,3.8-3.1,6.9-6.9,6.9h-47.2"></path>
<polygon fill="#FFFFFF" points="159.8,205.4 156.4,205.4 155.9,200.8 158.9,199.6 177.5,200.3 177.5,205 	"></polygon>
</g>
<g id="рука">
<path fill="none" stroke="#005F8C" stroke-width="3" stroke-linecap="round" stroke-linejoin="round" stroke-miterlimit="10" d="
		M147.9,236c0-9.3,5.6-14.3,5.6-30"></path>
<path fill="none" stroke="#005F8C" stroke-width="3" stroke-linecap="round" stroke-linejoin="round" stroke-miterlimit="10" d="
		M147.9,236c0,9.9,8.8,12.1,9.6,26"></path>
<path fill="none" stroke="#005F8C" stroke-width="3" stroke-linecap="round" stroke-linejoin="round" stroke-miterlimit="10" d="
		M143.3,199.3c0,7.9,4.5,13.2,9,17.9"></path>
<path fill="none" stroke="#005F8C" stroke-width="3" stroke-linecap="round" stroke-linejoin="round" stroke-miterlimit="10" d="
		M216.2,198.5c0-7-10.5-8.8-18.5-12.7"></path>
<path fill="none" stroke="#005F8C" stroke-width="3" stroke-linecap="round" stroke-linejoin="round" stroke-miterlimit="10" d="
		M197.7,261.6c1.2-17,18.5-50.4,18.5-63.1"></path>
<path fill="none" stroke="#005F8C" stroke-width="3" stroke-linecap="round" stroke-linejoin="round" stroke-miterlimit="10" d="
		M210.4,220.1c4.3-14.1-2.5-22.7-12.7-29.4"></path>
<path fill="none" stroke="#005F8C" stroke-width="3" stroke-linecap="round" stroke-linejoin="round" stroke-miterlimit="10" d="
		M196.7,298.7H159c-3.7,0-6.7-3-6.7-6.7v-23.3c0-3.7,3-6.7,6.7-6.7h37.7c3.7,0,6.7,3,6.7,6.7V292
		C203.3,295.7,200.3,298.7,196.7,298.7z"></path>
<path fill="none" stroke="#005F8C" stroke-width="3" stroke-linecap="round" stroke-linejoin="round" stroke-miterlimit="10" d="
		M147.9,318c0-10.7,7.1-16.3,7.1-20.7"></path>
<path fill="none" stroke="#005F8C" stroke-width="3" stroke-linecap="round" stroke-linejoin="round" stroke-miterlimit="10" d="
		M208,318c0-10.7-7.1-16.3-7.1-20.7"></path>
<circle fill="none" stroke="#005F8C" stroke-width="3" stroke-linecap="round" stroke-linejoin="round" stroke-miterlimit="10" cx="162.4" cy="280.2" r="4.9"></circle>
<circle fill="#005F8C" cx="161.4" cy="279.2" r="0.3"></circle>
<circle fill="#005F8C" cx="163.3" cy="279.2" r="0.3"></circle>
<circle fill="#005F8C" cx="161.4" cy="281.2" r="0.3"></circle>
<circle fill="#005F8C" cx="163.3" cy="281.2" r="0.3"></circle>
<line fill="none" stroke="#242D3C" stroke-width="3" stroke-linecap="round" stroke-linejoin="round" stroke-miterlimit="10" x1="139.2" y1="199.3" x2="147.8" y2="199.3"></line>
<line fill="none" stroke="#242D3C" stroke-width="3" stroke-linecap="round" stroke-linejoin="round" stroke-miterlimit="10" x1="197.5" y1="192.5" x2="197.5" y2="179.8"></line>
</g>
<g id="карта_цвет">
<path fill="#FFFFFF" d="M132.2,192.5v-77.9c0-3.8,3.1-6.9,6.9-6.9h51.6c3.8,0,6.9,3.1,6.9,6.9v77.9c0,3.8-3.1,6.9-6.9,6.9h-51.6
		C135.3,199.3,132.2,196.2,132.2,192.5z"></path>
<path fill="#E8E7E8" d="M139.1,199.3c-3.8,0-6.9-3.1-6.9-6.9v-77.9c0-3.8,3.1-6.9,6.9-6.9"></path>
<rect x="132.2" y="146.8" transform="matrix(-1.836970e-16 1 -1 -1.836970e-16 331.5467 -24.4853)" fill="#47B2E5" width="91.6" height="13.5"></rect>
<rect x="127.8" y="151.2" transform="matrix(-1.836970e-16 1 -1 -1.836970e-16 327.1588 -20.0973)" fill="#2BA1DB" width="91.6" height="4.7"></rect>
<path fill="#47B2E5" d="M143.3,178.9v-6.8c0-5.1,4.2-9.3,9.3-9.3l0,0c5.1,0,9.3,4.2,9.3,9.3v6.8c0,5.1-4.2,9.3-9.3,9.3l0,0
		C147.5,188.2,143.3,184,143.3,178.9z"></path>
<path fill="none" stroke="#2BA1DB" stroke-width="3" stroke-linecap="round" stroke-linejoin="round" stroke-miterlimit="10" d="
		M152,187.7c-3.7-1.2-6.4-4.7-6.4-8.9v-6.8c0-4.2,2.8-7.8,6.7-8.9"></path>
<line fill="none" stroke="#E8E7E8" stroke-width="3" stroke-linecap="round" stroke-linejoin="round" stroke-miterlimit="10" x1="150.8" y1="198.7" x2="150.8" y2="188.4"></line>
<path fill="none" stroke="#2BA1DB" stroke-width="3" stroke-linecap="round" stroke-linejoin="round" stroke-miterlimit="10" d="
		M150.6,181.2c0-6.1,4.4-11.1,10.2-12.1"></path>
<line fill="none" stroke="#2BA1DB" stroke-width="3" stroke-linecap="round" stroke-linejoin="round" stroke-miterlimit="10" x1="150.6" y1="181.2" x2="150.6" y2="187.6"></line>
</g>
<g id="карта">
<path fill="none" stroke="#242D3C" stroke-width="3" stroke-linecap="round" stroke-linejoin="round" stroke-miterlimit="10" d="
		M132.3,192.5v-77.9c0-3.8,3.1-6.9,6.9-6.9h51.6c3.8,0,6.9,3.1,6.9,6.9v77.9c0,3.8-3.1,6.9-6.9,6.9h-51.6
		C135.4,199.3,132.3,196.2,132.3,192.5z"></path>
<rect x="132.2" y="146.8" transform="matrix(-1.836970e-16 1 -1 -1.836970e-16 331.5467 -24.4853)" fill="none" stroke="#242D3C" stroke-width="3" stroke-linecap="round" stroke-linejoin="round" stroke-miterlimit="10" width="91.6" height="13.5"></rect>
<line fill="none" stroke="#242D3C" stroke-width="3" stroke-linecap="round" stroke-linejoin="round" stroke-miterlimit="10" x1="160.4" y1="118.7" x2="160.4" y2="154.9"></line>
<line fill="none" stroke="#242D3C" stroke-width="3" stroke-linecap="round" stroke-linejoin="round" stroke-miterlimit="10" x1="154" y1="118.7" x2="154" y2="150.5"></line>
<line fill="none" stroke="#242D3C" stroke-width="3" stroke-linecap="round" stroke-linejoin="round" stroke-miterlimit="10" x1="147.1" y1="118.7" x2="147.1" y2="126.1"></line>
<line fill="none" stroke="#242D3C" stroke-width="3" stroke-linecap="round" stroke-linejoin="round" stroke-miterlimit="10" x1="147.1" y1="131.9" x2="147.1" y2="146"></line>
<path fill="none" stroke="#242D3C" stroke-width="3" stroke-linecap="round" stroke-linejoin="round" stroke-miterlimit="10" d="
		M143.3,178.9v-6.8c0-5.1,4.2-9.3,9.3-9.3l0,0c5.1,0,9.3,4.2,9.3,9.3v6.8c0,5.1-4.2,9.3-9.3,9.3l0,0
		C147.5,188.2,143.3,184,143.3,178.9z"></path>
</g>
<g id="палец_цвет">
<polygon fill="#FFFFFF" points="153.4,201.2 153.7,178.8 156.9,173.3 161.6,169.7 167.9,169.2 174.1,171.9 177.4,177.4 178,184.2
		178.1,202.4 	"></polygon>
<path fill="#E8E7E8" d="M167.9,169.2l-5.4,0.2l-5.4,3.1l-3.1,5.7l-0.4,12.9l-0.2,14.9h3.7v-24.7c0-6.3,4.7-11.4,10.8-12.2"></path>
</g>
<g id="палец">
<path fill="none" stroke="#005F8C" stroke-width="3" stroke-linecap="round" stroke-linejoin="round" stroke-miterlimit="10" d="
		M153.4,181.3c0-6.8,5.5-12.3,12.3-12.3c6.8,0,12.3,5.5,12.3,12.3"></path>
<line fill="none" stroke="#005F8C" stroke-width="3" stroke-linecap="round" stroke-linejoin="round" stroke-miterlimit="10" x1="153.4" y1="181.3" x2="153.4" y2="206"></line>
<line fill="none" stroke="#E8E7E8" stroke-width="3" stroke-linecap="round" stroke-linejoin="round" stroke-miterlimit="10" x1="180.4" y1="199.3" x2="180.4" y2="204.2"></line>
<path fill="none" stroke="#E8E7E8" stroke-width="3" stroke-linecap="round" stroke-linejoin="round" stroke-miterlimit="10" d="
		M180.4,204.2c0,4.8-0.4,13.2,1.9,16.8"></path>
<path fill="none" stroke="#005F8C" stroke-width="3" stroke-linecap="round" stroke-linejoin="round" stroke-miterlimit="10" d="
		M178,206c0,4.8,2,11.3,4.3,15"></path>
<line fill="none" stroke="#242D3C" stroke-width="3" stroke-linecap="round" stroke-linejoin="round" stroke-miterlimit="10" x1="187.3" y1="199.3" x2="179" y2="199.3"></line>
<line fill="none" stroke="#005F8C" stroke-width="3" stroke-linecap="round" stroke-linejoin="round" stroke-miterlimit="10" x1="178" y1="181.3" x2="178" y2="206"></line>
</g>
<g id="вспышки">
<line fill="none" stroke="#1690CF" stroke-width="3" stroke-linecap="round" stroke-linejoin="round" stroke-miterlimit="10" x1="164.9" y1="91.3" x2="164.9" y2="68"></line>
<line fill="none" stroke="#1690CF" stroke-width="3" stroke-linecap="round" stroke-linejoin="round" stroke-miterlimit="10" x1="99.1" y1="141.9" x2="107.1" y2="141.9"></line>
<line fill="none" stroke="#1690CF" stroke-width="3" stroke-linecap="round" stroke-linejoin="round" stroke-miterlimit="10" x1="222.8" y1="141.9" x2="230.8" y2="141.9"></line>
<path fill="none" stroke="#1690CF" stroke-width="3" stroke-linecap="round" stroke-linejoin="round" stroke-miterlimit="10" d="
		M206,100.4l5.7-5.7L206,100.4z"></path>
<path fill="none" stroke="#1690CF" stroke-width="3" stroke-linecap="round" stroke-linejoin="round" stroke-miterlimit="10" d="
		M118.2,188.3l5.7-5.7L118.2,188.3z"></path>
<path fill="none" stroke="#1690CF" stroke-width="3" stroke-linecap="round" stroke-linejoin="round" stroke-miterlimit="10" d="
		M123.8,100.5l-5.7-5.7L123.8,100.5z"></path>
<path fill="none" stroke="#1690CF" stroke-width="3" stroke-linecap="round" stroke-linejoin="round" stroke-miterlimit="10" d="
		M96.6,113.2l22.7,9.4L96.6,113.2z"></path>
<path fill="none" stroke="#1690CF" stroke-width="3" stroke-linecap="round" stroke-linejoin="round" stroke-miterlimit="10" d="
		M210.1,160.2l23.2,9.6L210.1,160.2z"></path>
<line fill="none" stroke="#1690CF" stroke-width="3" stroke-linecap="round" stroke-linejoin="round" stroke-miterlimit="10" x1="142.8" y1="88.1" x2="139.8" y2="80.7"></line>
<line fill="none" stroke="#1690CF" stroke-width="3" stroke-linecap="round" stroke-linejoin="round" stroke-miterlimit="10" x1="187.1" y1="88.1" x2="190.1" y2="80.7"></line>
<line fill="none" stroke="#1690CF" stroke-width="3" stroke-linecap="round" stroke-linejoin="round" stroke-miterlimit="10" x1="233.2" y1="113.2" x2="210.6" y2="122.6"></line>
<line fill="none" stroke="#1690CF" stroke-width="3" stroke-linecap="round" stroke-linejoin="round" stroke-miterlimit="10" x1="96.9" y1="169.6" x2="119.2" y2="160.4"></line>
</g>
<g id="сейф_цвет">
<rect x="94.5" y="311.5" fill="#E8E7E8" width="17.1" height="6.5"></rect>
<path fill="#AFD4E2" d="M112.6,311.6H34.9c-12.6,0-22.8-10.2-22.8-22.8v-77.7c0-12.6,10.2-22.8,22.8-22.8h77.7
		c12.6,0,22.8,10.2,22.8,22.8v77.7C135.4,301.4,125.2,311.6,112.6,311.6z"></path>
<path fill="#8EBFCE" d="M34.8,311.5c-12.6,0-22.8-10.2-22.8-22.8V211c0-12.6,10.2-22.8,22.8-22.8"></path>
<polygon fill="#E8E7E8" points="83.5,192.9 83.5,195.2 86.6,197.9 88.7,202.4 89.6,213 89.1,296.5 86.8,302 81.8,305.8 85.6,306.8
		91.8,306.7 97,302.6 100,297.3 100.5,287.9 100,202.4 96.6,196.8 91.8,193.7 	"></polygon>
<polygon fill="#E8E7E8" points="101,198.6 99.4,199.8 101,208.3 107.9,208.6 109.9,212.6 109.9,287.4 107.9,289.9 100.8,290.4
		99.4,300.6 113.4,301.4 119,298.4 123.1,293.3 124.1,286.2 123.3,207.6 118.3,200.8 112.1,198.5 	"></polygon>
<polygon fill="#CCCBC9" points="100,212.2 101,208.3 107.9,208.6 109.5,210.3 110.2,216.2 110.1,288.4 107.6,289.9 101.6,290.4
		100.5,288.6 	"></polygon>
<polygon fill="#AFD4E2" points="21.8,209.7 21.8,213.3 25.6,214.3 26.5,234.5 21.8,238.3 22.2,258.6 25.8,259.8 26.5,267.2
		26.2,280.7 21.8,283.8 22.7,293.3 26.9,299.4 37.6,301.7 74.6,306.7 79.7,306.8 84.5,304 88.2,300.8 89.8,292.7 88.9,202.1
		85.3,196.6 78.8,193.2 30.5,199.6 24.2,204.2 	"></polygon>
<rect x="34.9" y="311.6" fill="#E8E7E8" width="17" height="6.4"></rect>
<rect x="34.8" y="311.6" fill="#CCCBC9" width="11.2" height="6.4"></rect>
<rect x="94.5" y="311.5" fill="#CCCBC9" width="11.2" height="6.4"></rect>
<ellipse fill="#E8E7E8" cx="55.8" cy="249.3" rx="10.7" ry="14.1"></ellipse>
<ellipse fill="#CCCBC9" cx="51.9" cy="249.2" rx="6.8" ry="9"></ellipse>
<ellipse fill="#E8E7E8" cx="49.8" cy="249.2" rx="4.8" ry="6.3"></ellipse>
</g>
<g id="сейф">
<path fill="none" stroke="#027BB6" stroke-width="3" stroke-linecap="round" stroke-linejoin="round" stroke-miterlimit="10" d="
		M112.5,311.5H34.8c-12.6,0-22.8-10.2-22.8-22.8V211c0-12.6,10.2-22.8,22.8-22.8h77.7c12.6,0,22.8,10.2,22.8,22.8v77.7
		C135.2,301.3,125.1,311.5,112.5,311.5z"></path>
<path fill="none" stroke="#027BB6" stroke-width="3" stroke-linecap="round" stroke-linejoin="round" stroke-miterlimit="10" d="
		M111.3,301H34.2c-7,0-12.6-5.6-12.6-12.6v-77.1c0-7,5.6-12.6,12.6-12.6h77.1c7,0,12.6,5.6,12.6,12.6v77.1
		C123.9,295.3,118.2,301,111.3,301z"></path>
<path fill="none" stroke="#4E7AC7" stroke-width="3" stroke-linecap="round" stroke-linejoin="round" stroke-miterlimit="10" d="
		M87.8,193.2"></path>
<path fill="none" stroke="#4E7AC7" stroke-width="3" stroke-linecap="round" stroke-linejoin="round" stroke-miterlimit="10" d="
		M77,193.2"></path>
<path fill="none" stroke="#027BB6" stroke-width="3" stroke-linecap="round" stroke-linejoin="round" stroke-miterlimit="10" d="
		M105.9,290.2h-5.5v-82h5.5c2.3,0,4.2,1.9,4.2,4.2V286C110.1,288.3,108.2,290.2,105.9,290.2z"></path>
<ellipse fill="none" stroke="#027BB6" stroke-width="3" stroke-linecap="round" stroke-linejoin="round" stroke-miterlimit="10" cx="49.8" cy="249.3" rx="4.8" ry="6.3"></ellipse>
<ellipse fill="none" stroke="#027BB6" stroke-width="3" stroke-linecap="round" stroke-linejoin="round" stroke-miterlimit="10" cx="51.9" cy="249.3" rx="6.8" ry="9"></ellipse>
<ellipse fill="none" stroke="#027BB6" stroke-width="3" stroke-linecap="round" stroke-linejoin="round" stroke-miterlimit="10" cx="55.8" cy="249.4" rx="10.7" ry="14.1"></ellipse>
<rect x="34.8" y="311.5" fill="none" stroke="#027BB6" stroke-width="3" stroke-linecap="round" stroke-linejoin="round" stroke-miterlimit="10" width="17.1" height="6.5"></rect>
<rect x="94.5" y="311.5" fill="none" stroke="#027BB6" stroke-width="3" stroke-linecap="round" stroke-linejoin="round" stroke-miterlimit="10" width="17.1" height="6.5"></rect>
<polygon fill="#AFD4E2" points="43.8,201.4 32.9,201.5 36,198.5 77.9,193.2 82.8,194.7 86.7,197.8 89,201.6 89.6,202.6 	"></polygon>
<polygon fill="#E8E7E8" points="99.4,200.8 96,196.2 86.1,196.2 89.6,200.8 	"></polygon>
<polygon fill="#AFD4E2" points="43.2,298.6 32.4,298.4 35.5,301.5 77.4,306.7 82.3,305.3 86.2,302.1 88.5,298.3 89.1,297.3 	"></polygon>
<polygon fill="#E8E7E8" points="98.9,299.1 95.5,303.7 85.6,303.7 89.1,299.1 	"></polygon>
<path fill="none" stroke="#027BB6" stroke-width="3" stroke-linecap="round" stroke-linejoin="round" stroke-miterlimit="10" d="
		M77,306.8h10.9c7,0,12.6-5.6,12.6-12.6v-88.4c0-7-5.6-12.6-12.6-12.6H77"></path>
<polygon fill="#8EBFCE" points="23.3,282.3 22.1,283.8 22.7,292.7 26.3,297.9 31.8,300.7 37.6,301.7 37.6,301.7 37.4,198.1
		37.4,198.1 28.4,200.3 22.1,209.1 22.1,213 25.5,213.7 26.7,221 26.3,235.1 22.1,238.3 21.9,255.5 23.3,258.2 26.7,260 25.8,281.2
			"></polygon>
<path fill="none" stroke="#027BB6" stroke-width="3" stroke-linecap="round" stroke-linejoin="round" stroke-miterlimit="10" d="
		M34.2,301c-7,0-12.6-5.6-12.6-12.6v-77.1c0-7,5.6-12.6,12.6-12.6"></path>
<path fill="none" stroke="#027BB6" stroke-width="3" stroke-linecap="round" stroke-linejoin="round" stroke-miterlimit="10" d="
		M34.2,198.7l42.8-5.5c7,0,12.6,5.6,12.6,12.6v88.4c0,7-5.6,12.6-12.6,12.6L34.2,301"></path>
<path fill="#E8E7E8" d="M23,237h-2.8c-1.9,0-3.4-1.5-3.4-3.4v-17.3c0-1.9,1.5-3.4,3.4-3.4H23c1.9,0,3.4,1.5,3.4,3.4v17.3
		C26.4,235.5,24.8,237,23,237z"></path>
<path fill="none" stroke="#027BB6" stroke-width="3" stroke-linecap="round" stroke-linejoin="round" stroke-miterlimit="10" d="
		M23,237h-2.8c-1.9,0-3.4-1.5-3.4-3.4v-17.3c0-1.9,1.5-3.4,3.4-3.4H23c1.9,0,3.4,1.5,3.4,3.4v17.3C26.4,235.5,24.8,237,23,237z"></path>
<path fill="#E8E7E8" d="M23.2,282.3h-2.8c-1.9,0-3.4-1.5-3.4-3.4v-17.3c0-1.9,1.5-3.4,3.4-3.4h2.8c1.9,0,3.4,1.5,3.4,3.4v17.3
		C26.5,280.8,25,282.3,23.2,282.3z"></path>
<path fill="none" stroke="#027BB6" stroke-width="3" stroke-linecap="round" stroke-linejoin="round" stroke-miterlimit="10" d="
		M23,282.3h-2.8c-1.9,0-3.4-1.5-3.4-3.4v-17.3c0-1.9,1.5-3.4,3.4-3.4H23c1.9,0,3.4,1.5,3.4,3.4v17.3C26.4,280.8,24.8,282.3,23,282.3
		z"></path>
</g>
<g id="монеты_цвет">
<path fill="#FFFFFF" d="M249.6,317.9h-18.5c-1.5,0-2.8-1.2-2.8-2.8v-3.4c0-1.5,1.2-2.8,2.8-2.8h18.5c1.5,0,2.8,1.2,2.8,2.8v3.4
		C252.4,316.7,251.2,317.9,249.6,317.9z"></path>
<path fill="#FFFFFF" d="M246.1,308.9h-18.5c-1.5,0-2.8-1.2-2.8-2.8v-3.4c0-1.5,1.2-2.8,2.8-2.8h18.5c1.5,0,2.8,1.2,2.8,2.8v3.4
		C248.9,307.7,247.7,308.9,246.1,308.9z"></path>
<path fill="#FFFFFF" d="M250.4,299.9H232c-1.5,0-2.8-1.2-2.8-2.8v-3.4c0-1.5,1.2-2.8,2.8-2.8h18.5c1.5,0,2.8,1.2,2.8,2.8v3.4
		C253.2,298.7,252,299.9,250.4,299.9z"></path>
<path fill="#FFFFFF" d="M252.1,290.9h-18.5c-1.5,0-2.8-1.2-2.8-2.8v-3.4c0-1.5,1.2-2.8,2.8-2.8h18.5c1.5,0,2.8,1.2,2.8,2.8v3.4
		C254.9,289.7,253.7,290.9,252.1,290.9z"></path>
<path fill="#FFFFFF" d="M262.5,281.9H244c-1.5,0-2.8-1.2-2.8-2.8v-3.4c0-1.5,1.2-2.8,2.8-2.8h18.5c1.5,0,2.8,1.2,2.8,2.8v3.4
		C265.3,280.7,264,281.9,262.5,281.9z"></path>
<path fill="#FFFFFF" d="M276.2,291.4h-18.5c-1.5,0-2.8-1.2-2.8-2.8v-3.4c0-1.5,1.2-2.8,2.8-2.8h18.5c1.5,0,2.8,1.2,2.8,2.8v3.4
		C279,290.1,277.7,291.4,276.2,291.4z"></path>
<path fill="#FFFFFF" d="M276.2,300.4h-18.5c-1.5,0-2.8-1.2-2.8-2.8v-3.4c0-1.5,1.2-2.8,2.8-2.8h18.5c1.5,0,2.8,1.2,2.8,2.8v3.4
		C279,299.1,277.7,300.4,276.2,300.4z"></path>
<path fill="#FFFFFF" d="M274.5,309.4H256c-1.5,0-2.8-1.2-2.8-2.8v-3.4c0-1.5,1.2-2.8,2.8-2.8h18.5c1.5,0,2.8,1.2,2.8,2.8v3.4
		C277.3,308.1,276.1,309.4,274.5,309.4z"></path>
<path fill="#FFFFFF" d="M274.5,317.9H256c-1.5,0-2.8-1.2-2.8-2.8v-2.4c0-1.5,1.2-2.8,2.8-2.8h18.5c1.5,0,2.8,1.2,2.8,2.8v2.4
		C277.3,316.7,276.1,317.9,274.5,317.9z"></path>
<path fill="none" stroke="#E8E7E8" stroke-width="3" stroke-linecap="round" stroke-linejoin="round" stroke-miterlimit="10" d="
		M246.3,282c-1.5,0-2.8-1.2-2.8-2.8v-3.4c0-1.5,1.2-2.8,2.8-2.8"></path>
<path fill="none" stroke="#E8E7E8" stroke-width="3" stroke-linecap="round" stroke-linejoin="round" stroke-miterlimit="10" d="
		M236.3,291c-1.5,0-2.8-1.2-2.8-2.8v-3.4c0-1.5,1.2-2.8,2.8-2.8"></path>
<path fill="none" stroke="#E8E7E8" stroke-width="3" stroke-linecap="round" stroke-linejoin="round" stroke-miterlimit="10" d="
		M234.5,300c-1.5,0-2.8-1.2-2.8-2.8v-3.4c0-1.5,1.2-2.8,2.8-2.8"></path>
<path fill="none" stroke="#E8E7E8" stroke-width="3" stroke-linecap="round" stroke-linejoin="round" stroke-miterlimit="10" d="
		M229.9,309c-1.5,0-2.8-1.2-2.8-2.8v-3.4c0-1.5,1.2-2.8,2.8-2.8"></path>
<path fill="none" stroke="#E8E7E8" stroke-width="3" stroke-linecap="round" stroke-linejoin="round" stroke-miterlimit="10" d="
		M233.1,318c-1.5,0-2.8-1.2-2.8-2.8v-3.4c0-1.5,1.2-2.8,2.8-2.8"></path>
<path fill="none" stroke="#E8E7E8" stroke-width="3" stroke-linecap="round" stroke-linejoin="round" stroke-miterlimit="10" d="
		M258.4,318c-1.4,0-2.5-1.1-2.5-2.5v-3.1c0-1.4,1.1-2.5,2.5-2.5"></path>
<path fill="none" stroke="#E8E7E8" stroke-width="3" stroke-linecap="round" stroke-linejoin="round" stroke-miterlimit="10" d="
		M258.2,309.4c-1.5,0-2.8-1.2-2.8-2.8v-3.4c0-1.5,1.2-2.8,2.8-2.8"></path>
<path fill="none" stroke="#E8E7E8" stroke-width="3" stroke-linecap="round" stroke-linejoin="round" stroke-miterlimit="10" d="
		M259.6,300.4c-1.5,0-2.8-1.2-2.8-2.8v-3.4c0-1.5,1.2-2.8,2.8-2.8"></path>
<path fill="none" stroke="#E8E7E8" stroke-width="3" stroke-linecap="round" stroke-linejoin="round" stroke-miterlimit="10" d="
		M259.6,291.4c-1.5,0-2.8-1.2-2.8-2.8v-3.4c0-1.5,1.2-2.8,2.8-2.8"></path>
<path fill="none" stroke="#E8E7E8" stroke-width="3" stroke-linecap="round" stroke-linejoin="round" stroke-miterlimit="10" d="
		M276.8,314.1c-4.9-3.7-8-9.5-8-16.1c0-6.1,3-11.5,7.6-15.1"></path>
</g>
<g id="монеты">
<path fill="none" stroke="#1690CF" stroke-width="3" stroke-linecap="round" stroke-linejoin="round" stroke-miterlimit="10" d="
		M249.8,318h-18.5c-1.5,0-2.8-1.2-2.8-2.8v-3.4c0-1.5,1.2-2.8,2.8-2.8h18.5c1.5,0,2.8,1.2,2.8,2.8v3.4
		C252.6,316.7,251.4,318,249.8,318z"></path>
<path fill="none" stroke="#1690CF" stroke-width="3" stroke-linecap="round" stroke-linejoin="round" stroke-miterlimit="10" d="
		M246.3,309h-18.5c-1.5,0-2.8-1.2-2.8-2.8v-3.4c0-1.5,1.2-2.8,2.8-2.8h18.5c1.5,0,2.8,1.2,2.8,2.8v3.4
		C249.1,307.7,247.9,309,246.3,309z"></path>
<path fill="none" stroke="#1690CF" stroke-width="3" stroke-linecap="round" stroke-linejoin="round" stroke-miterlimit="10" d="
		M250.6,300h-18.5c-1.5,0-2.8-1.2-2.8-2.8v-3.4c0-1.5,1.2-2.8,2.8-2.8h18.5c1.5,0,2.8,1.2,2.8,2.8v3.4
		C253.4,298.7,252.2,300,250.6,300z"></path>
<path fill="none" stroke="#1690CF" stroke-width="3" stroke-linecap="round" stroke-linejoin="round" stroke-miterlimit="10" d="
		M252.3,291h-18.5c-1.5,0-2.8-1.2-2.8-2.8v-3.4c0-1.5,1.2-2.8,2.8-2.8h18.5c1.5,0,2.8,1.2,2.8,2.8v3.4
		C255.1,289.7,253.9,291,252.3,291z"></path>
<path fill="none" stroke="#1690CF" stroke-width="3" stroke-linecap="round" stroke-linejoin="round" stroke-miterlimit="10" d="
		M262.7,282h-18.5c-1.5,0-2.8-1.2-2.8-2.8v-3.4c0-1.5,1.2-2.8,2.8-2.8h18.5c1.5,0,2.8,1.2,2.8,2.8v3.4
		C265.5,280.7,264.2,282,262.7,282z"></path>
<path fill="none" stroke="#1690CF" stroke-width="3" stroke-linecap="round" stroke-linejoin="round" stroke-miterlimit="10" d="
		M276.4,291.4h-18.5c-1.5,0-2.8-1.2-2.8-2.8v-3.4c0-1.5,1.2-2.8,2.8-2.8h18.5c1.5,0,2.8,1.2,2.8,2.8v3.4
		C279.2,290.2,277.9,291.4,276.4,291.4z"></path>
<path fill="none" stroke="#1690CF" stroke-width="3" stroke-linecap="round" stroke-linejoin="round" stroke-miterlimit="10" d="
		M276.4,300.4h-18.5c-1.5,0-2.8-1.2-2.8-2.8v-3.4c0-1.5,1.2-2.8,2.8-2.8h18.5c1.5,0,2.8,1.2,2.8,2.8v3.4
		C279.2,299.2,277.9,300.4,276.4,300.4z"></path>
<path fill="none" stroke="#1690CF" stroke-width="3" stroke-linecap="round" stroke-linejoin="round" stroke-miterlimit="10" d="
		M274.7,309.4h-18.5c-1.5,0-2.8-1.2-2.8-2.8v-3.4c0-1.5,1.2-2.8,2.8-2.8h18.5c1.5,0,2.8,1.2,2.8,2.8v3.4
		C277.5,308.2,276.3,309.4,274.7,309.4z"></path>
<path fill="none" stroke="#1690CF" stroke-width="3" stroke-linecap="round" stroke-linejoin="round" stroke-miterlimit="10" d="
		M274.7,318h-18.5c-1.5,0-2.8-1.2-2.8-2.8v-2.4c0-1.5,1.2-2.8,2.8-2.8h18.5c1.5,0,2.8,1.2,2.8,2.8v2.4
		C277.5,316.7,276.3,318,274.7,318z"></path>
<circle fill="#FFFFFF" cx="291.2" cy="297.8" r="20.2"></circle>
<path fill="none" stroke="#E8E7E8" stroke-width="3" stroke-linecap="round" stroke-linejoin="round" stroke-miterlimit="10" d="
		M294.4,318.2c-11.1,0-20.2-9-20.2-20.2c0-11.1,10.1-19.9,21.2-19.9"></path>
<polyline fill="#AFD4E2" points="276,310.5 307.5,286.5 301.6,279.1 271.1,302.3 	"></polyline>
<polyline fill="#AFD4E2" points="281.6,315.5 311.3,292.1 309.3,288.6 277.7,312.6 	"></polyline>
<g>
<g>
<path fill="#1690CF" d="M289.3,304.8c0,0.1,0,0.2-0.1,0.3c0.1,0,0.2,0,0.3,0v3.4h2.9v-3.7c0.1,0,0.1-0.1,0.2-0.1H289.3z"></path>
</g>
<g>
<rect x="289.5" y="287.2" fill="#1690CF" width="2.9" height="4"></rect>
</g>
<g>
<path fill="#1690CF" d="M295.7,305c-1.2,0.9-2.7,1.3-4.6,1.3h-1.2c-1.7,0-2.9-0.4-3.7-1.1c-0.8-0.8-1.1-1.9-1.1-3.6v-9.7
				c0-1,0.2-1.6,0.6-1.8c0.4-0.2,1.5-0.3,3.2-0.3h2.5c1.8,0,3.3,0.3,4.4,1c1.1,0.7,1.7,1.8,1.7,3.2c0,1.9-1,3.2-2.9,4
				c1.9,0.5,2.9,1.7,2.9,3.5C297.5,302.9,296.9,304.1,295.7,305z M290.7,292.7h-1.8v4.2h1.4c1,0,1.8-0.2,2.4-0.6
				c0.6-0.4,0.9-0.9,0.9-1.7C293.6,293.4,292.7,292.7,290.7,292.7z M290.5,299.4h-1.6v2c0,0.6,0.1,1.1,0.3,1.4
				c0.2,0.3,0.6,0.4,1.2,0.4h0.3c0.7,0,1.4-0.2,1.9-0.5c0.6-0.3,0.8-0.8,0.8-1.5C293.6,300,292.6,299.4,290.5,299.4z"></path>
</g>
</g>
<circle fill="none" stroke="#1690CF" stroke-width="3" stroke-linecap="round" stroke-linejoin="round" stroke-miterlimit="10" cx="291.4" cy="297.9" r="20.2"></circle>
</g>
<g id="спитчбабл_цвет">
<path fill="#FFFFFF" d="M238.9,195.4v24.1h19.1h4.9c5.2,2.1,10.9,3.2,16.9,3.2c24.5,0,44.3-19.8,44.3-44.3s-19.8-44.3-44.3-44.3
		s-44.3,19.8-44.3,44.3C235.6,184.6,236.7,190.1,238.9,195.4"></path>
<circle fill="#FFFFFF" cx="279.9" cy="178.8" r="10.4"></circle>
<rect x="250.5" y="161.5" fill="#47B2E5" width="58.9" height="33.8"></rect>
<line fill="none" stroke="#2BA1DB" stroke-width="3" stroke-linecap="round" stroke-linejoin="round" stroke-miterlimit="10" x1="252.5" y1="195.3" x2="252.5" y2="161.5"></line>
</g>
<g id="спичбабл">
<polyline fill="none" stroke="#E8E7E8" stroke-width="3" stroke-linecap="round" stroke-linejoin="round" stroke-miterlimit="10" points="
		307.3,195.8 307.3,197.7 248.5,197.7 248.5,163.8 249.7,163.8 	"></polyline>
<path fill="none" stroke="#005F8C" stroke-width="3" stroke-linecap="round" stroke-linejoin="round" stroke-miterlimit="10" d="
		M238.9,195.4c-2.2-5.3-3.3-10.9-3.3-17c0-24.5,19.8-44.3,44.3-44.3s44.3,19.8,44.3,44.3s-19.8,44.3-44.3,44.3
		c-6,0-11.7-1.1-16.9-3.2"></path>
<polyline fill="none" stroke="#005F8C" stroke-width="3" stroke-linecap="round" stroke-linejoin="round" stroke-miterlimit="10" points="
		238.9,195.4 238.9,219.5 262.9,219.5 	"></polyline>
<rect x="250.4" y="161.5" fill="none" stroke="#005F8C" stroke-width="3" stroke-linecap="round" stroke-linejoin="round" stroke-miterlimit="10" width="58.9" height="33.8"></rect>
<path fill="none" stroke="#005F8C" stroke-width="3" stroke-linecap="round" stroke-linejoin="round" stroke-miterlimit="10" d="
		M256.8,166.9v5.4c3.4,0,6.2,2.8,6.2,6.2c0,3.4-2.8,6.2-6.2,6.2v5.4"></path>
<path fill="none" stroke="#005F8C" stroke-width="3" stroke-linecap="round" stroke-linejoin="round" stroke-miterlimit="10" d="
		M303.1,190v-5.4l0,0c-3.4,0-6.2-2.8-6.2-6.2c0-3.4,2.8-6.2,6.2-6.2l0,0v-5.4"></path>
<circle fill="#FFFFFF" cx="279.8" cy="178.4" r="10.4"></circle>
<path fill="none" stroke="#E8E7E8" stroke-width="3" stroke-linecap="round" stroke-linejoin="round" stroke-miterlimit="10" d="
		M280.9,188.7c-5.6,0-10.2-4.6-10.2-10.2c0-5.6,4.6-10.2,10.2-10.2"></path>
<g>
<path fill="#005F8C" d="M279.2,183.9v-1.3c-1.3-0.1-2-0.6-2-1.5v-0.5c0.6,0.3,1.3,0.4,2.1,0.4c0.8,0,1.2-0.2,1.2-0.7
			c0-0.2-0.1-0.3-0.3-0.4c-0.2-0.1-0.4-0.2-0.7-0.3c-0.3-0.1-0.6-0.2-0.9-0.3c-0.3-0.1-0.6-0.3-0.9-0.4c-0.3-0.2-0.5-0.4-0.7-0.7
			c-0.2-0.3-0.3-0.7-0.3-1.2c0-0.7,0.2-1.3,0.6-1.7c0.4-0.5,1-0.8,1.7-0.9V173h1.5v1.3c0.7,0.1,1.2,0.3,1.6,0.6
			c0.4,0.3,0.6,0.7,0.6,1.2c0,0.3-0.1,0.6-0.3,0.8c-0.2,0.2-0.5,0.3-0.9,0.3h-0.5v-0.3c0-0.3-0.1-0.6-0.3-0.8
			c-0.2-0.2-0.5-0.3-0.8-0.3c-0.3,0-0.5,0.1-0.7,0.3c-0.2,0.2-0.3,0.4-0.3,0.6c0,0.3,0.1,0.6,0.4,0.7c0.3,0.2,0.6,0.3,0.9,0.4
			c0.4,0.1,0.7,0.2,1.1,0.3c0.4,0.1,0.7,0.4,0.9,0.7c0.3,0.3,0.4,0.7,0.4,1.2c0,0.6-0.2,1.1-0.6,1.5c-0.4,0.4-0.9,0.7-1.5,0.8v1.4
			H279.2z"></path>
</g>
<circle fill="none" stroke="#005F8C" stroke-width="3" stroke-linecap="round" stroke-linejoin="round" stroke-miterlimit="10" cx="279.8" cy="178.4" r="10.4"></circle>
</g>
<g id="полоса">
<line fill="none" stroke="#005F8C" stroke-width="3" stroke-linecap="round" stroke-linejoin="round" stroke-miterlimit="10" x1="31.5" y1="318" x2="300.3" y2="318"></line>
<line fill="none" stroke="#005F8C" stroke-width="3" stroke-linecap="round" stroke-linejoin="round" stroke-miterlimit="10" x1="23.7" y1="318" x2="14.3" y2="318"></line>
<line fill="none" stroke="#005F8C" stroke-width="3" stroke-linecap="round" stroke-linejoin="round" stroke-miterlimit="10" x1="309.7" y1="318" x2="329.3" y2="318"></line>
</g>
</svg>