<svg viewBox="0 0 350 350" id="index-ico3" width="100%" height="100%">
<g id="фон">
<rect fill="#FFFFFF" width="350" height="350"></rect>
</g>
<g id="пятно">
<circle fill="#D6ECFC" cx="133.5" cy="188.8" r="115.8"></circle>
<circle fill="#D6ECFC" cx="273.8" cy="183.7" r="59.4"></circle>
<circle fill="#D6ECFC" cx="254.3" cy="73" r="44.4"></circle>
</g>
<g id="элементы">
<line fill="none" stroke="#47B2E5" stroke-width="3" stroke-linecap="round" stroke-linejoin="round" stroke-miterlimit="10" x1="208" y1="36" x2="283.5" y2="36"></line>
<line fill="none" stroke="#47B2E5" stroke-width="3" stroke-linecap="round" stroke-linejoin="round" stroke-miterlimit="10" x1="178.7" y1="45.5" x2="234.3" y2="45.5"></line>
<line fill="none" stroke="#47B2E5" stroke-width="3" stroke-linecap="round" stroke-linejoin="round" stroke-miterlimit="10" x1="308.1" y1="36" x2="328.5" y2="36"></line>
<line fill="none" stroke="#47B2E5" stroke-width="3" stroke-linecap="round" stroke-linejoin="round" stroke-miterlimit="10" x1="291.5" y1="31.9" x2="299.8" y2="40.1"></line>
<line fill="none" stroke="#47B2E5" stroke-width="3" stroke-linecap="round" stroke-linejoin="round" stroke-miterlimit="10" x1="291.5" y1="40.1" x2="299.8" y2="31.9"></line>
<line fill="none" stroke="#47B2E5" stroke-width="3" stroke-linecap="round" stroke-linejoin="round" stroke-miterlimit="10" x1="179.3" y1="163.5" x2="187.6" y2="171.8"></line>
<line fill="none" stroke="#47B2E5" stroke-width="3" stroke-linecap="round" stroke-linejoin="round" stroke-miterlimit="10" x1="179.3" y1="171.8" x2="187.6" y2="163.5"></line>
<line fill="none" stroke="#47B2E5" stroke-width="3" stroke-linecap="round" stroke-linejoin="round" stroke-miterlimit="10" x1="23.3" y1="236" x2="36.6" y2="249.3"></line>
<line fill="none" stroke="#47B2E5" stroke-width="3" stroke-linecap="round" stroke-linejoin="round" stroke-miterlimit="10" x1="23.3" y1="249.3" x2="36.6" y2="236"></line>
<line fill="none" stroke="#47B2E5" stroke-width="3" stroke-linecap="round" stroke-linejoin="round" stroke-miterlimit="10" x1="17.4" y1="105" x2="29.1" y2="105"></line>
<line fill="none" stroke="#47B2E5" stroke-width="3" stroke-linecap="round" stroke-linejoin="round" stroke-miterlimit="10" x1="23.3" y1="110.9" x2="23.3" y2="99.2"></line>
<line fill="none" stroke="#47B2E5" stroke-width="3" stroke-linecap="round" stroke-linejoin="round" stroke-miterlimit="10" x1="149.4" y1="76.2" x2="161" y2="76.2"></line>
<line fill="none" stroke="#47B2E5" stroke-width="3" stroke-linecap="round" stroke-linejoin="round" stroke-miterlimit="10" x1="155.2" y1="82" x2="155.2" y2="70.3"></line>
<line fill="none" stroke="#47B2E5" stroke-width="3" stroke-linecap="round" stroke-linejoin="round" stroke-miterlimit="10" x1="35.6" y1="105" x2="66.8" y2="105"></line>
<circle fill="none" stroke="#47B2E5" stroke-width="3" stroke-linecap="round" stroke-linejoin="round" stroke-miterlimit="10" cx="60.9" cy="45.5" r="20.1"></circle>
<circle fill="none" stroke="#47B2E5" stroke-width="3" stroke-linecap="round" stroke-linejoin="round" stroke-miterlimit="10" cx="318.3" cy="133.9" r="10"></circle>
<circle fill="none" stroke="#47B2E5" stroke-width="3" stroke-linecap="round" stroke-linejoin="round" stroke-miterlimit="10" cx="29.9" cy="150" r="10"></circle>
<line fill="none" stroke="#47B2E5" stroke-width="3" stroke-linecap="round" stroke-linejoin="round" stroke-miterlimit="10" x1="45.3" y1="239.6" x2="72.9" y2="239.6"></line>
</g>
<g id="книги_цвет">
<rect x="240.7" y="180.9" fill="#AFD4E2" width="36.3" height="136.5"></rect>
<rect x="288" y="197.8" transform="matrix(0.9826 -0.1857 0.1857 0.9826 -42.4112 60.4594)" fill="#47B2E5" width="27" height="117.5"></rect>
<polyline fill="none" stroke="#8EBFCE" stroke-width="3" stroke-linecap="round" stroke-linejoin="round" stroke-miterlimit="10" points="
		273.5,317.8 243.3,317.8 243.3,181.3 275.8,181.3 	"></polyline>
<line fill="none" stroke="#8EBFCE" stroke-width="3" stroke-linecap="round" stroke-linejoin="round" stroke-miterlimit="10" x1="242.5" y1="271.8" x2="275" y2="271.8"></line>
<line fill="none" stroke="#8EBFCE" stroke-width="3" stroke-linecap="round" stroke-linejoin="round" stroke-miterlimit="10" x1="242.5" y1="297" x2="275.8" y2="297"></line>
<polyline fill="none" stroke="#2BA1DB" stroke-width="3" stroke-linecap="round" stroke-linejoin="round" stroke-miterlimit="10" points="
		322.9,312.7 301.5,316.8 279.5,201.4 303.7,196.8 	"></polyline>
<line fill="none" stroke="#2BA1DB" stroke-width="3" stroke-linecap="round" stroke-linejoin="round" stroke-miterlimit="10" x1="298.4" y1="309.8" x2="323.6" y2="305"></line>
<line fill="none" stroke="#8EBFCE" stroke-width="3" stroke-linecap="round" stroke-linejoin="round" stroke-miterlimit="10" x1="254.8" y1="208.4" x2="275.8" y2="208.4"></line>
<path fill="none" stroke="#2BA1DB" stroke-width="3" stroke-linecap="round" stroke-linejoin="round" stroke-miterlimit="10" d="
		M278.6,208h5.7c4.3,0,9.5-4.5,9.5-8.8"></path>
<line fill="none" stroke="#8EBFCE" stroke-width="3" stroke-linecap="round" stroke-linejoin="round" stroke-miterlimit="10" x1="257" y1="207.9" x2="257" y2="297.7"></line>
</g>
<g id="книги">
<rect x="240.7" y="181.3" fill="none" stroke="#005F8C" stroke-width="3" stroke-linecap="round" stroke-linejoin="round" stroke-miterlimit="10" width="36.3" height="136.5"></rect>
<rect x="288" y="198.3" transform="matrix(0.9826 -0.1857 0.1857 0.9826 -42.4913 60.467)" fill="none" stroke="#005F8C" stroke-width="3" stroke-linecap="round" stroke-linejoin="round" stroke-miterlimit="10" width="27" height="117.5"></rect>
<g>
<path fill="#FFFFFF" d="M297.4,220.2c1.6,0.6,2.5,1.7,2.8,3.3c0.2,1.3,0,2.4-0.8,3.3c-0.8,0.9-1.9,1.4-3.5,1.7
			c-1.6,0.3-3.1,0.1-4.4-0.6c-1.3-0.7-2.1-1.7-2.4-3.1c-0.2-1.3,0-2.3,0.7-3.1l-1,0.2l-0.6-3l12.3-2.3c0.8-0.1,1.3-0.1,1.5,0.2
			c0.2,0.3,0.4,1.1,0.7,2.5L297.4,220.2z M297.1,224.6c0.4-0.4,0.6-1,0.5-1.6c-0.1-0.7-0.6-1.3-1.3-1.6c-0.7-0.3-1.6-0.4-2.7-0.2
			c-0.6,0.1-1.1,0.4-1.5,0.8c-0.4,0.4-0.5,1-0.4,1.6c0.1,0.8,0.6,1.3,1.3,1.6c0.7,0.3,1.5,0.4,2.4,0.2
			C296,225.3,296.6,225,297.1,224.6z"></path>
<path fill="#FFFFFF" d="M293.1,239.6c-0.9-0.8-1.6-1.9-1.8-3.4c-0.3-1.5-0.1-2.7,0.5-3.8c0.6-1,1.7-1.7,3.2-2l4.5-0.9
			c0.8-0.1,1.3-0.1,1.5,0.2c0.2,0.3,0.4,1.1,0.7,2.5l-5.8,1.1c-1.5,0.3-2.2,1-1.9,2.3c0.2,1.3,1.1,1.8,2.7,1.5l5.7-1.1l0.6,3
			l-6.1,1.1C295.3,240.6,294.1,240.4,293.1,239.6z"></path>
<path fill="#FFFFFF" d="M294.7,249.3c-0.7-0.7-1.2-1.6-1.4-2.8c-0.2-0.8-0.1-1.6,0-2.3c0.2-0.7,0.6-1.1,1.4-1.2l0.7-0.1
			c-0.2,0.9-0.2,1.7-0.1,2.5c0.2,1.1,0.6,1.6,1.2,1.5c0.2,0,0.4-0.2,0.5-0.5c0.1-0.3,0.1-0.6,0.1-0.9c0-0.4,0-0.8,0.1-1.2
			c0.1-0.4,0.2-0.9,0.3-1.2c0.1-0.4,0.4-0.7,0.8-1.1c0.4-0.3,0.9-0.5,1.5-0.7c1.1-0.2,2.1,0.1,2.9,0.8c0.8,0.7,1.4,1.7,1.6,3
			c0.2,1.2,0.2,2.1-0.2,2.9c-0.3,0.8-0.9,1.2-1.6,1.4c-0.9,0.2-1.4-0.3-1.6-1.4l-0.2-0.8l0.4-0.1c0.9-0.2,1.2-0.7,1-1.6
			c-0.1-0.4-0.2-0.7-0.5-0.9c-0.3-0.2-0.5-0.3-0.8-0.2c-0.4,0.1-0.7,0.3-0.8,0.7c-0.2,0.4-0.2,0.8-0.3,1.3c0,0.5-0.1,1-0.2,1.5
			c-0.1,0.5-0.3,0.9-0.7,1.3c-0.4,0.4-0.9,0.7-1.6,0.8C296.3,250.3,295.4,250,294.7,249.3z"></path>
<path fill="#FFFFFF" d="M294.6,252.8l8.9-1.7c0.8-0.1,1.3-0.1,1.5,0.2c0.2,0.3,0.4,1.1,0.7,2.5l-10.6,2L294.6,252.8z M307.6,253.5
			c-0.3-0.2-0.6-0.7-0.7-1.4c-0.1-0.7-0.1-1.2,0.1-1.5c0.2-0.3,0.6-0.6,1.2-0.7c0.6-0.1,1,0,1.4,0.2c0.3,0.2,0.6,0.7,0.7,1.4
			c0.2,1.2-0.2,2-1.4,2.2C308.4,253.8,308,253.7,307.6,253.5z"></path>
<path fill="#FFFFFF" d="M297.6,267.8c-0.2-0.3-0.4-1.1-0.7-2.5l6-1.1c1.4-0.3,2-1,1.8-2.2c-0.1-0.6-0.4-1.1-1-1.5
			c-0.5-0.4-1.2-0.5-2-0.4l-5.4,1l-0.6-3l8.9-1.7c0.8-0.1,1.3-0.1,1.5,0.2c0.2,0.3,0.4,1.1,0.7,2.5l-1.9,0.4
			c1.5,0.7,2.5,1.8,2.8,3.4c0.2,1.1,0.1,2-0.4,2.7c-0.5,0.7-1.3,1.1-2.5,1.4l-5.6,1.1C298.3,268.2,297.8,268.1,297.6,267.8z"></path>
<path fill="#FFFFFF" d="M301.6,279.2c-0.5,0.1-0.9-0.1-1.3-0.4c-0.4-0.4-0.7-0.8-1-1.4c-0.2-0.6-0.4-1.2-0.5-1.8
			c-0.3-1.6-0.1-3,0.8-4.2c0.8-1.2,2.1-1.9,4-2.3c1.5-0.3,2.8,0,4,0.8c1.1,0.8,1.9,2,2.2,3.5c0.3,1.5,0.1,2.8-0.7,3.9
			c-0.7,1-1.9,1.7-3.4,2c-0.9,0.2-1.5-0.3-1.7-1.5l-1-5.1c-1.3,0.7-1.8,1.9-1.5,3.8c0.2,0.9,0.5,1.8,1,2.7L301.6,279.2z
			 M304.6,272.1l0.6,3.3c0.1,0.3,0.3,0.5,0.6,0.4c0.6-0.1,1-0.4,1.3-0.7c0.3-0.4,0.4-0.8,0.3-1.4
			C307.2,272.4,306.3,271.8,304.6,272.1z"></path>
<path fill="#FFFFFF" d="M302,288c-0.7-0.7-1.2-1.6-1.4-2.8c-0.2-0.8-0.1-1.6,0-2.3c0.2-0.7,0.6-1.1,1.4-1.2l0.7-0.1
			c-0.2,0.9-0.2,1.7-0.1,2.5c0.2,1.1,0.6,1.6,1.2,1.5c0.2,0,0.4-0.2,0.5-0.5c0.1-0.3,0.1-0.6,0.1-0.9c0-0.4,0-0.8,0.1-1.2
			c0.1-0.4,0.2-0.8,0.3-1.2c0.1-0.4,0.4-0.7,0.8-1.1c0.4-0.3,0.9-0.5,1.5-0.7c1.1-0.2,2.1,0.1,2.9,0.8c0.8,0.7,1.4,1.7,1.6,3
			c0.2,1.2,0.2,2.1-0.2,2.9c-0.3,0.8-0.9,1.2-1.6,1.4c-0.9,0.2-1.4-0.3-1.6-1.4l-0.2-0.8l0.4-0.1c0.9-0.2,1.2-0.7,1-1.6
			c-0.1-0.4-0.2-0.7-0.5-0.9c-0.3-0.2-0.5-0.3-0.8-0.2c-0.4,0.1-0.7,0.3-0.8,0.7c-0.2,0.4-0.2,0.8-0.3,1.3c0,0.5-0.1,1-0.2,1.5
			c-0.1,0.5-0.3,0.9-0.7,1.3c-0.4,0.4-0.9,0.7-1.6,0.8C303.6,288.9,302.7,288.7,302,288z"></path>
<path fill="#FFFFFF" d="M303.7,297.4c-0.7-0.7-1.2-1.6-1.4-2.8c-0.2-0.8-0.1-1.6,0-2.3c0.2-0.7,0.6-1.1,1.4-1.2l0.7-0.1
			c-0.2,0.9-0.2,1.7-0.1,2.5c0.2,1.1,0.6,1.6,1.2,1.5c0.2,0,0.4-0.2,0.5-0.5c0.1-0.3,0.1-0.6,0.1-0.9c0-0.4,0-0.8,0.1-1.2
			c0.1-0.4,0.2-0.8,0.3-1.2c0.1-0.4,0.4-0.7,0.8-1.1c0.4-0.3,0.9-0.5,1.5-0.7c1.1-0.2,2.1,0.1,2.9,0.8c0.8,0.7,1.4,1.7,1.6,3
			c0.2,1.2,0.2,2.1-0.2,2.9c-0.3,0.8-0.9,1.2-1.6,1.4c-0.9,0.2-1.4-0.3-1.6-1.4l-0.2-0.8l0.4-0.1c0.9-0.2,1.2-0.7,1-1.6
			c-0.1-0.4-0.2-0.7-0.5-0.9c-0.3-0.2-0.5-0.3-0.8-0.2c-0.4,0.1-0.7,0.3-0.8,0.7c-0.2,0.4-0.2,0.8-0.3,1.3c0,0.5-0.1,1-0.2,1.5
			c-0.1,0.5-0.3,0.9-0.7,1.3c-0.4,0.4-0.9,0.7-1.6,0.8C305.4,298.4,304.5,298.1,303.7,297.4z"></path>
</g>
<line fill="none" stroke="#005F8C" stroke-width="3" stroke-linecap="round" stroke-linejoin="round" stroke-miterlimit="10" x1="322.6" y1="303" x2="297.4" y2="307.8"></line>
<line fill="none" stroke="#005F8C" stroke-width="3" stroke-linecap="round" stroke-linejoin="round" stroke-miterlimit="10" x1="277" y1="268.9" x2="240.7" y2="268.9"></line>
<line fill="none" stroke="#005F8C" stroke-width="3" stroke-linecap="round" stroke-linejoin="round" stroke-miterlimit="10" x1="277" y1="294" x2="240.7" y2="294"></line>
</g>
<g id="монеты">
<path fill="#FFFFFF" d="M23.4,317.8h36.2c2.4,0,4.3-1.9,4.3-4.3v-4.8c0-2.4-1.9-4.3-4.3-4.3H23.4c-2.4,0-4.3,1.9-4.3,4.3v4.8
		C19.2,315.9,21.1,317.8,23.4,317.8z"></path>
<path fill="#FFFFFF" d="M22,304.4h36.2c2.4,0,4.3-1.9,4.3-4.3v-4.8c0-2.4-1.9-4.3-4.3-4.3H22c-2.4,0-4.3,1.9-4.3,4.3v4.8
		C17.7,302.5,19.6,304.4,22,304.4z"></path>
<path fill="#FFFFFF" d="M20.5,291.1h36.2c2.4,0,4.3-1.9,4.3-4.3V282c0-2.4-1.9-4.3-4.3-4.3H20.5c-2.4,0-4.3,1.9-4.3,4.3v4.8
		C16.2,289.2,18.2,291.1,20.5,291.1z"></path>
<path fill="#FFFFFF" d="M23.4,277.7h36.2c2.4,0,4.3-1.9,4.3-4.3v-4.8c0-2.4-1.9-4.3-4.3-4.3H23.4c-2.4,0-4.3,1.9-4.3,4.3v4.8
		C19.2,275.8,21.1,277.7,23.4,277.7z"></path>
<path fill="none" stroke="#E8E7E8" stroke-width="3" stroke-linecap="round" stroke-linejoin="round" stroke-miterlimit="10" d="
		M64.3,317.1c-10.1-2.6-17.6-11.7-17.6-22.7c0-10.6,7-19.5,16.7-22.4"></path>
<path fill="none" stroke="#E8E7E8" stroke-width="3" stroke-linecap="round" stroke-linejoin="round" stroke-miterlimit="10" d="
		M46.9,304.4H26.3c-2.4,0-4.3,1.9-4.3,4.3v4.8c0,2.4,1.9,4.3,4.3,4.3h23.2"></path>
<path fill="none" stroke="#E8E7E8" stroke-width="3" stroke-linecap="round" stroke-linejoin="round" stroke-miterlimit="10" d="
		M44.4,291.1H24.9c-2.4,0-4.3,1.9-4.3,4.3v4.8c0,2.4,1.9,4.3,4.3,4.3h21.2"></path>
<path fill="none" stroke="#E8E7E8" stroke-width="3" stroke-linecap="round" stroke-linejoin="round" stroke-miterlimit="10" d="
		M48.5,277.7H23.4c-2.4,0-4.3,1.9-4.3,4.3v4.8c0,2.4,1.9,4.3,4.3,4.3h21.7"></path>
<path fill="none" stroke="#E8E7E8" stroke-width="3" stroke-linecap="round" stroke-linejoin="round" stroke-miterlimit="10" d="
		M51.2,264.3H26.3c-2.4,0-4.3,1.9-4.3,4.3v4.8c0,2.4,1.9,4.3,4.3,4.3h23.2"></path>
<path fill="none" stroke="#005F8C" stroke-width="3" stroke-linecap="round" stroke-linejoin="round" stroke-miterlimit="10" d="
		M23.4,317.8h36.2c2.4,0,4.3-1.9,4.3-4.3v-4.8c0-2.4-1.9-4.3-4.3-4.3H23.4c-2.4,0-4.3,1.9-4.3,4.3v4.8
		C19.2,315.9,21.1,317.8,23.4,317.8z"></path>
<path fill="none" stroke="#005F8C" stroke-width="3" stroke-linecap="round" stroke-linejoin="round" stroke-miterlimit="10" d="
		M22,304.4h36.2c2.4,0,4.3-1.9,4.3-4.3v-4.8c0-2.4-1.9-4.3-4.3-4.3H22c-2.4,0-4.3,1.9-4.3,4.3v4.8C17.7,302.5,19.6,304.4,22,304.4z"></path>
<path fill="none" stroke="#005F8C" stroke-width="3" stroke-linecap="round" stroke-linejoin="round" stroke-miterlimit="10" d="
		M20.5,291.1h36.2c2.4,0,4.3-1.9,4.3-4.3V282c0-2.4-1.9-4.3-4.3-4.3H20.5c-2.4,0-4.3,1.9-4.3,4.3v4.8
		C16.2,289.2,18.2,291.1,20.5,291.1z"></path>
<path fill="none" stroke="#005F8C" stroke-width="3" stroke-linecap="round" stroke-linejoin="round" stroke-miterlimit="10" d="
		M23.4,277.7h36.2c2.4,0,4.3-1.9,4.3-4.3v-4.8c0-2.4-1.9-4.3-4.3-4.3H23.4c-2.4,0-4.3,1.9-4.3,4.3v4.8
		C19.2,275.8,21.1,277.7,23.4,277.7z"></path>
<path fill="none" stroke="#005F8C" stroke-width="3" stroke-linecap="round" stroke-linejoin="round" stroke-miterlimit="10" d="
		M23.4,317.8h36.2c2.4,0,4.3-1.9,4.3-4.3v-4.8c0-2.4-1.9-4.3-4.3-4.3H23.4c-2.4,0-4.3,1.9-4.3,4.3v4.8
		C19.2,315.9,21.1,317.8,23.4,317.8z"></path>
<path fill="none" stroke="#005F8C" stroke-width="3" stroke-linecap="round" stroke-linejoin="round" stroke-miterlimit="10" d="
		M22,304.4h36.2c2.4,0,4.3-1.9,4.3-4.3v-4.8c0-2.4-1.9-4.3-4.3-4.3H22c-2.4,0-4.3,1.9-4.3,4.3v4.8C17.7,302.5,19.6,304.4,22,304.4z"></path>
<path fill="none" stroke="#005F8C" stroke-width="3" stroke-linecap="round" stroke-linejoin="round" stroke-miterlimit="10" d="
		M20.5,291.1h36.2c2.4,0,4.3-1.9,4.3-4.3V282c0-2.4-1.9-4.3-4.3-4.3H20.5c-2.4,0-4.3,1.9-4.3,4.3v4.8
		C16.2,289.2,18.2,291.1,20.5,291.1z"></path>
<path fill="none" stroke="#005F8C" stroke-width="3" stroke-linecap="round" stroke-linejoin="round" stroke-miterlimit="10" d="
		M23.4,277.7h36.2c2.4,0,4.3-1.9,4.3-4.3v-4.8c0-2.4-1.9-4.3-4.3-4.3H23.4c-2.4,0-4.3,1.9-4.3,4.3v4.8
		C19.2,275.8,21.1,277.7,23.4,277.7z"></path>
<circle fill="none" stroke="#005F8C" stroke-width="3" stroke-linecap="round" stroke-linejoin="round" stroke-miterlimit="10" cx="72.9" cy="294.4" r="23.4"></circle>
<circle fill="#FFFFFF" cx="72.9" cy="294.4" r="23.4"></circle>
<path fill="none" stroke="#E8E7E8" stroke-width="3" stroke-linecap="round" stroke-linejoin="round" stroke-miterlimit="10" d="
		M82.6,315c-1.8-1.8-3-4.3-3-7.1v-8.3h10.1"></path>
<line fill="none" stroke="#E8E7E8" stroke-width="3" stroke-linecap="round" stroke-linejoin="round" stroke-miterlimit="10" x1="93" y1="283.3" x2="93" y2="298.9"></line>
<path fill="none" stroke="#E8E7E8" stroke-width="3" stroke-linecap="round" stroke-linejoin="round" stroke-miterlimit="10" d="
		M69.8,317.1c-10.1-2.6-17.6-11.7-17.6-22.7c0-10.6,7-19.5,16.7-22.4"></path>
<polyline fill="#AFD4E2" points="61.1,315.2 95.6,288 93.3,283.9 56.5,311.8 	"></polyline>
<polyline fill="#AFD4E2" points="54.5,309.3 91.2,281.5 84.3,272.9 48.9,299.8 	"></polyline>
<circle fill="none" stroke="#005F8C" stroke-width="3" stroke-linecap="round" stroke-linejoin="round" stroke-miterlimit="10" cx="72.9" cy="294.4" r="23.4"></circle>
<g>
<path fill="#005F8C" d="M71.1,308.7v-3.4c-3.5-0.2-5.3-1.5-5.3-3.9V300c1.7,0.8,3.5,1.2,5.5,1.2c2.2,0,3.3-0.6,3.3-1.8
			c0-0.4-0.2-0.8-0.7-1.1c-0.5-0.3-1.1-0.5-1.8-0.7c-0.7-0.2-1.5-0.4-2.3-0.7c-0.8-0.3-1.6-0.7-2.3-1.1c-0.7-0.4-1.3-1.1-1.8-2
			c-0.5-0.9-0.7-1.9-0.7-3.1c0-1.8,0.5-3.3,1.6-4.5c1.1-1.2,2.6-2,4.5-2.4v-3.6h3.8v3.4c1.8,0.2,3.2,0.7,4.3,1.6
			c1.1,0.8,1.6,1.9,1.6,3.1c0,0.9-0.3,1.6-0.9,2.1c-0.6,0.5-1.4,0.8-2.4,0.8h-1.3v-0.7c0-0.8-0.3-1.5-0.8-2
			c-0.5-0.5-1.2-0.8-2.1-0.8c-0.8,0-1.4,0.2-1.9,0.7c-0.5,0.4-0.7,1-0.7,1.6c0,0.8,0.3,1.5,1,1.9c0.7,0.5,1.5,0.9,2.4,1.1
			c0.9,0.3,1.9,0.6,2.9,0.9c1,0.3,1.8,0.9,2.5,1.8c0.7,0.8,1,1.9,1,3.3c0,1.6-0.5,2.9-1.5,4c-1,1.1-2.4,1.8-4,2.1v3.7H71.1z"></path>
</g>
</g>
<g id="ноут_цвет">
<path fill="#FFFFFF" d="M191.8,299.5h76.4v8.3c0,5.5-4.5,10-10,10H91.7c-5.5,0-10-4.5-10-10v-8.3h76.4"></path>
<path fill="#E8E7E8" d="M247.1,187.6H102.8c-4.2,0-7.6,3.4-7.6,7.6v104.2h159.6V195.2C254.8,191,251.4,187.6,247.1,187.6z"></path>
<rect x="106.1" y="198.6" fill="#47B2E5" width="137.7" height="94.7"></rect>
<path fill="#E8E7E8" d="M191.9,299.5h76.4v8.3c0,5.5-4.5,10-10,10H91.8c-5.5,0-10-4.5-10-10v-8.3h76.4"></path>
<path fill="#CCCBC9" d="M188.9,311.1h-27.7c-1.7,0-3-1.3-3-3v-8.6h33.7v8.6C191.9,309.7,190.5,311.1,188.9,311.1z"></path>
<path fill="none" stroke="#CCCBC9" stroke-width="3" stroke-linecap="round" stroke-linejoin="round" stroke-miterlimit="10" d="
		M189,187.6h-83.4c-4.2,0-7.6,3.4-7.6,7.6v104.2h127.2"></path>
<path fill="none" stroke="#CCCBC9" stroke-width="3" stroke-linecap="round" stroke-linejoin="round" stroke-miterlimit="10" d="
		M94.5,317.8c-5.5,0-10-4.5-10-10v-8.3h76.4"></path>
<path fill="none" stroke="#B2B2B2" stroke-width="3" stroke-linecap="round" stroke-linejoin="round" stroke-miterlimit="10" d="
		M183.9,311.1h-19.9c-1.7,0-3-1.3-3-3v-8.6h20.2"></path>
<line fill="none" stroke="#2BA1DB" stroke-width="3" stroke-linecap="round" stroke-linejoin="round" stroke-miterlimit="10" x1="108.5" y1="198.6" x2="108.5" y2="293.3"></line>
<path fill="none" stroke="#2BA1DB" stroke-width="3" stroke-linecap="round" stroke-linejoin="round" stroke-miterlimit="10" d="
		M139.8,200v19.9c0,5.9-4.8,12.7-10.6,12.7l-3.4-0.1l0,11.5c0,2.4-4.1,2.4-5.3,1.3"></path>
<line fill="none" stroke="#CCCBC9" stroke-width="3" stroke-linecap="round" stroke-linejoin="round" stroke-miterlimit="10" x1="139.8" y1="197.8" x2="139.8" y2="188.3"></line>
<path fill="none" stroke="#2BA1DB" stroke-width="3" stroke-linecap="round" stroke-linejoin="round" stroke-miterlimit="10" d="
		M221.9,199.3v1c0,4.3,3.5,7.8,7.8,7.8h2.5l0,9.9c0,1.2,1.4,1.8,2.3,1c0,0,5.5-5.3,8.8-8.5"></path>
<line fill="none" stroke="#CCCBC9" stroke-width="3" stroke-linecap="round" stroke-linejoin="round" stroke-miterlimit="10" x1="221.9" y1="198.2" x2="221.9" y2="187.6"></line>
<line fill="none" stroke="#CCCBC9" stroke-width="3" stroke-linecap="round" stroke-linejoin="round" stroke-miterlimit="10" x1="245.8" y1="208.4" x2="254.8" y2="208.4"></line>
<path fill="none" stroke="#8EBFCE" stroke-width="3" stroke-linecap="round" stroke-linejoin="round" stroke-miterlimit="10" d="
		M251.4,299.5l18.9,0v8.3c0,5.5-4.5,10-10,10h-7.2"></path>
<line fill="none" stroke="#CCCBC9" stroke-width="3" stroke-linecap="round" stroke-linejoin="round" stroke-miterlimit="10" x1="95.6" y1="232.9" x2="105.3" y2="232.9"></line>
</g>
<g id="ноут">
<path fill="none" stroke="#242D3C" stroke-width="3" stroke-linecap="round" stroke-linejoin="round" stroke-miterlimit="10" d="
		M191.9,299.5h76.4v8.3c0,5.5-4.5,10-10,10H91.7c-5.5,0-10-4.5-10-10v-8.3h76.4"></path>
<path fill="none" stroke="#CCCBC9" stroke-width="3" stroke-linecap="round" stroke-linejoin="round" stroke-miterlimit="10" d="
		M194.6,299.5"></path>
<path fill="none" stroke="#242D3C" stroke-width="3" stroke-linecap="round" stroke-linejoin="round" stroke-miterlimit="10" d="
		M247.2,187.6H102.8c-4.2,0-7.6,3.4-7.6,7.6v104.2h159.6V195.2C254.8,191,251.4,187.6,247.2,187.6z"></path>
<rect x="106.1" y="198.6" fill="none" stroke="#242D3C" stroke-width="3" stroke-linecap="round" stroke-linejoin="round" stroke-miterlimit="10" width="137.7" height="94.7"></rect>
<path fill="none" stroke="#242D3C" stroke-width="3" stroke-linecap="round" stroke-linejoin="round" stroke-miterlimit="10" d="
		M188.9,311.1h-27.7c-1.7,0-3-1.3-3-3v-8.6h33.7v8.6C191.9,309.7,190.5,311.1,188.9,311.1z"></path>
<line fill="none" stroke="#242D3C" stroke-width="3" stroke-linecap="round" stroke-linejoin="round" stroke-miterlimit="10" x1="161" y1="193.2" x2="189" y2="193.2"></line>
<path fill="none" stroke="#FFFFFF" stroke-width="3" stroke-linecap="round" stroke-linejoin="round" stroke-miterlimit="10" d="
		M202.5,249.1c-1.6,13.8-13.3,24.5-27.6,24.5c-14.2,0-26-10.7-27.6-24.5"></path>
<path fill="none" stroke="#FFFFFF" stroke-width="3" stroke-linecap="round" stroke-linejoin="round" stroke-miterlimit="10" d="
		M147.5,242.2c1.8-13.6,13.4-24.1,27.5-24.1c14.1,0,25.7,10.5,27.5,24.1"></path>
<polyline fill="none" stroke="#FFFFFF" stroke-width="3" stroke-linecap="round" stroke-linejoin="round" stroke-miterlimit="10" points="
		153.2,239.2 147.2,242.6 143.8,236.7 	"></polyline>
<polyline fill="none" stroke="#FFFFFF" stroke-width="3" stroke-linecap="round" stroke-linejoin="round" stroke-miterlimit="10" points="
		196.6,252.5 202.5,249.1 206,255.1 	"></polyline>
</g>
<g id="баблспич_цвет">
<path fill="none" stroke="#B5D3E5" stroke-width="3" stroke-linecap="round" stroke-linejoin="round" stroke-miterlimit="10" d="
		M196,149.2l0,13.5c0,1.6,2,2.5,3.1,1.3l15.3-14.8h52.4c5.9,0,10.6-4.8,10.6-10.6V94.2c0-5.9-4.8-10.6-10.6-10.6h-74.3
		c-5.9,0-10.6,4.8-10.6,10.6v44.3c0,5.9,4.8,10.6,10.6,10.6H196z"></path>
<path fill="none" stroke="#B5D3E5" stroke-width="3" stroke-linecap="round" stroke-linejoin="round" stroke-miterlimit="10" d="
		M156.7,151.3l0,12c0,1.5-1.8,2.2-2.8,1.2l-13.7-13.2H93.5c-5.2,0-9.5-4.3-9.5-9.5v-39.6c0-5.2,4.3-9.5,9.5-9.5h66.3
		c5.2,0,9.5,4.3,9.5,9.5v39.6c0,5.2-4.3,9.5-9.5,9.5H156.7z"></path>
<path fill="#FFFFFF" d="M197.7,147.7l0,13.5c0,1.6,2,2.5,3.1,1.3l15.3-14.8h52.4c5.9,0,10.6-4.8,10.6-10.6V92.7
		c0-5.9-4.8-10.6-10.6-10.6h-74.3c-5.9,0-10.6,4.8-10.6,10.6V137c0,5.9,4.8,10.6,10.6,10.6H197.7z"></path>
<path fill="#FFFFFF" d="M234.2,206l0,9.9c0,1.2,1.4,1.8,2.3,1l11.3-10.9h38.5c4.3,0,7.8-3.5,7.8-7.8v-32.5c0-4.3-3.5-7.8-7.8-7.8
		h-54.5c-4.3,0-7.8,3.5-7.8,7.8v32.5c0,4.3,3.5,7.8,7.8,7.8H234.2z"></path>
<path fill="#FFFFFF" d="M123.7,230.6l0,13.5c0,1.6-2,2.5-3.1,1.3l-15.3-14.8H52.8c-5.9,0-10.6-4.8-10.6-10.6v-44.3
		c0-5.9,4.8-10.6,10.6-10.6h74.3c5.9,0,10.6,4.8,10.6,10.6v44.3c0,5.9-4.8,10.6-10.6,10.6H123.7z"></path>
<path fill="#FFFFFF" d="M154.7,149.3l0,12c0,1.5-1.8,2.2-2.8,1.2l-13.7-13.2H91.5c-5.2,0-9.5-4.3-9.5-9.5v-39.6
		c0-5.2,4.3-9.5,9.5-9.5h66.3c5.2,0,9.5,4.3,9.5,9.5v39.6c0,5.2-4.3,9.5-9.5,9.5H154.7z"></path>
</g>
<g id="баблспич">
<g>
<path fill="#E8E7E8" d="M121,126.2c1.2,2.3,3.2,3.4,6.2,3.4c2.3,0,4.4-0.5,6.4-1.4v1.8c0,1.5-0.8,2.7-2.5,3.5
			c-1.7,0.8-3.7,1.2-6.2,1.2c-2.7,0-5-0.7-6.9-2.2c-1.9-1.4-3.3-3.5-4.1-6.3h-3.2v-3.7h2.5c-0.1-0.7-0.1-1.4-0.1-2.2h-2.4v-3.7h2.6
			c0.7-3.2,2.2-5.6,4.5-7.3c2.3-1.7,5-2.5,7.9-2.5c2.5,0,4.6,0.5,6.4,1.5c1.7,1,2.6,2.4,2.6,4.2c0,2.2-1.2,3.3-3.7,3.3h-1.3v-0.9
			c0-0.9-0.3-1.7-1-2.2c-0.7-0.5-1.6-0.8-2.7-0.8c-1.4,0-2.6,0.4-3.6,1.1c-1.1,0.8-1.8,1.9-2.2,3.6h8.2v3.7h-8.6
			c0,0.8,0,1.6,0.1,2.2h8.4v3.7H121z"></path>
</g>
<g>
<path fill="#E8E7E8" d="M257.7,186.1c0.5,1.5,0.8,3,1,4.3h9v5.4h-21.4v-5.4h5.3c-0.3-1.3-0.7-2.7-1.3-4.3h-3.4v-4h1.9
			c-0.5-1.7-0.8-3.2-0.8-4.7c0-2.6,1-4.8,2.9-6.5c1.9-1.7,4.6-2.5,7.8-2.5c2.4,0,4.5,0.5,6.1,1.6c1.6,1,2.4,2.5,2.4,4.4
			c0,1.2-0.4,2-1.3,2.6c-0.8,0.5-1.9,0.8-3,0.8h-1.4v-0.9c0-1-0.3-1.8-0.8-2.4c-0.5-0.6-1.2-0.9-2.2-0.9c-1.1,0-2,0.4-2.6,1.1
			c-0.6,0.7-0.9,1.7-0.9,2.9c0,1.4,0.3,2.9,1,4.6h5.7c0.8,0,1.3,0.3,1.4,0.8c0.2,0.5,0.3,1.6,0.3,3.2H257.7z"></path>
</g>
<g>
<path fill="#E8E7E8" d="M226.2,133.6v-4.3c-4.5-0.3-6.8-1.9-6.8-5v-1.8c2.2,1,4.5,1.5,7,1.5c2.8,0,4.1-0.8,4.1-2.3
			c0-0.5-0.3-1-0.9-1.4c-0.6-0.4-1.3-0.7-2.2-0.9c-0.9-0.2-1.9-0.5-2.9-0.9c-1.1-0.4-2-0.9-2.9-1.5c-0.9-0.5-1.6-1.4-2.2-2.5
			c-0.6-1.1-0.9-2.4-0.9-4c0-2.3,0.7-4.2,2.1-5.7c1.4-1.5,3.3-2.5,5.7-3v-4.6h4.9v4.4c2.3,0.3,4.1,0.9,5.4,2c1.4,1.1,2,2.4,2,4
			c0,1.1-0.4,2-1.1,2.7c-0.8,0.6-1.8,1-3.1,1h-1.6v-0.8c0-1.1-0.3-1.9-1-2.6c-0.7-0.7-1.6-1-2.7-1c-1,0-1.8,0.3-2.4,0.8
			c-0.6,0.6-0.9,1.3-0.9,2.1c0,1,0.4,1.9,1.3,2.5c0.9,0.6,1.9,1.1,3.1,1.4c1.2,0.3,2.4,0.7,3.7,1.2c1.2,0.4,2.3,1.2,3.1,2.3
			c0.9,1.1,1.3,2.5,1.3,4.2c0,2-0.7,3.7-2,5.1c-1.3,1.4-3,2.3-5.1,2.7v4.7H226.2z"></path>
</g>
<g>
<g>
<path fill="#E8E7E8" d="M84.5,210.1c0,0.2-0.1,0.3-0.1,0.5c0.2,0,0.3,0,0.5,0.1v5.8h4.9v-6.3c0.1,0,0.2-0.1,0.3-0.1H84.5z"></path>
</g>
<g>
<rect x="84.8" y="180.1" fill="#E8E7E8" width="4.9" height="6.8"></rect>
</g>
<g>
<path fill="#E8E7E8" d="M95.3,210.4c-2.1,1.5-4.7,2.2-7.8,2.2h-2c-2.9,0-5-0.6-6.2-1.9c-1.3-1.3-1.9-3.3-1.9-6.1V188
				c0-1.7,0.3-2.7,1-3c0.7-0.3,2.5-0.5,5.4-0.5h4.2c3.1,0,5.6,0.6,7.6,1.7c1.9,1.2,2.9,3,2.9,5.5c0,3.3-1.7,5.5-5,6.8
				c3.3,0.9,4.9,2.9,4.9,5.9C98.4,207,97.4,208.9,95.3,210.4z M86.8,189.5h-3v7.2h2.4c1.7,0,3.1-0.3,4.1-1c1-0.6,1.5-1.6,1.5-2.8
				C91.8,190.7,90.2,189.5,86.8,189.5z M86.5,201h-2.7v3.4c0,1.1,0.2,1.8,0.6,2.3c0.4,0.5,1.1,0.7,2.1,0.7h0.5
				c1.3,0,2.3-0.3,3.3-0.9c0.9-0.6,1.4-1.4,1.4-2.6C91.8,202,90,201,86.5,201z"></path>
</g>
</g>
<path fill="none" stroke="#1690CF" stroke-width="3" stroke-linecap="round" stroke-linejoin="round" stroke-miterlimit="10" d="
		M197.5,147.7l0,13.5c0,1.6,2,2.5,3.1,1.3l15.3-14.8h52.4c5.9,0,10.6-4.8,10.6-10.6V92.7c0-5.9-4.8-10.6-10.6-10.6h-74.3
		c-5.9,0-10.6,4.8-10.6,10.6V137c0,5.9,4.8,10.6,10.6,10.6H197.5z"></path>
<path fill="none" stroke="#1690CF" stroke-width="3" stroke-linecap="round" stroke-linejoin="round" stroke-miterlimit="10" d="
		M234,206l0,9.9c0,1.2,1.4,1.8,2.3,1c0,0,11.3-10.9,11.3-10.9H286c4.3,0,7.8-3.5,7.8-7.8v-32.5c0-4.3-3.5-7.8-7.8-7.8h-54.5
		c-4.3,0-7.8,3.5-7.8,7.8v32.5c0,4.3,3.5,7.8,7.8,7.8H234z"></path>
<path fill="none" stroke="#1690CF" stroke-width="3" stroke-linecap="round" stroke-linejoin="round" stroke-miterlimit="10" d="
		M123.4,230.6l0,13.5c0,1.6-2,2.5-3.1,1.3L105,230.6H52.6c-5.9,0-10.6-4.8-10.6-10.6v-44.3c0-5.9,4.8-10.6,10.6-10.6h74.3
		c5.9,0,10.6,4.8,10.6,10.6v44.3c0,5.9-4.8,10.6-10.6,10.6H123.4z"></path>
<path fill="none" stroke="#1690CF" stroke-width="3" stroke-linecap="round" stroke-linejoin="round" stroke-miterlimit="10" d="
		M154.5,149.3l0,12c0,1.5-1.8,2.2-2.8,1.2L138,149.3H91.2c-5.2,0-9.5-4.3-9.5-9.5v-39.6c0-5.2,4.3-9.5,9.5-9.5h66.3
		c5.2,0,9.5,4.3,9.5,9.5v39.6c0,5.2-4.3,9.5-9.5,9.5H154.5z"></path>
<g>
<path fill="#1690CF" d="M122.8,125.4c1.2,2.3,3.2,3.4,6.2,3.4c2.3,0,4.4-0.5,6.4-1.4v1.8c0,1.5-0.8,2.7-2.5,3.5
			c-1.7,0.8-3.7,1.2-6.2,1.2c-2.7,0-5-0.7-6.9-2.2c-1.9-1.4-3.3-3.5-4.1-6.3h-3.2v-3.7h2.5c-0.1-0.7-0.1-1.4-0.1-2.2h-2.4v-3.7h2.6
			c0.7-3.2,2.2-5.6,4.5-7.3c2.3-1.7,5-2.5,7.9-2.5c2.5,0,4.6,0.5,6.4,1.5c1.7,1,2.6,2.4,2.6,4.2c0,2.2-1.2,3.3-3.7,3.3h-1.3v-0.9
			c0-0.9-0.3-1.7-1-2.2c-0.7-0.5-1.6-0.8-2.7-0.8c-1.4,0-2.6,0.4-3.6,1.1c-1.1,0.8-1.8,1.9-2.2,3.6h8.2v3.7h-8.6
			c0,0.8,0,1.6,0.1,2.2h8.4v3.7H122.8z"></path>
</g>
<g>
<path fill="#1690CF" d="M259.4,185.3c0.5,1.5,0.8,3,1,4.3h9v5.4h-21.4v-5.4h5.3c-0.3-1.3-0.7-2.7-1.3-4.3h-3.4v-4h1.9
			c-0.5-1.7-0.8-3.2-0.8-4.7c0-2.6,1-4.8,2.9-6.5c1.9-1.7,4.6-2.5,7.8-2.5c2.4,0,4.5,0.5,6.1,1.6c1.6,1,2.4,2.5,2.4,4.4
			c0,1.2-0.4,2-1.3,2.6c-0.8,0.5-1.9,0.8-3,0.8h-1.4v-0.9c0-1-0.3-1.8-0.8-2.4c-0.5-0.6-1.2-0.9-2.2-0.9c-1.1,0-2,0.4-2.6,1.1
			c-0.6,0.7-0.9,1.7-0.9,2.9c0,1.4,0.3,2.9,1,4.6h5.7c0.8,0,1.3,0.3,1.4,0.8c0.2,0.5,0.3,1.6,0.3,3.2H259.4z"></path>
</g>
<g>
<path fill="#1690CF" d="M228,132.9v-4.3c-4.5-0.3-6.8-1.9-6.8-5v-1.8c2.2,1,4.5,1.5,7,1.5c2.8,0,4.1-0.8,4.1-2.3
			c0-0.5-0.3-1-0.9-1.4c-0.6-0.4-1.3-0.7-2.2-0.9c-0.9-0.2-1.9-0.5-2.9-0.9c-1.1-0.4-2-0.9-2.9-1.5c-0.9-0.5-1.6-1.4-2.2-2.5
			c-0.6-1.1-0.9-2.4-0.9-4c0-2.3,0.7-4.2,2.1-5.7c1.4-1.5,3.3-2.5,5.7-3v-4.6h4.9v4.4c2.3,0.3,4.1,0.9,5.4,2c1.4,1.1,2,2.4,2,4
			c0,1.1-0.4,2-1.1,2.7c-0.8,0.6-1.8,1-3.1,1h-1.6v-0.8c0-1.1-0.3-1.9-1-2.6c-0.7-0.7-1.6-1-2.7-1c-1,0-1.8,0.3-2.4,0.8
			c-0.6,0.6-0.9,1.3-0.9,2.1c0,1,0.4,1.9,1.3,2.5c0.9,0.6,1.9,1.1,3.1,1.4c1.2,0.3,2.4,0.7,3.7,1.2c1.2,0.4,2.3,1.2,3.1,2.3
			c0.9,1.1,1.3,2.5,1.3,4.2c0,2-0.7,3.7-2,5.1c-1.3,1.4-3,2.3-5.1,2.7v4.7H228z"></path>
</g>
<g>
<g>
<path fill="#1690CF" d="M86.2,209.4c0,0.2-0.1,0.3-0.1,0.5c0.2,0,0.3,0,0.5,0.1v5.8h4.9v-6.3c0.1,0,0.2-0.1,0.3-0.1H86.2z"></path>
</g>
<g>
<rect x="86.6" y="179.4" fill="#1690CF" width="4.9" height="6.8"></rect>
</g>
<g>
<path fill="#1690CF" d="M97.1,209.7c-2.1,1.5-4.7,2.2-7.8,2.2h-2c-2.9,0-5-0.6-6.2-1.9c-1.3-1.3-1.9-3.3-1.9-6.1v-16.6
				c0-1.7,0.3-2.7,1-3c0.7-0.3,2.5-0.5,5.4-0.5h4.2c3.1,0,5.6,0.6,7.6,1.7c1.9,1.2,2.9,3,2.9,5.5c0,3.3-1.7,5.5-5,6.8
				c3.3,0.9,4.9,2.9,4.9,5.9C100.2,206.2,99.2,208.2,97.1,209.7z M88.6,188.8h-3v7.2H88c1.7,0,3.1-0.3,4.1-1c1-0.6,1.5-1.6,1.5-2.8
				C93.6,189.9,91.9,188.8,88.6,188.8z M88.2,200.3h-2.7v3.4c0,1.1,0.2,1.8,0.6,2.3c0.4,0.5,1.1,0.7,2.1,0.7h0.5
				c1.3,0,2.3-0.3,3.3-0.9c0.9-0.6,1.4-1.4,1.4-2.6C93.5,201.3,91.8,200.3,88.2,200.3z"></path>
</g>
</g>
</g>
<g id="полоска">
<line fill="none" stroke="#005F8C" stroke-width="3" stroke-linecap="round" stroke-linejoin="round" stroke-miterlimit="10" x1="11" y1="317.8" x2="328.5" y2="317.8"></line>
</g>
</svg>