<svg version="1.1" id="Layer_1" xmlns="http://www.w3.org/2000/svg" xmlns:xlink="http://www.w3.org/1999/xlink" x="0px" y="0px" viewBox="0 0 512 512" style="enable-background:new 0 0 512 512;" xml:space="preserve"><style type="text/css">.st0{clip-path:url(#SVGID_2_);fill:#E7E6E7;}.st1{clip-path:url(#SVGID_4_);fill:#FFFFFF;}.st2{clip-path:url(#SVGID_6_);}.st3{fill:#242D3C;}.st4{clip-path:url(#SVGID_6_);fill:#242D3C;}.st5{clip-path:url(#SVGID_12_);fill:#242D3C;}.st6{clip-path:url(#SVGID_14_);fill:#242D3C;}.st7{clip-path:url(#SVGID_16_);fill:#242D3C;}.st8{clip-path:url(#SVGID_18_);fill:#242D3C;}.st9{clip-path:url(#SVGID_20_);fill:#242D3C;}.st10{clip-path:url(#SVGID_22_);fill:#242D3C;}.st11{clip-path:url(#SVGID_24_);fill:#242D3C;}.st12{clip-path:url(#SVGID_26_);fill:#229BD7;}.st13{clip-path:url(#SVGID_28_);fill:#242D3C;}.st14{clip-path:url(#SVGID_30_);fill:#E7E6E7;}.st15{clip-path:url(#SVGID_32_);fill:#242D3C;}.st16{clip-path:url(#SVGID_34_);fill:#242D3C;}.st17{clip-path:url(#SVGID_36_);fill:#242D3C;}.st18{clip-path:url(#SVGID_38_);fill:#229BD7;}.st19{clip-path:url(#SVGID_40_);fill:#FFFFFF;}.st20{clip-path:url(#SVGID_42_);fill:#FFFFFF;}.st21{clip-path:url(#SVGID_44_);fill:#FFFFFF;}.st22{clip-path:url(#SVGID_46_);fill:#FFFFFF;}.st23{clip-path:url(#SVGID_48_);fill:#47B1E4;}.st24{clip-path:url(#SVGID_54_);fill:#242D3C;}.st25{clip-path:url(#SVGID_56_);fill:#47B1E4;}.st26{clip-path:url(#SVGID_58_);fill:#47B1E4;}.st27{clip-path:url(#SVGID_60_);fill:#47B1E4;}.st28{clip-path:url(#SVGID_62_);fill:#47B1E4;}.st29{clip-path:url(#SVGID_64_);fill:#242D3C;}.st30{clip-path:url(#SVGID_66_);fill:#242D3C;}.st31{clip-path:url(#SVGID_68_);fill:#242D3C;}.st32{clip-path:url(#SVGID_70_);fill:#242D3C;}.st33{clip-path:url(#SVGID_72_);fill:#242D3C;}.st34{clip-path:url(#SVGID_74_);fill:#242D3C;}.st35{clip-path:url(#SVGID_76_);fill:#242D3C;}.st36{clip-path:url(#SVGID_78_);fill:#242D3C;}.st37{clip-path:url(#SVGID_80_);fill:#242D3C;}.st38{clip-path:url(#SVGID_82_);fill:#242D3C;}.st39{clip-path:url(#SVGID_84_);fill:#242D3C;}.st40{clip-path:url(#SVGID_86_);fill:#242D3C;}.st41{clip-path:url(#SVGID_88_);fill:#242D3C;}.st42{clip-path:url(#SVGID_90_);fill:#47B1E4;}.st43{clip-path:url(#SVGID_92_);fill:#242D3C;}.st44{clip-path:url(#SVGID_94_);fill:#47B1E4;}.st45{clip-path:url(#SVGID_96_);fill:#242D3C;}.st46{clip-path:url(#SVGID_98_);fill:#47B1E4;}.st47{clip-path:url(#SVGID_100_);fill:#242D3C;}.st48{clip-path:url(#SVGID_102_);fill:#242D3C;}.st49{clip-path:url(#SVGID_104_);fill:#242D3C;}.st50{clip-path:url(#SVGID_106_);fill:#242D3C;}.st51{clip-path:url(#SVGID_108_);fill:#242D3C;}.st52{clip-path:url(#SVGID_110_);fill:#242D3C;}.st53{clip-path:url(#SVGID_112_);fill:#242D3C;}.st54{clip-path:url(#SVGID_114_);fill:#242D3C;}.st55{clip-path:url(#SVGID_116_);fill:#242D3C;}.st56{clip-path:url(#SVGID_118_);fill:#242D3C;}.st57{clip-path:url(#SVGID_120_);fill:#242D3C;}.st58{clip-path:url(#SVGID_122_);fill:#242D3C;}.st59{clip-path:url(#SVGID_124_);fill:#242D3C;}.st60{clip-path:url(#SVGID_126_);fill:#242D3C;}.st61{clip-path:url(#SVGID_128_);fill:#242D3C;}.st62{clip-path:url(#SVGID_130_);fill:#242D3C;}.st63{clip-path:url(#SVGID_132_);fill:#242D3C;}.st64{clip-path:url(#SVGID_134_);fill:#242D3C;}.st65{clip-path:url(#SVGID_136_);fill:#242D3C;}.st66{clip-path:url(#SVGID_138_);fill:#242D3C;}.st67{clip-path:url(#SVGID_140_);fill:#242D3C;}.st68{clip-path:url(#SVGID_142_);fill:#242D3C;}.st69{clip-path:url(#SVGID_144_);fill:#242D3C;}.st70{clip-path:url(#SVGID_146_);fill:#242D3C;}.st71{clip-path:url(#SVGID_148_);fill:#242D3C;}.st72{clip-path:url(#SVGID_150_);fill:#242D3C;}.st73{clip-path:url(#SVGID_152_);fill:#242D3C;}.st74{clip-path:url(#SVGID_154_);fill:#242D3C;}.st75{clip-path:url(#SVGID_156_);fill:#242D3C;}.st76{clip-path:url(#SVGID_158_);fill:#242D3C;}.st77{clip-path:url(#SVGID_160_);fill:#242D3C;}.st78{clip-path:url(#SVGID_162_);fill:#242D3C;}.st79{clip-path:url(#SVGID_164_);fill:#E7E6E7;}.st80{clip-path:url(#SVGID_166_);fill:#E7E6E7;}.st81{clip-path:url(#SVGID_168_);fill:#E7E6E7;}</style><g><defs><rect id="SVGID_1_" width="512" height="512"/></defs><clipPath id="SVGID_2_"><use xlink:href="#SVGID_1_"  style="overflow:visible;"/></clipPath><path class="st0" d="M307.6,258.2h-72c-11.6,16.3-27,37.8-47.3,66.2c-13,18.2-21.7,39.9-21.7,64c0,57.9,46.9,105,105,105c57.9,0,105-47,105-105c0-24.2-8.8-45.8-21.8-64C334.6,296,319.2,274.5,307.6,258.2z"/></g><g><defs><rect id="SVGID_3_" width="512" height="512"/></defs><clipPath id="SVGID_4_"><use xlink:href="#SVGID_3_"  style="overflow:visible;"/></clipPath><path class="st1" d="M215.9,388.4c0,30.8,25,55.8,55.8,55.8c30.8,0,55.8-25,55.8-55.8s-25-55.8-55.8-55.8C240.8,332.6,215.9,357.6,215.9,388.4z"/></g><g><defs><rect id="SVGID_5_" width="512" height="512"/></defs><clipPath id="SVGID_6_"><use xlink:href="#SVGID_5_"  style="overflow:visible;"/></clipPath><g class="st2"><path class="st3" d="M257,404.1v-31.8h20.3c6.1,0,9.2,3.9,9.2,8.1c0,4-2.5,6.7-5.5,7.3c3.4,0.5,6.1,3.8,6.1,7.8c0,4.8-3.2,8.6-9.2,8.6H257z M279.5,381.6c0-2-1.4-3.5-3.7-3.5h-12v6.9h12C278,385,279.5,383.6,279.5,381.6z M280.1,394.5c0-2-1.4-3.7-4.1-3.7h-12.3v7.4H276C278.6,398.2,280.1,396.8,280.1,394.5z"/></g><rect x="263.7" y="367.8" class="st4" width="5.3" height="4.5"/><rect x="273.1" y="367.8" class="st4" width="5.3" height="4.5"/><rect x="263.7" y="404.1" class="st4" width="5.3" height="4.5"/><rect x="273.1" y="404.1" class="st4" width="5.3" height="4.5"/></g><g><defs><rect id="SVGID_7_" width="512" height="512"/></defs><clipPath id="SVGID_8_"><use xlink:href="#SVGID_7_"  style="overflow:visible;"/></clipPath></g><g><defs><rect id="SVGID_9_" width="512" height="512"/></defs><clipPath id="SVGID_10_"><use xlink:href="#SVGID_9_"  style="overflow:visible;"/></clipPath></g><g><defs><rect id="SVGID_11_" width="512" height="512"/></defs><clipPath id="SVGID_12_"><use xlink:href="#SVGID_11_"  style="overflow:visible;"/></clipPath><rect x="240.9" y="385.8" class="st5" width="6" height="5.3"/></g><g><defs><rect id="SVGID_13_" width="512" height="512"/></defs><clipPath id="SVGID_14_"><use xlink:href="#SVGID_13_"  style="overflow:visible;"/></clipPath><rect x="296.4" y="385.8" class="st6" width="6" height="5.3"/></g><g><defs><rect id="SVGID_15_" width="512" height="512"/></defs><clipPath id="SVGID_16_"><use xlink:href="#SVGID_15_"  style="overflow:visible;"/></clipPath><path class="st7" d="M251.9,302.3l-3.8-3.7c18.1-18.1,14.1-38.9,13.9-39.8l5.2-1.1C267.4,258.6,272.1,282.1,251.9,302.3z"/></g><g><defs><rect id="SVGID_17_" width="512" height="512"/></defs><clipPath id="SVGID_18_"><use xlink:href="#SVGID_17_"  style="overflow:visible;"/></clipPath><path class="st8" d="M309.8,318.4h-5.3c0-13.2-6.3-19.3-13.7-26.5c-7.7-7.5-16.4-16-16.4-33.7h5.3c0,15.5,7.2,22.5,14.8,29.9C302,295.4,309.8,302.9,309.8,318.4z"/></g><g><defs><rect id="SVGID_19_" width="512" height="512"/></defs><clipPath id="SVGID_20_"><use xlink:href="#SVGID_19_"  style="overflow:visible;"/></clipPath><path class="st9" d="M320.9,205.9h-26.8v-5.3h26.8c3,0,5.8-1.2,7.8-3.2c2.1-2.1,3.3-4.9,3.3-7.8c0-3-1.2-5.8-3.3-7.9c-2.1-2.1-4.9-3.2-7.8-3.2h-26.8v-5.3h26.8c4.4,0,8.5,1.7,11.6,4.8c3.1,3.1,4.8,7.2,4.8,11.6c0,4.3-1.8,8.5-4.8,11.6C329.5,204.2,325.3,205.9,320.9,205.9z"/></g><g><defs><rect id="SVGID_21_" width="512" height="512"/></defs><clipPath id="SVGID_22_"><use xlink:href="#SVGID_21_"  style="overflow:visible;"/></clipPath><path class="st10" d="M313,233.4h-18.9v-5.3H313c3,0,5.7-1.2,7.9-3.3c2.1-2.1,3.2-4.9,3.2-7.8c0-2.9-1.2-5.7-3.3-7.8c-2.1-2.1-4.9-3.2-7.8-3.2h-18.9v-5.3H313c4.4,0,8.5,1.7,11.6,4.8c3.1,3.1,4.8,7.2,4.8,11.6c0,4.4-1.7,8.5-4.8,11.6C321.5,231.7,317.4,233.4,313,233.4z"/></g><g><defs><rect id="SVGID_23_" width="512" height="512"/></defs><clipPath id="SVGID_24_"><use xlink:href="#SVGID_23_"  style="overflow:visible;"/></clipPath><path class="st11" d="M305.1,260.8h-80.5c-2.8,0-5.3-0.3-7.8-0.9c-2.5-0.6-5-1.5-7.3-2.7l-12.6-6.3h-17.6v-5.3h18.9l13.8,6.9c1.9,1,4,1.7,6.2,2.2c2.1,0.5,4.2,0.8,6.5,0.8h80.5c3,0,5.7-1.2,7.8-3.2c2.1-2.1,3.2-4.9,3.2-7.9c0-2.9-1.2-5.8-3.2-7.8c-2.1-2.1-4.9-3.3-7.8-3.3h-11v-5.3h11c4.4,0,8.5,1.7,11.6,4.8c3,3,4.8,7.2,4.8,11.5c0,4.4-1.7,8.5-4.8,11.6C313.6,259.1,309.4,260.8,305.1,260.8z"/></g><g><defs><rect id="SVGID_25_" width="512" height="512"/></defs><clipPath id="SVGID_26_"><use xlink:href="#SVGID_25_"  style="overflow:visible;"/></clipPath><rect x="89.1" y="148.3" class="st12" width="66.4" height="109.9"/></g><g><defs><rect id="SVGID_27_" width="512" height="512"/></defs><clipPath id="SVGID_28_"><use xlink:href="#SVGID_27_"  style="overflow:visible;"/></clipPath><path class="st13" d="M191,150.9h-11.8v-5.3h9.6l17.6-17.6c3.1-3.1,6.8-5.6,10.9-7.3c4.1-1.7,8.4-2.6,12.9-2.6h9.8v5.3h-9.8c-3.8,0-7.4,0.7-10.9,2.1c-3.5,1.4-6.6,3.5-9.2,6.1L191,150.9z"/></g><g><defs><rect id="SVGID_29_" width="512" height="512"/></defs><clipPath id="SVGID_30_"><use xlink:href="#SVGID_29_"  style="overflow:visible;"/></clipPath><path class="st14" d="M336.8,81.7c-6.9-6.9-18-6.9-24.9,0c-3.2,3.2-4.9,7.3-5.1,11.6c-0.5-9.3-8.1-16.7-17.6-16.7c-9.4,0-17.1,7.4-17.6,16.8c-0.4-9.3-8.1-16.8-17.6-16.8c-9.4,0-17.1,7.4-17.6,16.7c-0.2-4.2-1.9-8.3-5.1-11.6c-6.9-6.9-18-6.9-24.9,0c-6.9,6.9-6.9,18,0,24.9h0c12,16.8,21.8,30.5,29.8,41.7H307c15.3-21.4,29.8-41.7,29.8-41.7C343.7,99.7,343.7,88.6,336.8,81.7z"/></g><g><defs><rect id="SVGID_31_" width="512" height="512"/></defs><clipPath id="SVGID_32_"><use xlink:href="#SVGID_31_"  style="overflow:visible;"/></clipPath><path class="st15" d="M313,178.4h-18.9v-5.3H313c3,0,5.8-1.2,7.8-3.2c2.1-2.1,3.3-4.9,3.3-7.8c0-3-1.2-5.8-3.2-7.8c-2.1-2.1-4.9-3.3-7.9-3.3h-73.4c-4.4,0-8.5-1.7-11.6-4.8l3.8-3.8c2.1,2.1,4.9,3.2,7.8,3.2H313c4.4,0,8.5,1.7,11.6,4.8c3.1,3.1,4.8,7.2,4.8,11.6c0,4.4-1.7,8.5-4.8,11.6C321.5,176.7,317.4,178.4,313,178.4z"/></g><g><defs><rect id="SVGID_33_" width="512" height="512"/></defs><clipPath id="SVGID_34_"><use xlink:href="#SVGID_33_"  style="overflow:visible;"/></clipPath><polygon class="st16" points="181.8,260.8 89.1,260.8 89.1,255.5 176.5,255.5 176.5,150.9 89.1,150.9 89.1,145.6 181.8,145.6 "/></g><g><defs><rect id="SVGID_35_" width="512" height="512"/></defs><clipPath id="SVGID_36_"><use xlink:href="#SVGID_35_"  style="overflow:visible;"/></clipPath><rect x="164.7" y="245.6" class="st17" width="5.3" height="5.3"/></g><g><defs><rect id="SVGID_37_" width="512" height="512"/></defs><clipPath id="SVGID_38_"><use xlink:href="#SVGID_37_"  style="overflow:visible;"/></clipPath><circle class="st18" cx="419.9" cy="258.2" r="53.8"/></g><g><defs><rect id="SVGID_39_" x="0" y="0" width="512" height="512"/></defs><clipPath id="SVGID_40_"><use xlink:href="#SVGID_39_"  style="overflow:visible;"/></clipPath><rect x="388.2" y="255.5" transform="matrix(0.7071 -0.7071 0.7071 0.7071 -59.575 372.546)" class="st19" width="63.4" height="5.3"/></g><g><defs><rect id="SVGID_41_" width="512" height="512"/></defs><clipPath id="SVGID_42_"><use xlink:href="#SVGID_41_"  style="overflow:visible;"/></clipPath><path class="st20" d="M433.9,266.4c-3.2,0-5.8,2.6-5.8,5.8c0,3.2,2.6,5.8,5.8,5.8c3.2,0,5.8-2.6,5.8-5.8C439.7,269,437.1,266.4,433.9,266.4z M433.9,283.3c-6.1,0-11.1-5-11.1-11.1c0-6.1,5-11.1,11.1-11.1c6.1,0,11.1,5,11.1,11.1C445,278.3,440,283.3,433.9,283.3z"/></g><g><defs><rect id="SVGID_43_" width="512" height="512"/></defs><clipPath id="SVGID_44_"><use xlink:href="#SVGID_43_"  style="overflow:visible;"/></clipPath><path class="st21" d="M406,238.4c-3.2,0-5.8,2.6-5.8,5.8c0,3.2,2.6,5.8,5.8,5.8c3.2,0,5.8-2.6,5.8-5.8C411.8,241,409.1,238.4,406,238.4z M406,255.3c-6.1,0-11.1-5-11.1-11.1c0-6.1,5-11.1,11.1-11.1c6.1,0,11.1,5,11.1,11.1C417.1,250.4,412.1,255.3,406,255.3z"/></g><g><defs><rect id="SVGID_45_" width="512" height="512"/></defs><clipPath id="SVGID_46_"><use xlink:href="#SVGID_45_"  style="overflow:visible;"/></clipPath><polygon class="st22" points="445,250.7 439.7,250.7 439.7,238.4 427.4,238.4 427.4,233.1 445,233.1 "/></g><g><defs><rect id="SVGID_47_" width="512" height="512"/></defs><clipPath id="SVGID_48_"><use xlink:href="#SVGID_47_"  style="overflow:visible;"/></clipPath><circle class="st23" cx="93.4" cy="85.2" r="35.6"/></g><g><defs><rect id="SVGID_49_" width="512" height="512"/></defs><clipPath id="SVGID_50_"><use xlink:href="#SVGID_49_"  style="overflow:visible;"/></clipPath></g><g><defs><rect id="SVGID_51_" width="512" height="512"/></defs><clipPath id="SVGID_52_"><use xlink:href="#SVGID_51_"  style="overflow:visible;"/></clipPath></g><g><path class="st3" d="M78.5,101.4V69.6h20.3c6.1,0,9.2,3.9,9.2,8.1c0,4-2.5,6.7-5.5,7.3c3.4,0.5,6.1,3.8,6.1,7.8c0,4.8-3.2,8.6-9.2,8.6H78.5z M101,78.9c0-2-1.4-3.5-3.7-3.5h-12v6.9h12C99.6,82.3,101,80.9,101,78.9z M101.7,91.9c0-2-1.4-3.7-4.1-3.7H85.3v7.4h12.3C100.1,95.5,101.7,94.2,101.7,91.9z"/></g><rect x="85.3" y="65.1" class="st3" width="5.3" height="4.5"/><rect x="94.6" y="65.1" class="st3" width="5.3" height="4.5"/><rect x="85.3" y="101.4" class="st3" width="5.3" height="4.5"/><rect x="94.6" y="101.4" class="st3" width="5.3" height="4.5"/><g><defs><rect id="SVGID_53_" width="512" height="512"/></defs><clipPath id="SVGID_54_"><use xlink:href="#SVGID_53_"  style="overflow:visible;"/></clipPath><path class="st24" d="M100,52.9c-1.6-0.3-3.2-0.5-4.9-0.6l0.3-5.3c1.9,0.1,3.8,0.3,5.6,0.7L100,52.9z M85.4,53.2l-1.3-5.1c1.8-0.5,3.7-0.8,5.6-1l0.5,5.3C88.6,52.5,86.9,52.8,85.4,53.2z M109.1,56.2c-1.4-0.8-2.9-1.5-4.5-2l1.8-5c1.8,0.6,3.5,1.4,5.2,2.3L109.1,56.2z M76.3,57l-2.8-4.5c1.6-1,3.3-1.9,5.1-2.6l2,4.9C79.2,55.4,77.7,56.1,76.3,57z M117,62.2c-1.1-1.2-2.4-2.3-3.7-3.2l3.2-4.2c1.5,1.1,2.9,2.4,4.3,3.8L117,62.2z M68.8,63.2l-4-3.5c1.3-1.4,2.6-2.7,4.1-4l3.4,4.1C71.1,60.9,69.9,62,68.8,63.2z M122.7,70.1c-0.8-1.4-1.6-2.9-2.6-4.2l4.3-3.1c1.1,1.5,2.1,3.2,3,4.8L122.7,70.1z M63.4,71.4l-4.8-2.2c0.8-1.7,1.7-3.4,2.8-5l4.4,2.9C64.9,68.5,64.1,69.9,63.4,71.4z M125.8,79.3c-0.3-1.6-0.7-3.2-1.2-4.7l5-1.7c0.6,1.8,1.1,3.7,1.4,5.5L125.8,79.3z M60.7,80.8l-5.3-0.7c0.3-1.9,0.6-3.7,1.2-5.6l5.1,1.5C61.3,77.6,60.9,79.2,60.7,80.8z M131.2,90.9l-5.2-0.8c0.2-1.6,0.4-3.3,0.4-4.9c0-0.3,0-0.7,0-1l5.3-0.2c0,0.4,0,0.8,0,1.2C131.7,87.1,131.5,89,131.2,90.9z M55.6,91.5c-0.3-1.9-0.5-3.8-0.5-5.7l5.3-0.1c0,1.6,0.2,3.3,0.4,4.9L55.6,91.5z M127.9,101.7l-4.8-2.3c0.7-1.5,1.3-3,1.8-4.6l5.1,1.6C129.4,98.2,128.7,100,127.9,101.7z M59.1,102.3c-0.8-1.7-1.6-3.5-2.2-5.3l5-1.6c0.5,1.6,1.1,3.1,1.9,4.5L59.1,102.3z M121.5,111.1l-3.9-3.6c1.1-1.2,2.1-2.5,3-3.8l4.4,3C124,108.2,122.8,109.7,121.5,111.1z M65.6,111.6c-1.3-1.4-2.5-2.9-3.6-4.4l4.3-3c0.9,1.3,2,2.6,3.1,3.8L65.6,111.6z M112.7,118.3l-2.7-4.6c1.4-0.8,2.8-1.8,4-2.8l3.3,4.1C115.9,116.2,114.3,117.3,112.7,118.3z M74.6,118.5c-1.6-0.9-3.2-2-4.7-3.2l3.3-4.2c1.3,1,2.7,1.9,4.1,2.7L74.6,118.5z M102.1,122.5l-1.2-5.2c1.6-0.4,3.2-0.9,4.7-1.5l2,4.9C105.8,121.5,104,122,102.1,122.5z M85.2,122.6c-1.9-0.4-3.7-1-5.5-1.6l1.9-5c1.5,0.6,3.1,1.1,4.7,1.4L85.2,122.6z M93.4,123.5c-0.9,0-1.7,0-2.6-0.1l0.3-5.3c1.6,0.1,3.3,0.1,4.9,0l0.4,5.3C95.5,123.4,94.4,123.5,93.4,123.5z"/></g><g><defs><rect id="SVGID_55_" width="512" height="512"/></defs><clipPath id="SVGID_56_"><use xlink:href="#SVGID_55_"  style="overflow:visible;"/></clipPath><rect x="28.4" y="478.2" class="st25" width="22.7" height="15.2"/></g><g><defs><rect id="SVGID_57_" width="512" height="512"/></defs><clipPath id="SVGID_58_"><use xlink:href="#SVGID_57_"  style="overflow:visible;"/></clipPath><rect x="66.3" y="447.9" class="st26" width="22.7" height="45.5"/></g><g><defs><rect id="SVGID_59_" width="512" height="512"/></defs><clipPath id="SVGID_60_"><use xlink:href="#SVGID_59_"  style="overflow:visible;"/></clipPath><rect x="104.2" y="402.4" class="st27" width="22.7" height="90.9"/></g><g><defs><rect id="SVGID_61_" width="512" height="512"/></defs><clipPath id="SVGID_62_"><use xlink:href="#SVGID_61_"  style="overflow:visible;"/></clipPath><rect x="142.1" y="463.1" class="st28" width="22.7" height="30.3"/></g><g><defs><rect id="SVGID_63_" width="512" height="512"/></defs><clipPath id="SVGID_64_"><use xlink:href="#SVGID_63_"  style="overflow:visible;"/></clipPath><path class="st29" d="M91.7,490.7h32.6v-9.9H91.7V490.7z M129.6,496H86.4v-20.5h43.2L129.6,496L129.6,496z"/></g><g><defs><rect id="SVGID_65_" width="512" height="512"/></defs><clipPath id="SVGID_66_"><use xlink:href="#SVGID_65_"  style="overflow:visible;"/></clipPath><path class="st30" d="M91.7,475.6h32.6v-9.9H91.7V475.6z M129.6,480.9H86.4v-20.5h43.2L129.6,480.9L129.6,480.9z"/></g><g><defs><rect id="SVGID_67_" width="512" height="512"/></defs><clipPath id="SVGID_68_"><use xlink:href="#SVGID_67_"  style="overflow:visible;"/></clipPath><path class="st31" d="M91.7,460.4h32.6v-9.9H91.7V460.4z M129.6,465.7H86.4v-20.5h43.2L129.6,465.7L129.6,465.7z"/></g><g><defs><rect id="SVGID_69_" width="512" height="512"/></defs><clipPath id="SVGID_70_"><use xlink:href="#SVGID_69_"  style="overflow:visible;"/></clipPath><path class="st32" d="M91.7,445.3h32.6v-9.9H91.7V445.3z M129.6,450.6H86.4v-20.5h43.2L129.6,450.6L129.6,450.6z"/></g><g><defs><rect id="SVGID_71_" width="512" height="512"/></defs><clipPath id="SVGID_72_"><use xlink:href="#SVGID_71_"  style="overflow:visible;"/></clipPath><path class="st33" d="M91.7,430.1h32.6v-9.9H91.7V430.1z M129.6,435.4H86.4v-20.5h43.2L129.6,435.4L129.6,435.4z"/></g><g><defs><rect id="SVGID_73_" width="512" height="512"/></defs><clipPath id="SVGID_74_"><use xlink:href="#SVGID_73_"  style="overflow:visible;"/></clipPath><path class="st34" d="M91.7,414.9h32.6v-9.9H91.7V414.9z M129.6,420.2H86.4v-20.5h43.2L129.6,420.2L129.6,420.2z"/></g><g><defs><rect id="SVGID_75_" width="512" height="512"/></defs><clipPath id="SVGID_76_"><use xlink:href="#SVGID_75_"  style="overflow:visible;"/></clipPath><path class="st35" d="M53.8,490.7h32.6v-9.9H53.8V490.7z M91.7,496H48.5v-20.5h43.2L91.7,496L91.7,496z"/></g><g><defs><rect id="SVGID_77_" width="512" height="512"/></defs><clipPath id="SVGID_78_"><use xlink:href="#SVGID_77_"  style="overflow:visible;"/></clipPath><path class="st36" d="M53.8,475.6h32.6v-9.9H53.8V475.6z M91.7,480.9H48.5v-20.5h43.2L91.7,480.9L91.7,480.9z"/></g><g><defs><rect id="SVGID_79_" width="512" height="512"/></defs><clipPath id="SVGID_80_"><use xlink:href="#SVGID_79_"  style="overflow:visible;"/></clipPath><path class="st37" d="M53.8,460.4h32.6v-9.9H53.8V460.4z M91.7,465.7H48.5v-20.5h43.2L91.7,465.7L91.7,465.7z"/></g><g><defs><rect id="SVGID_81_" width="512" height="512"/></defs><clipPath id="SVGID_82_"><use xlink:href="#SVGID_81_"  style="overflow:visible;"/></clipPath><path class="st38" d="M129.6,490.7h32.6v-9.9h-32.6V490.7z M167.5,496h-43.2v-20.5h43.2V496z"/></g><g><defs><rect id="SVGID_83_" width="512" height="512"/></defs><clipPath id="SVGID_84_"><use xlink:href="#SVGID_83_"  style="overflow:visible;"/></clipPath><path class="st39" d="M129.6,475.6h32.6v-9.9h-32.6V475.6z M167.5,480.9h-43.2v-20.5h43.2V480.9z"/></g><g><defs><rect id="SVGID_85_" width="512" height="512"/></defs><clipPath id="SVGID_86_"><use xlink:href="#SVGID_85_"  style="overflow:visible;"/></clipPath><path class="st40" d="M15.9,490.7h32.6v-9.9H15.9V490.7z M53.8,496H10.6v-20.5h43.2V496z"/></g><g><defs><rect id="SVGID_87_" width="512" height="512"/></defs><clipPath id="SVGID_88_"><use xlink:href="#SVGID_87_"  style="overflow:visible;"/></clipPath><rect x="86.4" y="289.7" class="st41" width="5.3" height="112.8"/></g><g><defs><rect id="SVGID_89_" width="512" height="512"/></defs><clipPath id="SVGID_90_"><use xlink:href="#SVGID_89_"  style="overflow:visible;"/></clipPath><path class="st42" d="M155.5,289.7H129c-6.8,0-13.5,2.6-18.7,7.7c-5.2,5.2-7.7,11.9-7.7,18.7v26.5H129c6.8,0,13.5-2.6,18.7-7.8c5.2-5.2,7.7-11.9,7.7-18.7L155.5,289.7L155.5,289.7z"/></g><g><defs><rect id="SVGID_91_" width="512" height="512"/></defs><clipPath id="SVGID_92_"><use xlink:href="#SVGID_91_"  style="overflow:visible;"/></clipPath><path class="st43" d="M91.7,368.6h-5.3c0-4.4,0.8-8.6,2.5-12.6c1.7-4,4.1-7.6,7.1-10.7l19.7-19.7l3.8,3.8l-19.7,19.7c-2.6,2.6-4.6,5.6-6,9C92.4,361.4,91.7,365,91.7,368.6z"/></g><g><defs><rect id="SVGID_93_" width="512" height="512"/></defs><clipPath id="SVGID_94_"><use xlink:href="#SVGID_93_"  style="overflow:visible;"/></clipPath><path class="st44" d="M22.6,338.6h26.5c6.8,0,13.5,2.6,18.7,7.7c5.2,5.2,7.8,11.9,7.8,18.7v26.5H49.1c-6.8,0-13.5-2.6-18.7-7.7c-5.2-5.2-7.7-11.9-7.7-18.7L22.6,338.6L22.6,338.6z"/></g><g><defs><rect id="SVGID_95_" width="512" height="512"/></defs><clipPath id="SVGID_96_"><use xlink:href="#SVGID_95_"  style="overflow:visible;"/></clipPath><path class="st45" d="M91.7,417.6h-5.3c0-3.7-0.7-7.2-2.1-10.6c-1.4-3.4-3.4-6.4-6-9l-19.7-19.7l3.8-3.8L82,394.3c3.1,3.1,5.5,6.7,7.1,10.7C90.9,409,91.7,413.2,91.7,417.6z"/></g><g><defs><rect id="SVGID_97_" width="512" height="512"/></defs><clipPath id="SVGID_98_"><use xlink:href="#SVGID_97_"  style="overflow:visible;"/></clipPath><path class="st46" d="M404,480.8c-12.3,0-22.3-10-22.3-22.3c0-12.3,10-22.3,22.3-22.3c12.3,0,22.3,10,22.3,22.3C426.3,470.8,416.3,480.8,404,480.8z M334.3,423.7v69.7h139.4v-69.7H334.3z"/></g><g><defs><rect id="SVGID_99_" width="512" height="512"/></defs><clipPath id="SVGID_100_"><use xlink:href="#SVGID_99_"  style="overflow:visible;"/></clipPath><path class="st47" d="M404,438.9c-10.8,0-19.7,8.8-19.7,19.7c0,10.8,8.8,19.7,19.7,19.7c10.8,0,19.7-8.8,19.7-19.7C423.7,447.7,414.8,438.9,404,438.9z M404,483.5c-13.8,0-25-11.2-25-25c0-13.8,11.2-25,25-25c13.8,0,25,11.2,25,25C429,472.3,417.8,483.5,404,483.5z"/></g><g><defs><rect id="SVGID_101_" width="512" height="512"/></defs><clipPath id="SVGID_102_"><use xlink:href="#SVGID_101_"  style="overflow:visible;"/></clipPath><polygon class="st48" points="448.3,483.5 434.7,483.5 434.7,478.2 446.1,478.2 458.5,465.8 458.5,451.3 446.1,438.9 434.7,438.9 434.7,433.6 448.3,433.6 463.8,449.1 463.8,468 "/></g><g><defs><rect id="SVGID_103_" width="512" height="512"/></defs><clipPath id="SVGID_104_"><use xlink:href="#SVGID_103_"  style="overflow:visible;"/></clipPath><polygon class="st49" points="373.3,483.5 359.7,483.5 344.2,468 344.2,449.1 359.7,433.6 373.3,433.6 373.3,438.9 361.9,438.9 349.5,451.3 349.5,465.8 361.9,478.2 373.3,478.2 "/></g><g><defs><rect id="SVGID_105_" width="512" height="512"/></defs><clipPath id="SVGID_106_"><use xlink:href="#SVGID_105_"  style="overflow:visible;"/></clipPath><rect x="434.7" y="455.9" class="st50" width="12.5" height="5.3"/></g><g><defs><rect id="SVGID_107_" width="512" height="512"/></defs><clipPath id="SVGID_108_"><use xlink:href="#SVGID_107_"  style="overflow:visible;"/></clipPath><rect x="360.8" y="455.9" class="st51" width="12.5" height="5.3"/></g><g><defs><rect id="SVGID_109_" width="512" height="512"/></defs><clipPath id="SVGID_110_"><use xlink:href="#SVGID_109_"  style="overflow:visible;"/></clipPath><polygon class="st52" points="476.4,493.4 471.1,493.4 471.1,426.3 334.3,426.3 334.3,421 476.4,421 "/></g><g><defs><rect id="SVGID_111_" width="512" height="512"/></defs><clipPath id="SVGID_112_"><use xlink:href="#SVGID_111_"  style="overflow:visible;"/></clipPath><polygon class="st53" points="485.9,483.9 480.5,483.9 480.5,416.8 343.8,416.8 343.8,411.5 485.9,411.5 "/></g><g><defs><rect id="SVGID_113_" width="512" height="512"/></defs><clipPath id="SVGID_114_"><use xlink:href="#SVGID_113_"  style="overflow:visible;"/></clipPath><polygon class="st54" points="495.3,474.4 490,474.4 490,407.4 353.2,407.4 353.2,402.1 495.3,402.1 "/></g><g><defs><rect id="SVGID_115_" width="512" height="512"/></defs><clipPath id="SVGID_116_"><use xlink:href="#SVGID_115_"  style="overflow:visible;"/></clipPath><polygon class="st55" points="504.8,464.9 499.5,464.9 499.5,397.9 362.7,397.9 362.7,392.6 504.8,392.6 "/></g><g><defs><rect id="SVGID_117_" width="512" height="512"/></defs><clipPath id="SVGID_118_"><use xlink:href="#SVGID_117_"  style="overflow:visible;"/></clipPath><path class="st56" d="M377.2,83.9l42.8,67l42.8-67l-17-16.9h-51.6L377.2,83.9z M419.9,160.7l-49.5-77.6l21.5-21.5h56l21.5,21.5L419.9,160.7z"/></g><g><defs><rect id="SVGID_119_" x="0" y="0" width="512" height="512"/></defs><clipPath id="SVGID_120_"><use xlink:href="#SVGID_119_"  style="overflow:visible;"/></clipPath><rect x="390.7" y="117" transform="matrix(0.2081 -0.9781 0.9781 0.2081 221.6111 512.9645)" class="st57" width="73.9" height="5.3"/></g><g><defs><rect id="SVGID_121_" x="0" y="0" width="512" height="512"/></defs><clipPath id="SVGID_122_"><use xlink:href="#SVGID_121_"  style="overflow:visible;"/></clipPath><rect x="409.6" y="82.7" transform="matrix(0.9781 -0.2079 0.2079 0.9781 -15.8577 88.3202)" class="st58" width="5.3" height="73.9"/></g><g><defs><rect id="SVGID_123_" x="0" y="0" width="512" height="512"/></defs><clipPath id="SVGID_124_"><use xlink:href="#SVGID_123_"  style="overflow:visible;"/></clipPath><rect x="396.1" y="62.7" transform="matrix(0.8575 -0.5145 0.5145 0.8575 18.8133 215.6919)" class="st59" width="5.3" height="22.4"/></g><g><defs><rect id="SVGID_125_" x="0" y="0" width="512" height="512"/></defs><clipPath id="SVGID_126_"><use xlink:href="#SVGID_125_"  style="overflow:visible;"/></clipPath><rect x="399.9" y="71.2" transform="matrix(0.6241 -0.7813 0.7813 0.6241 97.2453 349.8498)" class="st60" width="24.6" height="5.3"/></g><g><defs><rect id="SVGID_127_" x="0" y="0" width="512" height="512"/></defs><clipPath id="SVGID_128_"><use xlink:href="#SVGID_127_"  style="overflow:visible;"/></clipPath><rect x="425" y="61.6" transform="matrix(0.781 -0.6246 0.6246 0.781 47.5157 283.2627)" class="st61" width="5.3" height="24.6"/></g><g><defs><rect id="SVGID_129_" x="0" y="0" width="512" height="512"/></defs><clipPath id="SVGID_130_"><use xlink:href="#SVGID_129_"  style="overflow:visible;"/></clipPath><rect x="429.8" y="71.2" transform="matrix(0.5145 -0.8575 0.8575 0.5145 150.7885 414.0739)" class="st62" width="22.4" height="5.3"/></g><g><defs><rect id="SVGID_131_" width="512" height="512"/></defs><clipPath id="SVGID_132_"><use xlink:href="#SVGID_131_"  style="overflow:visible;"/></clipPath><rect x="373.8" y="80.8" class="st63" width="92.3" height="5.3"/></g><g><defs><rect id="SVGID_133_" x="0" y="0" width="512" height="512"/></defs><clipPath id="SVGID_134_"><use xlink:href="#SVGID_133_"  style="overflow:visible;"/></clipPath><rect x="400.7" y="45.2" transform="matrix(0.7072 -0.707 0.707 0.7072 83.9662 299.3055)" class="st64" width="5.3" height="6.2"/></g><g><defs><rect id="SVGID_135_" x="0" y="0" width="512" height="512"/></defs><clipPath id="SVGID_136_"><use xlink:href="#SVGID_135_"  style="overflow:visible;"/></clipPath><rect x="391.4" y="35.9" transform="matrix(0.7054 -0.7088 0.7088 0.7054 88.4535 290.8093)" class="st65" width="5.3" height="6.2"/></g><g><defs><rect id="SVGID_137_" x="0" y="0" width="512" height="512"/></defs><clipPath id="SVGID_138_"><use xlink:href="#SVGID_137_"  style="overflow:visible;"/></clipPath><rect x="400.2" y="36.4" transform="matrix(0.7084 -0.7058 0.7058 0.7084 90.0658 296.0454)" class="st66" width="6.1" height="5.3"/></g><g><defs><rect id="SVGID_139_" x="0" y="0" width="512" height="512"/></defs><clipPath id="SVGID_140_"><use xlink:href="#SVGID_139_"  style="overflow:visible;"/></clipPath><rect x="391" y="45.6" transform="matrix(0.7072 -0.707 0.707 0.7072 81.2541 292.7448)" class="st67" width="6.2" height="5.3"/></g><g><defs><rect id="SVGID_141_" x="0" y="0" width="512" height="512"/></defs><clipPath id="SVGID_142_"><use xlink:href="#SVGID_141_"  style="overflow:visible;"/></clipPath><rect x="457.4" y="27.1" transform="matrix(0.7069 -0.7073 0.7073 0.7069 113.2318 334.3846)" class="st68" width="5.3" height="6.9"/></g><g><defs><rect id="SVGID_143_" x="0" y="0" width="512" height="512"/></defs><clipPath id="SVGID_144_"><use xlink:href="#SVGID_143_"  style="overflow:visible;"/></clipPath><rect x="447.1" y="16.9" transform="matrix(0.7053 -0.709 0.709 0.7053 118.1965 324.8664)" class="st69" width="5.3" height="6.8"/></g><g><defs><rect id="SVGID_145_" y="0" width="512" height="512"/></defs><clipPath id="SVGID_146_"><use xlink:href="#SVGID_145_"  style="overflow:visible;"/></clipPath><rect x="456.7" y="17.6" transform="matrix(0.7089 -0.7053 0.7053 0.7089 119.6404 330.4023)" class="st70" width="6.8" height="5.3"/></g><g><defs><rect id="SVGID_147_" x="0" y="0" width="512" height="512"/></defs><clipPath id="SVGID_148_"><use xlink:href="#SVGID_147_"  style="overflow:visible;"/></clipPath><rect x="446.4" y="27.9" transform="matrix(0.7073 -0.7069 0.7069 0.7073 110.0417 326.8985)" class="st71" width="6.9" height="5.3"/></g><g><defs><rect id="SVGID_149_" x="0" y="0" width="512" height="512"/></defs><clipPath id="SVGID_150_"><use xlink:href="#SVGID_149_"  style="overflow:visible;"/></clipPath><rect x="482.4" y="132.6" transform="matrix(0.7071 -0.7071 0.7071 0.7071 44.9031 383.2722)" class="st72" width="5.3" height="9.6"/></g><g><defs><rect id="SVGID_151_" x="0" y="0" width="512" height="512"/></defs><clipPath id="SVGID_152_"><use xlink:href="#SVGID_151_"  style="overflow:visible;"/></clipPath><rect x="468.1" y="118.2" transform="matrix(0.7054 -0.7088 0.7088 0.7054 51.5024 369.8725)" class="st73" width="5.3" height="9.6"/></g><g><defs><rect id="SVGID_153_" x="0" y="0" width="512" height="512"/></defs><clipPath id="SVGID_154_"><use xlink:href="#SVGID_153_"  style="overflow:visible;"/></clipPath><rect x="480.3" y="120.3" transform="matrix(0.7089 -0.7053 0.7053 0.7089 54.4672 377.9616)" class="st74" width="9.6" height="5.3"/></g><g><defs><rect id="SVGID_155_" x="0" y="0" width="512" height="512"/></defs><clipPath id="SVGID_156_"><use xlink:href="#SVGID_155_"  style="overflow:visible;"/></clipPath><rect x="465.9" y="134.8" transform="matrix(0.7072 -0.707 0.707 0.7072 40.6424 373.0024)" class="st75" width="9.6" height="5.3"/></g><g><defs><rect id="SVGID_157_" width="512" height="512"/></defs><clipPath id="SVGID_158_"><use xlink:href="#SVGID_157_"  style="overflow:visible;"/></clipPath><path class="st76" d="M25.4,227.7c-8.6,0-15.5,7-15.5,15.5c0,8.6,7,15.5,15.5,15.5s15.5-7,15.5-15.5C40.9,234.7,34,227.7,25.4,227.7z M25.4,264.1c-11.5,0-20.8-9.4-20.8-20.8c0-11.5,9.3-20.8,20.8-20.8s20.8,9.3,20.8,20.8C46.2,254.7,36.9,264.1,25.4,264.1z"/></g><g><defs><rect id="SVGID_159_" width="512" height="512"/></defs><clipPath id="SVGID_160_"><use xlink:href="#SVGID_159_"  style="overflow:visible;"/></clipPath><path class="st77" d="M488.3,310.1l-1.7-5c1.9-0.6,3.9-1,6-1l0,5.3C491.2,309.5,489.7,309.7,488.3,310.1z M500.9,312.1c-1.2-0.9-2.5-1.5-3.9-2l1.6-5.1c1.9,0.6,3.7,1.5,5.4,2.7L500.9,312.1z M481.3,315.3l-4.3-3.1c1.2-1.6,2.6-3.1,4.3-4.3l3.1,4.3C483.2,313,482.2,314.1,481.3,315.3z M506,319.1c-0.5-1.4-1.1-2.7-2-3.9l4.3-3.1c1.2,1.6,2.1,3.4,2.8,5.4L506,319.1z M473.3,323.5L473.3,323.5c0-2.1,0.3-4.1,0.9-6l5.1,1.6c-0.4,1.4-0.7,2.8-0.7,4.3L473.3,323.5z M511.1,329.4l-5-1.6c0.5-1.4,0.7-2.8,0.7-4.3l5.3-0.1v0.1C512,325.5,511.7,327.5,511.1,329.4z M477.1,334.9c-1.2-1.6-2.1-3.5-2.8-5.4l5-1.6c0.5,1.4,1.1,2.7,2,3.9L477.1,334.9z M504,339.1l-3.1-4.3c1.2-0.9,2.2-1.9,3.1-3.1l4.3,3.1C507.1,336.5,505.7,337.9,504,339.1z M486.7,341.9c-1.9-0.6-3.7-1.5-5.4-2.7l3.1-4.3c1.2,0.9,2.5,1.5,3.9,2L486.7,341.9z M492.7,342.8l0-5.3c1.5,0,2.9-0.2,4.3-0.7l1.6,5C496.7,342.5,494.7,342.8,492.7,342.8z"/></g><g><defs><rect id="SVGID_161_" width="512" height="512"/></defs><clipPath id="SVGID_162_"><use xlink:href="#SVGID_161_"  style="overflow:visible;"/></clipPath><path class="st78" d="M14,126.8c-4.8,0-8.7,3.9-8.7,8.7c0,4.8,3.9,8.7,8.7,8.7c4.8,0,8.7-3.9,8.7-8.7C22.7,130.7,18.8,126.8,14,126.8z M14,149.6c-7.7,0-14-6.3-14-14c0-7.7,6.3-14,14-14c7.7,0,14,6.3,14,14C28,143.3,21.8,149.6,14,149.6z"/></g><g><defs><rect id="SVGID_163_" width="512" height="512"/></defs><clipPath id="SVGID_164_"><use xlink:href="#SVGID_163_"  style="overflow:visible;"/></clipPath><circle class="st79" cx="164.7" cy="50.5" r="6.1"/></g><g><defs><rect id="SVGID_165_" width="512" height="512"/></defs><clipPath id="SVGID_166_"><use xlink:href="#SVGID_165_"  style="overflow:visible;"/></clipPath><circle class="st80" cx="48.1" cy="168.4" r="11.4"/></g><g><defs><rect id="SVGID_167_" width="512" height="512"/></defs><clipPath id="SVGID_168_"><use xlink:href="#SVGID_167_"  style="overflow:visible;"/></clipPath><circle class="st81" cx="435.3" cy="350" r="9.1"/></g></svg>