<svg viewBox="0 0 44.7 27" id="delivery" width="100%" height="100%">
<g>
<rect x="40.7" y="15.2" fill="#029EE4" width="1.8" height="1.3"></rect>
</g>
<g>
<polygon fill="#029EE4" points="8.5,23.3 4,23.3 4,15.2 5.4,15.2 5.4,22 8.5,22 	"></polygon>
</g>
<g>
<polygon fill="#029EE4" points="31,23.3 15.7,23.3 15.7,22 29.6,22 29.6,1.4 2,1.4 2,0 31,0 	"></polygon>
</g>
<g>
<rect x="4" y="0.7" fill="#029EE4" width="1.4" height="4"></rect>
</g>
<g>
<rect x="4.7" y="18.2" fill="#029EE4" width="1.9" height="1.4"></rect>
</g>
<g>
<rect x="25.8" y="18.2" fill="#029EE4" width="1.5" height="1.4"></rect>
</g>
<g>
<rect x="22.9" y="18.2" fill="#029EE4" width="1.5" height="1.4"></rect>
</g>
<g>
<rect x="20" y="18.2" fill="#029EE4" width="1.5" height="1.4"></rect>
</g>
<g>
<rect x="42.2" y="18.2" fill="#029EE4" width="1.9" height="1.4"></rect>
</g>
<g>
<path fill="#029EE4" d="M8.4,15.6h18.2V4.4H8.4V15.6z M27.9,16.9H7V3h20.9L27.9,16.9L27.9,16.9z"></path>
</g>
<g>
<path fill="#029EE4" d="M33.7,15.3h6L36,9.9h-2.3L33.7,15.3L33.7,15.3z M42.2,16.6h-9.9V8.5h4.4L42.2,16.6z"></path>
</g>
<g>
<polygon fill="#029EE4" points="44.7,23.3 40.8,23.3 40.8,22 43.4,22 43.4,15.5 37.3,7.2 31,7.2 31,22 33.5,22 33.5,23.3 29.6,23.3
		29.6,5.8 38,5.8 44.7,15.1 	"></polygon>
</g>
<g>
<path fill="#029EE4" d="M12.1,19.7c-1.6,0-3,1.3-3,3c0,1.6,1.3,3,3,3c1.6,0,3-1.3,3-3C15,21,13.7,19.7,12.1,19.7z M12.1,27
		c-2.4,0-4.3-1.9-4.3-4.3c0-2.4,1.9-4.3,4.3-4.3c2.4,0,4.3,1.9,4.3,4.3C16.4,25,14.5,27,12.1,27z"></path>
</g>
<g>
<rect x="11.4" y="22" fill="#029EE4" width="1.5" height="1.4"></rect>
</g>
<g>
<path fill="#029EE4" d="M37.2,19.7c-1.6,0-3,1.3-3,3c0,1.6,1.3,3,3,3c1.6,0,3-1.3,3-3C40.1,21,38.8,19.7,37.2,19.7z M37.2,27
		c-2.4,0-4.3-1.9-4.3-4.3c0-2.4,1.9-4.3,4.3-4.3c2.4,0,4.3,1.9,4.3,4.3C41.5,25,39.6,27,37.2,27z"></path>
</g>
<g>
<rect x="36.4" y="22" fill="#029EE4" width="1.5" height="1.4"></rect>
</g>
<g>
<rect y="6.4" fill="#029EE4" width="12" height="1.4"></rect>
</g>
<g>
<rect x="5.4" y="12.2" fill="#029EE4" width="6" height="1.4"></rect>
</g>
<g>
<rect x="2.6" y="9.3" fill="#029EE4" width="11.9" height="1.4"></rect>
</g>
<g>
<rect x="1.2" y="18.2" fill="#029EE4" width="1.5" height="1.4"></rect>
</g>
<g>
<rect x="15.1" y="6.4" fill="#029EE4" width="1.5" height="1.4"></rect>
</g>
<g>
<rect x="0.6" y="12.2" fill="#029EE4" width="3.4" height="1.4"></rect>
</g>
</svg>