<svg viewBox="0 0 45 43.6" id="online-ofline" width="100%" height="100%">
<g>
<polygon fill="#029EE4" points="13.6,43.1 3.9,43.1 3.9,39.2 5.4,39.2 5.4,41.6 12.1,41.6 12.1,39.2 13.6,39.2 	"></polygon>
</g>
<g>
<path fill="#029EE4" d="M24.7,40H2.4C1.1,40,0,38.9,0,37.5V20.7c0-1.3,1.1-2.4,2.4-2.4h2.2v1.5H2.4c-0.5,0-0.9,0.4-0.9,0.9v16.8
		c0,0.5,0.4,0.9,0.9,0.9h22.3V40z"></path>
</g>
<g>
<rect x="21" y="18.2" fill="#029EE4" width="6.4" height="1.5"></rect>
</g>
<g>
<path fill="#029EE4" d="M39.5,40H29.2v-1.5h10.3c0.5,0,0.9-0.4,0.9-0.9v-5.6h1.5v5.6C41.9,38.9,40.8,40,39.5,40z"></path>
</g>
<g>
<path fill="#029EE4" d="M28.6,7.4c-0.1,0-0.3,0.1-0.3,0.1c-0.1,0.1-0.1,0.3-0.1,0.3v22.8c0,0.1,0,0.2,0.1,0.3c0.1,0.1,0.2,0.1,0.3,0.1
		l14.4,0c0.1,0,0.2,0,0.3-0.1c0.1-0.1,0.1-0.2,0.1-0.3V7.9c0-0.1-0.1-0.2-0.1-0.3c-0.1-0.1-0.2-0.1-0.3-0.1H28.6z M43,32.6l-14.4,0
		c-0.5,0-1-0.2-1.4-0.6c-0.4-0.4-0.6-0.9-0.6-1.4V7.9c0-0.5,0.2-1,0.6-1.4c0.4-0.4,0.9-0.6,1.4-0.6H43c0.5,0,1,0.2,1.4,0.6
		C44.8,6.8,45,7.3,45,7.9v22.8c0,0.5-0.2,1-0.6,1.4C44,32.4,43.5,32.6,43,32.6z"></path>
</g>
<g>
<rect x="3.8" y="21.3" fill="#029EE4" width="23.6" height="1.5"></rect>
</g>
<g>
<polygon fill="#029EE4" points="21.7,36.9 3.9,36.9 3.9,27.6 5.4,27.6 5.4,35.4 20.2,35.4 20.2,27.6 21.7,27.6 	"></polygon>
</g>
<g>
<rect x="3.8" y="24.4" fill="#029EE4" width="1.7" height="1.7"></rect>
</g>
<g>
<rect x="7.1" y="24.4" fill="#029EE4" width="1.7" height="1.7"></rect>
</g>
<g>
<rect x="10.3" y="24.4" fill="#029EE4" width="1.7" height="1.7"></rect>
</g>
<g>
<rect x="13.6" y="24.4" fill="#029EE4" width="1.7" height="1.7"></rect>
</g>
<g>
<rect x="16.9" y="24.4" fill="#029EE4" width="1.7" height="1.7"></rect>
</g>
<g>
<rect x="20.1" y="24.4" fill="#029EE4" width="1.7" height="1.7"></rect>
</g>
<g>
<rect x="36.8" y="6.6" fill="#029EE4" width="1.5" height="25.3"></rect>
</g>
<g>
<rect x="40.4" y="6.6" fill="#029EE4" width="1.5" height="25.3"></rect>
</g>
<g>
<path fill="#029EE4" d="M28.6,7.4c-0.1,0-0.3,0.1-0.3,0.1c-0.1,0.1-0.1,0.3-0.1,0.3v22.8c0,0.1,0,0.2,0.1,0.3c0.1,0.1,0.2,0.1,0.3,0.1
		l14.4,0c0.1,0,0.2,0,0.3-0.1c0.1-0.1,0.1-0.2,0.1-0.3V7.9c0-0.1-0.1-0.2-0.1-0.3c-0.1-0.1-0.2-0.1-0.3-0.1H28.6z M43,32.6l-14.4,0
		c-0.5,0-1-0.2-1.4-0.6c-0.4-0.4-0.6-0.9-0.6-1.4V7.9c0-0.5,0.2-1,0.6-1.4c0.4-0.4,0.9-0.6,1.4-0.6H43c0.5,0,1,0.2,1.4,0.6
		C44.8,6.8,45,7.3,45,7.9v22.8c0,0.5-0.2,1-0.6,1.4C44,32.4,43.5,32.6,43,32.6z"></path>
</g>
<g>
<rect x="30.5" y="9.4" fill="#029EE4" width="1.5" height="3.8"></rect>
</g>
<g>
<rect x="30.5" y="14.7" fill="#029EE4" width="1.5" height="3.8"></rect>
</g>
<g>
<rect x="30.5" y="20" fill="#029EE4" width="1.5" height="3.8"></rect>
</g>
<g>
<rect x="30.5" y="25.3" fill="#029EE4" width="1.5" height="3.8"></rect>
</g>
<g>
<polygon fill="#029EE4" points="21.6,22 20.1,22 20.1,1.5 5.3,1.5 5.3,22 3.8,22 3.8,0 21.6,0 	"></polygon>
</g>
<g>
<path fill="#029EE4" d="M12.7,12.7c-1.5,0-2.6,1.2-2.6,2.6c0,1.5,1.2,2.6,2.6,2.6s2.6-1.2,2.6-2.6C15.4,13.9,14.2,12.7,12.7,12.7z
		 M12.7,19.5c-2.3,0-4.2-1.9-4.2-4.2c0-2.3,1.9-4.2,4.2-4.2s4.2,1.9,4.2,4.2C16.9,17.6,15,19.5,12.7,19.5z"></path>
</g>
<g>
<rect x="12" y="5.2" fill="#029EE4" width="1.5" height="3.3"></rect>
</g>
<g>
<path fill="#029EE4" d="M20.9,4.9c-2.3,0-4.2-1.9-4.2-4.2h1.5c0,1.5,1.2,2.6,2.6,2.6L20.9,4.9L20.9,4.9z"></path>
</g>
<g>
<path fill="#029EE4" d="M4.5,4.9V3.4c1.5,0,2.6-1.2,2.6-2.6h1.5C8.7,3.1,6.8,4.9,4.5,4.9z"></path>
</g>
<g>
<path fill="#029EE4" d="M27,38.6c-1,0-1.8,0.8-1.8,1.8c0,1,0.8,1.8,1.8,1.8c1,0,1.8-0.8,1.8-1.8C28.8,39.4,28,38.6,27,38.6z M27,43.6
		c-1.8,0-3.3-1.5-3.3-3.3s1.5-3.3,3.3-3.3s3.3,1.5,3.3,3.3S28.8,43.6,27,43.6z"></path>
</g>
</svg>