<svg version="1.1" id="Layer_1" xmlns="http://www.w3.org/2000/svg" xmlns:xlink="http://www.w3.org/1999/xlink" x="0px" y="0px" viewBox="0 0 512 512" style="enable-background:new 0 0 512 512;" xml:space="preserve"><style type="text/css">.st0{clip-path:url(#SVGID_2_);fill:none;stroke:#242D3C;stroke-width:5.0479;stroke-miterlimit:10;}.st1{clip-path:url(#SVGID_4_);fill:none;stroke:#242D3C;stroke-width:5.0479;stroke-miterlimit:10;}.st2{clip-path:url(#SVGID_6_);fill:#E7E6E7;}.st3{clip-path:url(#SVGID_8_);fill:#47B1E4;}.st4{clip-path:url(#SVGID_10_);fill:none;stroke:#242D3C;stroke-width:5.0479;stroke-miterlimit:10;}.st5{clip-path:url(#SVGID_12_);fill:none;stroke:#242D3C;stroke-width:5.0479;stroke-miterlimit:10;stroke-dasharray:5.1715,5.1715;}.st6{clip-path:url(#SVGID_14_);fill:none;stroke:#242D3C;stroke-width:5.0479;stroke-miterlimit:10;}.st7{clip-path:url(#SVGID_16_);fill:none;stroke:#242D3C;stroke-width:5.0479;stroke-miterlimit:10;}.st8{clip-path:url(#SVGID_18_);fill:none;stroke:#242D3C;stroke-width:5.0479;stroke-miterlimit:10;stroke-dasharray:5.1708,5.1708;}.st9{clip-path:url(#SVGID_20_);fill:none;stroke:#242D3C;stroke-width:5.0479;stroke-miterlimit:10;}.st10{clip-path:url(#SVGID_22_);fill:none;stroke:#242D3C;stroke-width:5.0479;stroke-miterlimit:10;}.st11{clip-path:url(#SVGID_24_);fill:#47B1E4;}.st12{clip-path:url(#SVGID_26_);fill:#47B1E4;}.st13{clip-path:url(#SVGID_28_);fill:#E7E6E7;}.st14{clip-path:url(#SVGID_30_);fill:none;stroke:#242D3C;stroke-width:5.0479;stroke-miterlimit:10;}.st15{clip-path:url(#SVGID_32_);fill:none;stroke:#242D3C;stroke-width:5.0479;stroke-miterlimit:10;}.st16{clip-path:url(#SVGID_34_);fill:none;stroke:#242D3C;stroke-width:5.0479;stroke-miterlimit:10;}.st17{clip-path:url(#SVGID_36_);fill:none;stroke:#242D3C;stroke-width:5.0479;stroke-miterlimit:10;}.st18{clip-path:url(#SVGID_38_);fill:none;stroke:#242D3C;stroke-width:5.0479;stroke-miterlimit:10;}.st19{clip-path:url(#SVGID_40_);fill:none;stroke:#242D3C;stroke-width:5.0479;stroke-miterlimit:10;}.st20{clip-path:url(#SVGID_42_);fill:#47B1E4;}.st21{clip-path:url(#SVGID_46_);fill:none;stroke:#242D3C;stroke-width:5.0479;stroke-miterlimit:10;}.st22{clip-path:url(#SVGID_48_);fill:#E7E6E7;}.st23{clip-path:url(#SVGID_50_);fill:none;stroke:#242D3C;stroke-width:5.0479;stroke-miterlimit:10;}.st24{clip-path:url(#SVGID_52_);fill:none;stroke:#242D3C;stroke-width:5.0479;stroke-miterlimit:10;}.st25{clip-path:url(#SVGID_54_);fill:none;stroke:#242D3C;stroke-width:5.0479;stroke-miterlimit:10;}.st26{clip-path:url(#SVGID_56_);fill:none;stroke:#242D3C;stroke-width:5.0479;stroke-miterlimit:10;}.st27{clip-path:url(#SVGID_58_);fill:none;stroke:#242D3C;stroke-width:5.0479;stroke-miterlimit:10;stroke-dasharray:5.2315,5.2315;}.st28{clip-path:url(#SVGID_60_);fill:none;stroke:#242D3C;stroke-width:5.0479;stroke-miterlimit:10;stroke-dasharray:5.1843,5.1843;}.st29{clip-path:url(#SVGID_62_);fill:none;stroke:#242D3C;stroke-width:5.0479;stroke-miterlimit:10;}.st30{clip-path:url(#SVGID_64_);fill:none;stroke:#242D3C;stroke-width:5.0479;stroke-miterlimit:10;}.st31{clip-path:url(#SVGID_66_);fill:none;stroke:#242D3C;stroke-width:5.0479;stroke-miterlimit:10;}.st32{clip-path:url(#SVGID_68_);fill:none;stroke:#242D3C;stroke-width:5.0479;stroke-miterlimit:10;}.st33{clip-path:url(#SVGID_70_);fill:none;stroke:#242D3C;stroke-width:5.0479;stroke-miterlimit:10;}.st34{clip-path:url(#SVGID_72_);fill:none;stroke:#242D3C;stroke-width:5.0479;stroke-miterlimit:10;}.st35{clip-path:url(#SVGID_74_);fill:none;stroke:#242D3C;stroke-width:5.0479;stroke-miterlimit:10;}.st36{clip-path:url(#SVGID_76_);fill:none;stroke:#242D3C;stroke-width:5.0479;stroke-miterlimit:10;}.st37{clip-path:url(#SVGID_78_);fill:#41464B;}.st38{clip-path:url(#SVGID_80_);fill:#41464B;}.st39{clip-path:url(#SVGID_82_);fill:#41464B;}.st40{clip-path:url(#SVGID_84_);fill:none;stroke:#242D3C;stroke-width:5.0479;stroke-miterlimit:10;}.st41{clip-path:url(#SVGID_86_);fill:none;stroke:#242D3C;stroke-width:5.0479;stroke-miterlimit:10;}.st42{clip-path:url(#SVGID_88_);fill:#E7E6E7;}.st43{clip-path:url(#SVGID_90_);fill:none;stroke:#242D3C;stroke-width:5.0479;stroke-linecap:round;stroke-linejoin:round;stroke-miterlimit:10;}.st44{clip-path:url(#SVGID_92_);fill:none;stroke:#242D3C;stroke-width:5.0479;stroke-linecap:round;stroke-linejoin:round;stroke-miterlimit:10;}.st45{clip-path:url(#SVGID_94_);fill:none;stroke:#242D3C;stroke-width:5.0479;stroke-linecap:round;stroke-linejoin:round;stroke-miterlimit:10;}.st46{clip-path:url(#SVGID_96_);fill:#229BD7;}.st47{clip-path:url(#SVGID_98_);fill:none;stroke:#CACBCC;stroke-width:5.0479;stroke-miterlimit:10;}.st48{clip-path:url(#SVGID_100_);fill:none;stroke:#CACBCC;stroke-width:5.0479;stroke-miterlimit:10;}.st49{clip-path:url(#SVGID_102_);fill:none;stroke:#CACBCC;stroke-width:5.0479;stroke-miterlimit:10;}.st50{clip-path:url(#SVGID_104_);fill:none;stroke:#242D3C;stroke-width:5.0479;stroke-miterlimit:10;}.st51{clip-path:url(#SVGID_106_);fill:none;stroke:#242D3C;stroke-width:5.0479;stroke-miterlimit:10;}.st52{clip-path:url(#SVGID_108_);fill:none;stroke:#242D3C;stroke-width:5.0479;stroke-miterlimit:10;}.st53{clip-path:url(#SVGID_110_);fill:none;stroke:#242D3C;stroke-width:5.0479;stroke-miterlimit:10;}.st54{clip-path:url(#SVGID_112_);fill:none;stroke:#242D3C;stroke-width:5.0479;stroke-miterlimit:10;}</style><g><defs><rect id="SVGID_1_" width="512" height="512"/></defs><clipPath id="SVGID_2_"><use xlink:href="#SVGID_1_"  style="overflow:visible;"/></clipPath><path class="st0" d="M392.1,339.6V178.3c0-2.4-0.9-4.8-2.7-6.6c-1.8-1.8-4.2-2.7-6.6-2.7H121.6c-2.4,0-4.8,0.9-6.6,2.7c-1.8,1.8-2.7,4.2-2.7,6.6v161.3"/></g><g><defs><rect id="SVGID_3_" width="512" height="512"/></defs><clipPath id="SVGID_4_"><use xlink:href="#SVGID_3_"  style="overflow:visible;"/></clipPath><path class="st1" d="M293.6,339.5l-6.6,7.2h-69.8l-6.6-7.2H83.8V352c0,3.2,1.2,6.4,3.6,8.8c2.4,2.4,5.6,3.6,8.8,3.6h311.9c3.2,0,6.4-1.2,8.8-3.6c2.4-2.4,3.6-5.6,3.6-8.8v-12.5H293.6z"/></g><g><defs><rect id="SVGID_5_" width="512" height="512"/></defs><clipPath id="SVGID_6_"><use xlink:href="#SVGID_5_"  style="overflow:visible;"/></clipPath><rect x="129.1" y="185.8" class="st2" width="246.2" height="136.9"/></g><g><defs><rect id="SVGID_7_" width="512" height="512"/></defs><clipPath id="SVGID_8_"><use xlink:href="#SVGID_7_"  style="overflow:visible;"/></clipPath><path class="st3" d="M199.8,127c0.2,0,0.3,0,0.4,0c-0.6-1.5-0.9-3.2-0.9-4.9c0-7.5,6-13.5,13.5-13.5c2.1,0,4,0.5,5.7,1.3c2.9-9.5,11.7-16.5,22.2-16.5c12.8,0,23.2,10.4,23.2,23.2c0,0.2,0,0.4,0,0.7c0,0,0,0,0,0c7.5,0,13.5,6,13.5,13.5c0,7.5-6,13.5-13.5,13.5h-64.1c-4.8,0-8.6-3.9-8.6-8.7C191.1,130.9,195,127,199.8,127z"/></g><g><defs><rect id="SVGID_9_" width="512" height="512"/></defs><clipPath id="SVGID_10_"><use xlink:href="#SVGID_9_"  style="overflow:visible;"/></clipPath><line class="st4" x1="237.9" y1="240" x2="236.1" y2="238.2"/></g><g><defs><rect id="SVGID_11_" width="512" height="512"/></defs><clipPath id="SVGID_12_"><use xlink:href="#SVGID_11_"  style="overflow:visible;"/></clipPath><line class="st5" x1="232.4" y1="234.5" x2="146.5" y2="148.6"/></g><g><defs><rect id="SVGID_13_" width="512" height="512"/></defs><clipPath id="SVGID_14_"><use xlink:href="#SVGID_13_"  style="overflow:visible;"/></clipPath><line class="st6" x1="144.7" y1="146.8" x2="142.9" y2="145"/></g><g><defs><rect id="SVGID_15_" width="512" height="512"/></defs><clipPath id="SVGID_16_"><use xlink:href="#SVGID_15_"  style="overflow:visible;"/></clipPath><line class="st7" x1="361.4" y1="145" x2="359.6" y2="146.8"/></g><g><defs><rect id="SVGID_17_" width="512" height="512"/></defs><clipPath id="SVGID_18_"><use xlink:href="#SVGID_17_"  style="overflow:visible;"/></clipPath><line class="st8" x1="356" y1="150.4" x2="270.1" y2="236.4"/></g><g><defs><rect id="SVGID_19_" width="512" height="512"/></defs><clipPath id="SVGID_20_"><use xlink:href="#SVGID_19_"  style="overflow:visible;"/></clipPath><line class="st9" x1="268.2" y1="238.2" x2="266.5" y2="240"/></g><g><defs><rect id="SVGID_21_" width="512" height="512"/></defs><clipPath id="SVGID_22_"><use xlink:href="#SVGID_21_"  style="overflow:visible;"/></clipPath><line class="st10" x1="252.2" y1="234" x2="252.2" y2="65.7"/></g><g><defs><rect id="SVGID_23_" width="512" height="512"/></defs><clipPath id="SVGID_24_"><use xlink:href="#SVGID_23_"  style="overflow:visible;"/></clipPath><path class="st11" d="M136.7,130.7c0,4.5-3.6,8.1-8.1,8.1c-4.5,0-8.1-3.6-8.1-8.1c0-4.5,3.6-8.1,8.1-8.1C133.1,122.6,136.7,126.2,136.7,130.7z"/></g><g><defs><rect id="SVGID_25_" width="512" height="512"/></defs><clipPath id="SVGID_26_"><use xlink:href="#SVGID_25_"  style="overflow:visible;"/></clipPath><path class="st12" d="M383.8,130.7c0,4.5-3.6,8.1-8.1,8.1c-4.5,0-8.1-3.6-8.1-8.1c0-4.5,3.6-8.1,8.1-8.1C380.2,122.6,383.8,126.2,383.8,130.7z"/></g><g><defs><rect id="SVGID_27_" width="512" height="512"/></defs><clipPath id="SVGID_28_"><use xlink:href="#SVGID_27_"  style="overflow:visible;"/></clipPath><path class="st13" d="M252.2,37.4c4.5,0,8.1,3.6,8.1,8.1c0,4.5-3.6,8.1-8.1,8.1c-4.5,0-8.1-3.6-8.1-8.1C244.1,41,247.7,37.4,252.2,37.4z"/></g><g><defs><rect id="SVGID_29_" width="512" height="512"/></defs><clipPath id="SVGID_30_"><use xlink:href="#SVGID_29_"  style="overflow:visible;"/></clipPath><path class="st14" d="M142.9,116.4c7.9,7.9,7.9,20.7,0,28.6c-7.9,7.9-20.7,7.9-28.6,0c-7.9-7.9-7.9-20.7,0-28.6C122.2,108.5,135,108.5,142.9,116.4z"/></g><g><defs><rect id="SVGID_31_" width="512" height="512"/></defs><clipPath id="SVGID_32_"><use xlink:href="#SVGID_31_"  style="overflow:visible;"/></clipPath><path class="st15" d="M390,116.4c7.9,7.9,7.9,20.7,0,28.6c-7.9,7.9-20.7,7.9-28.6,0c-7.9-7.9-7.9-20.7,0-28.6C369.3,108.5,382.1,108.5,390,116.4z"/></g><g><defs><rect id="SVGID_33_" width="512" height="512"/></defs><clipPath id="SVGID_34_"><use xlink:href="#SVGID_33_"  style="overflow:visible;"/></clipPath><path class="st16" d="M252.2,25.2c11.2,0,20.2,9,20.2,20.2c0,11.2-9,20.2-20.2,20.2c-11.2,0-20.2-9-20.2-20.2C232,34.3,241,25.2,252.2,25.2z"/></g><g><defs><rect id="SVGID_35_" width="512" height="512"/></defs><clipPath id="SVGID_36_"><use xlink:href="#SVGID_35_"  style="overflow:visible;"/></clipPath><path class="st17" d="M252.2,234c11.2,0,20.2,9,20.2,20.2c0,11.2-9,20.2-20.2,20.2c-11.2,0-20.2-9-20.2-20.2C232,243.1,241,234,252.2,234z"/></g><g><defs><rect id="SVGID_37_" width="512" height="512"/></defs><clipPath id="SVGID_38_"><use xlink:href="#SVGID_37_"  style="overflow:visible;"/></clipPath><line class="st18" x1="252.2" y1="246.2" x2="252.2" y2="262.3"/></g><g><defs><rect id="SVGID_39_" width="512" height="512"/></defs><clipPath id="SVGID_40_"><use xlink:href="#SVGID_39_"  style="overflow:visible;"/></clipPath><line class="st19" x1="244.1" y1="254.3" x2="260.3" y2="254.3"/></g><g><defs><rect id="SVGID_41_" width="512" height="512"/></defs><clipPath id="SVGID_42_"><use xlink:href="#SVGID_41_"  style="overflow:visible;"/></clipPath><polygon class="st20" points="478.2,196.1 478.2,277.1 461.7,277.1 461.7,295.6 443.2,277.1 348.7,277.1 348.7,196.1 "/></g><g><defs><rect id="SVGID_43_" width="512" height="512"/></defs><clipPath id="SVGID_44_"><use xlink:href="#SVGID_43_"  style="overflow:visible;"/></clipPath></g><g><defs><rect id="SVGID_45_" width="512" height="512"/></defs><clipPath id="SVGID_46_"><use xlink:href="#SVGID_45_"  style="overflow:visible;"/></clipPath><polyline class="st21" points="409.3,183.6 490.7,183.6 490.7,264.6 "/></g><g><defs><rect id="SVGID_47_" width="512" height="512"/></defs><clipPath id="SVGID_48_"><use xlink:href="#SVGID_47_"  style="overflow:visible;"/></clipPath><path class="st22" d="M203.1,70.4c3.7,0,6.7,3,6.7,6.7c0,3.7-3,6.7-6.7,6.7c-3.7,0-6.7-3-6.7-6.7C196.4,73.4,199.4,70.4,203.1,70.4z"/></g><g><defs><rect id="SVGID_49_" width="512" height="512"/></defs><clipPath id="SVGID_50_"><use xlink:href="#SVGID_49_"  style="overflow:visible;"/></clipPath><path class="st23" d="M313.9,106.5c6,0,10.8,4.8,10.8,10.8c0,5.9-4.8,10.8-10.8,10.8c-5.9,0-10.8-4.8-10.8-10.8C303.2,111.3,308,106.5,313.9,106.5z"/></g><g><defs><rect id="SVGID_51_" width="512" height="512"/></defs><clipPath id="SVGID_52_"><use xlink:href="#SVGID_51_"  style="overflow:visible;"/></clipPath><path class="st24" d="M53.4,265.4c8.5,0,16.6,3.3,22.6,9.4c6,6,9.4,14.1,9.4,22.6"/></g><g><defs><rect id="SVGID_53_" width="512" height="512"/></defs><clipPath id="SVGID_54_"><use xlink:href="#SVGID_53_"  style="overflow:visible;"/></clipPath><path class="st25" d="M53.4,277.9c5.2,0,10.1,2,13.8,5.7c3.7,3.7,5.7,8.6,5.7,13.8"/></g><g><defs><rect id="SVGID_55_" width="512" height="512"/></defs><clipPath id="SVGID_56_"><use xlink:href="#SVGID_55_"  style="overflow:visible;"/></clipPath><path class="st26" d="M53.4,290.4c3.8,0,6.9,3.1,6.9,7c0,3.8-3.1,7-6.9,7c-3.8,0-7-3.1-7-7C46.4,293.5,49.5,290.4,53.4,290.4z"/></g><g><defs><rect id="SVGID_57_" width="512" height="512"/></defs><clipPath id="SVGID_58_"><use xlink:href="#SVGID_57_"  style="overflow:visible;"/></clipPath><path class="st27" d="M215.9,401.1c4.6,0,8.4,3.7,8.4,8.3c0,4.6-3.7,8.3-8.4,8.3c-4.6,0-8.3-3.7-8.3-8.3C207.6,404.8,211.3,401.1,215.9,401.1z"/></g><g><defs><rect id="SVGID_59_" width="512" height="512"/></defs><clipPath id="SVGID_60_"><use xlink:href="#SVGID_59_"  style="overflow:visible;"/></clipPath><path class="st28" d="M280.5,391.5c7.3,0,13.2,5.9,13.2,13.2c0,7.3-5.9,13.2-13.2,13.2c-7.3,0-13.2-5.9-13.2-13.2C267.3,397.4,273.2,391.5,280.5,391.5z"/></g><g><defs><rect id="SVGID_61_" width="512" height="512"/></defs><clipPath id="SVGID_62_"><use xlink:href="#SVGID_61_"  style="overflow:visible;"/></clipPath><path class="st29" d="M219.4,434.6c3.5,0,6.3,2.8,6.3,6.3c0,3.5-2.8,6.3-6.3,6.3c-3.5,0-6.2-2.8-6.2-6.3C213.1,437.4,215.9,434.6,219.4,434.6z"/></g><g><defs><rect id="SVGID_63_" width="512" height="512"/></defs><clipPath id="SVGID_64_"><use xlink:href="#SVGID_63_"  style="overflow:visible;"/></clipPath><line class="st30" x1="146.6" y1="236.7" x2="122.6" y2="236.7"/></g><g><defs><rect id="SVGID_65_" width="512" height="512"/></defs><clipPath id="SVGID_66_"><use xlink:href="#SVGID_65_"  style="overflow:visible;"/></clipPath><line class="st31" x1="122.6" y1="206.4" x2="146.6" y2="206.4"/></g><g><defs><rect id="SVGID_67_" width="512" height="512"/></defs><clipPath id="SVGID_68_"><use xlink:href="#SVGID_67_"  style="overflow:visible;"/></clipPath><line class="st32" x1="158.6" y1="221.5" x2="134.6" y2="221.5"/></g><g><defs><rect id="SVGID_69_" width="512" height="512"/></defs><clipPath id="SVGID_70_"><use xlink:href="#SVGID_69_"  style="overflow:visible;"/></clipPath><rect x="21.3" y="197.7" class="st33" width="72.6" height="47.6"/></g><g><defs><rect id="SVGID_71_" width="512" height="512"/></defs><clipPath id="SVGID_72_"><use xlink:href="#SVGID_71_"  style="overflow:visible;"/></clipPath><polyline class="st34" points="93.9,197.7 57.6,227.3 21.3,197.7 "/></g><g><defs><rect id="SVGID_73_" width="512" height="512"/></defs><clipPath id="SVGID_74_"><use xlink:href="#SVGID_73_"  style="overflow:visible;"/></clipPath><line class="st35" x1="93.9" y1="245.3" x2="64.6" y2="221.5"/></g><g><defs><rect id="SVGID_75_" width="512" height="512"/></defs><clipPath id="SVGID_76_"><use xlink:href="#SVGID_75_"  style="overflow:visible;"/></clipPath><line class="st36" x1="50.5" y1="221.5" x2="21.3" y2="245.3"/></g><g><defs><rect id="SVGID_77_" width="512" height="512"/></defs><clipPath id="SVGID_78_"><use xlink:href="#SVGID_77_"  style="overflow:visible;"/></clipPath><rect x="249.6" y="307.6" class="st37" width="5.1" height="5"/></g><g><defs><rect id="SVGID_79_" width="512" height="512"/></defs><clipPath id="SVGID_80_"><use xlink:href="#SVGID_79_"  style="overflow:visible;"/></clipPath><rect x="259.7" y="307.6" class="st38" width="5.1" height="5"/></g><g><defs><rect id="SVGID_81_" width="512" height="512"/></defs><clipPath id="SVGID_82_"><use xlink:href="#SVGID_81_"  style="overflow:visible;"/></clipPath><rect x="239.6" y="307.6" class="st39" width="5" height="5"/></g><g><defs><rect id="SVGID_83_" width="512" height="512"/></defs><clipPath id="SVGID_84_"><use xlink:href="#SVGID_83_"  style="overflow:visible;"/></clipPath><polygon class="st40" points="268.9,486.8 244.7,429.1 302.4,453.3 278.2,462.6 "/></g><g><defs><rect id="SVGID_85_" width="512" height="512"/></defs><clipPath id="SVGID_86_"><use xlink:href="#SVGID_85_"  style="overflow:visible;"/></clipPath><line class="st41" x1="278.2" y1="462.6" x2="296.4" y2="480.8"/></g><g><defs><rect id="SVGID_87_" width="512" height="512"/></defs><clipPath id="SVGID_88_"><use xlink:href="#SVGID_87_"  style="overflow:visible;"/></clipPath><rect x="405.7" y="323.7" class="st42" width="76.6" height="76.6"/></g><g><defs><rect id="SVGID_89_" width="512" height="512"/></defs><clipPath id="SVGID_90_"><use xlink:href="#SVGID_89_"  style="overflow:visible;"/></clipPath><path class="st43" d="M454.4,380c-3.1,1.8-6.6,2.8-10.4,2.8c-11.5,0-20.8-9.3-20.8-20.8c0-11.5,9.3-20.8,20.8-20.8c11.5,0,20.8,9.3,20.8,20.8"/></g><g><defs><rect id="SVGID_91_" width="512" height="512"/></defs><clipPath id="SVGID_92_"><use xlink:href="#SVGID_91_"  style="overflow:visible;"/></clipPath><path class="st44" d="M454.4,362c0,5.8-4.7,10.4-10.4,10.4c-5.7,0-10.4-4.7-10.4-10.4c0-5.7,4.7-10.4,10.4-10.4C449.8,351.5,454.4,356.2,454.4,362z"/></g><g><defs><rect id="SVGID_93_" width="512" height="512"/></defs><clipPath id="SVGID_94_"><use xlink:href="#SVGID_93_"  style="overflow:visible;"/></clipPath><path class="st45" d="M454.4,362v5.2c0,1.3,0.5,2.7,1.5,3.7c1,1,2.3,1.5,3.7,1.5c1.3,0,2.7-0.5,3.7-1.5c1-1,1.5-2.3,1.5-3.7V362"/></g><g><defs><rect id="SVGID_95_" width="512" height="512"/></defs><clipPath id="SVGID_96_"><use xlink:href="#SVGID_95_"  style="overflow:visible;"/></clipPath><rect x="43.7" y="354.3" class="st46" width="110" height="73.7"/></g><g><defs><rect id="SVGID_97_" width="512" height="512"/></defs><clipPath id="SVGID_98_"><use xlink:href="#SVGID_97_"  style="overflow:visible;"/></clipPath><polyline class="st47" points="142.3,428 105.4,391.1 68.6,428 "/></g><g><defs><rect id="SVGID_99_" width="512" height="512"/></defs><clipPath id="SVGID_100_"><use xlink:href="#SVGID_99_"  style="overflow:visible;"/></clipPath><polyline class="st48" points="85.9,410.7 77.6,402.4 52,428 "/></g><g><defs><rect id="SVGID_101_" width="512" height="512"/></defs><clipPath id="SVGID_102_"><use xlink:href="#SVGID_101_"  style="overflow:visible;"/></clipPath><path class="st49" d="M91.5,382.1c0,4.3-3.5,7.7-7.7,7.7c-4.3,0-7.7-3.5-7.7-7.7c0-4.3,3.5-7.7,7.7-7.7C88,374.3,91.5,377.8,91.5,382.1z"/></g><g><defs><rect id="SVGID_103_" width="512" height="512"/></defs><clipPath id="SVGID_104_"><use xlink:href="#SVGID_103_"  style="overflow:visible;"/></clipPath><polyline class="st50" points="31.4,366.6 31.4,440.3 141.3,440.3 "/></g><g><defs><rect id="SVGID_105_" width="512" height="512"/></defs><clipPath id="SVGID_106_"><use xlink:href="#SVGID_105_"  style="overflow:visible;"/></clipPath><line class="st51" x1="365.1" y1="411.4" x2="438.7" y2="411.4"/></g><g><defs><rect id="SVGID_107_" width="512" height="512"/></defs><clipPath id="SVGID_108_"><use xlink:href="#SVGID_107_"  style="overflow:visible;"/></clipPath><line class="st52" x1="438.7" y1="422.5" x2="365.1" y2="422.5"/></g><g><defs><rect id="SVGID_109_" width="512" height="512"/></defs><clipPath id="SVGID_110_"><use xlink:href="#SVGID_109_"  style="overflow:visible;"/></clipPath><line class="st53" x1="409.5" y1="433.6" x2="365.1" y2="433.6"/></g><g><defs><rect id="SVGID_111_" width="512" height="512"/></defs><clipPath id="SVGID_112_"><use xlink:href="#SVGID_111_"  style="overflow:visible;"/></clipPath><line class="st54" x1="394.2" y1="400.3" x2="345.6" y2="400.3"/></g></svg>