<svg version="1.1" id="Layer_1" xmlns="http://www.w3.org/2000/svg" xmlns:xlink="http://www.w3.org/1999/xlink" x="0px" y="0px" viewBox="0 0 512 512" style="enable-background:new 0 0 512 512;" xml:space="preserve"><style type="text/css">.st0{clip-path:url(#SVGID_2_);fill:#E7E6E7;}.st1{clip-path:url(#SVGID_4_);fill:#E7E6E7;}.st2{clip-path:url(#SVGID_6_);fill:#242D3C;}.st3{clip-path:url(#SVGID_8_);fill:#242D3C;}.st4{clip-path:url(#SVGID_10_);fill:#242D3C;}.st5{clip-path:url(#SVGID_12_);fill:#E7E6E7;}.st6{clip-path:url(#SVGID_14_);fill:#229BD7;}.st7{clip-path:url(#SVGID_16_);fill:#007BB6;}.st8{clip-path:url(#SVGID_18_);fill:#47B1E4;}.st9{clip-path:url(#SVGID_20_);fill:#CBCAC8;}.st10{clip-path:url(#SVGID_22_);fill:#3E4959;}.st11{clip-path:url(#SVGID_24_);fill:#242D3C;}.st12{clip-path:url(#SVGID_26_);fill:#242D3C;}.st13{clip-path:url(#SVGID_28_);fill:#242D3C;}.st14{clip-path:url(#SVGID_30_);fill:#242D3C;}.st15{clip-path:url(#SVGID_32_);fill:#CBCAC8;}.st16{clip-path:url(#SVGID_34_);fill:#FFFFFF;}.st17{clip-path:url(#SVGID_36_);fill:#FFFFFF;}.st18{clip-path:url(#SVGID_38_);fill:#FFFFFF;}.st19{clip-path:url(#SVGID_40_);fill:#229BD7;}.st20{clip-path:url(#SVGID_42_);fill:#47B1E4;}.st21{clip-path:url(#SVGID_50_);fill:#47B1E4;}.st22{clip-path:url(#SVGID_52_);fill:#47B1E4;}.st23{clip-path:url(#SVGID_54_);fill:#47B1E4;}.st24{clip-path:url(#SVGID_56_);fill:#47B1E4;}.st25{clip-path:url(#SVGID_58_);fill:#47B1E4;}.st26{clip-path:url(#SVGID_60_);fill:#47B1E4;}.st27{clip-path:url(#SVGID_62_);fill:#47B1E4;}.st28{clip-path:url(#SVGID_64_);fill:#47B1E4;}.st29{clip-path:url(#SVGID_66_);fill:#47B1E4;}.st30{clip-path:url(#SVGID_68_);fill:#47B1E4;}.st31{clip-path:url(#SVGID_70_);fill:#47B1E4;}.st32{clip-path:url(#SVGID_72_);fill:#47B1E4;}.st33{clip-path:url(#SVGID_74_);fill:#229BD7;}.st34{clip-path:url(#SVGID_76_);fill:#242D3C;}.st35{clip-path:url(#SVGID_78_);fill:#229BD7;}.st36{clip-path:url(#SVGID_80_);fill:#47B1E4;}.st37{clip-path:url(#SVGID_82_);fill:#FFFFFF;}.st38{clip-path:url(#SVGID_84_);fill:#242D3C;}.st39{clip-path:url(#SVGID_86_);fill:#242D3C;}.st40{clip-path:url(#SVGID_88_);fill:#242D3C;}.st41{clip-path:url(#SVGID_90_);fill:#242D3C;}.st42{clip-path:url(#SVGID_92_);fill:#242D3C;}.st43{clip-path:url(#SVGID_94_);fill:#242D3C;}.st44{clip-path:url(#SVGID_96_);fill:#242D3C;}.st45{clip-path:url(#SVGID_98_);fill:#242D3C;}.st46{clip-path:url(#SVGID_100_);fill:#242D3C;}.st47{clip-path:url(#SVGID_102_);fill:#242D3C;}.st48{clip-path:url(#SVGID_104_);fill:#242D3C;}.st49{clip-path:url(#SVGID_106_);fill:#242D3C;}.st50{clip-path:url(#SVGID_108_);fill:#242D3C;}.st51{clip-path:url(#SVGID_110_);fill:#242D3C;}.st52{clip-path:url(#SVGID_112_);fill:#242D3C;}.st53{clip-path:url(#SVGID_114_);fill:#F15424;}.st54{clip-path:url(#SVGID_116_);fill:#F15424;}.st55{clip-path:url(#SVGID_118_);fill:#242D3C;}.st56{clip-path:url(#SVGID_120_);fill:#229BD7;}.st57{clip-path:url(#SVGID_122_);fill:#47B1E4;}.st58{clip-path:url(#SVGID_124_);fill:#FFFFFF;}.st59{clip-path:url(#SVGID_126_);fill:#D9D8D6;}.st60{clip-path:url(#SVGID_128_);fill:#007BB6;}.st61{clip-path:url(#SVGID_130_);fill:#005E8B;}.st62{clip-path:url(#SVGID_132_);fill:#229BD7;}.st63{clip-path:url(#SVGID_134_);fill:#242D3C;}.st64{clip-path:url(#SVGID_136_);fill:#242D3C;}.st65{fill:#242D3C;}</style><g><defs><rect id="SVGID_1_" width="512" height="512"/></defs><clipPath id="SVGID_2_"><use xlink:href="#SVGID_1_"  style="overflow:visible;"/></clipPath><path class="st0" d="M317.8,261c-2.3-8.6-7.3-16.6-15-22.5c-7.6-5.9-16.7-8.7-25.6-8.7h-65.8c-10.8,0-21.5,4.1-29.7,12.3c-8.2,8.2-12.3,19-12.3,40.4v139.3h98.1c10.8,0,21.5-4.1,29.7-12.3c8.2-8.2,12.3-19,12.3-29.7v-44.9h28L317.8,261z"/></g><g><defs><rect id="SVGID_3_" width="512" height="512"/></defs><clipPath id="SVGID_4_"><use xlink:href="#SVGID_3_"  style="overflow:visible;"/></clipPath><rect x="169.4" y="421.8" class="st1" width="87.6" height="47.6"/></g><g><defs><rect id="SVGID_5_" width="512" height="512"/></defs><clipPath id="SVGID_6_"><use xlink:href="#SVGID_5_"  style="overflow:visible;"/></clipPath><path class="st2" d="M291.6,291.1c0,4.9,4,8.9,8.9,8.9c4.9,0,8.9-4,8.9-8.9c0-4.9-4-8.9-8.9-8.9C295.6,282.2,291.6,286.1,291.6,291.1z"/></g><g><defs><rect id="SVGID_7_" width="512" height="512"/></defs><clipPath id="SVGID_8_"><use xlink:href="#SVGID_7_"  style="overflow:visible;"/></clipPath><path class="st3" d="M257,291.1c0,4.9,4,8.9,8.9,8.9c4.9,0,8.9-4,8.9-8.9c0-4.9-4-8.9-8.9-8.9C261,282.2,257,286.1,257,291.1z"/></g><g><defs><rect id="SVGID_9_" width="512" height="512"/></defs><clipPath id="SVGID_10_"><use xlink:href="#SVGID_9_"  style="overflow:visible;"/></clipPath><path class="st4" d="M337.5,212.2c0,9-3.4,17.9-10.3,24.8c-6.8,6.8-15.8,10.3-24.8,10.3h-83.6c-8.8,0-17.5-3.3-24.3-9.8c6.5,6.8,9.8,15.5,9.8,24.3v73.1h-35v-73.6c0-12.6,4.8-25.1,14.4-34.7c9.6-9.6,22.1-14.4,34.7-14.4L337.5,212.2z"/></g><g><defs><rect id="SVGID_11_" width="512" height="512"/></defs><clipPath id="SVGID_12_"><use xlink:href="#SVGID_11_"  style="overflow:visible;"/></clipPath><path class="st5" d="M151.9,322.6c0-3.6,1.4-7.2,4.1-9.9c2.7-2.7,6.3-4.1,9.9-4.1h7c3.6,0,7.2,1.4,9.9,4.1c2.7,2.7,4.1,6.3,4.1,9.9v36h-21c-3.6,0-7.2-1.4-9.9-4.1c-2.7-2.7-4.1-6.3-4.1-9.9V322.6z"/></g><g><defs><rect id="SVGID_13_" width="512" height="512"/></defs><clipPath id="SVGID_14_"><use xlink:href="#SVGID_13_"  style="overflow:visible;"/></clipPath><path class="st6" d="M286.3,84.3c0,23-18.6,41.6-41.6,41.6c-23,0-41.6-18.6-41.6-41.6c0-23,18.6-41.6,41.6-41.6C267.7,42.7,286.3,61.3,286.3,84.3z"/></g><g><defs><rect id="SVGID_15_" width="512" height="512"/></defs><clipPath id="SVGID_16_"><use xlink:href="#SVGID_15_"  style="overflow:visible;"/></clipPath><path class="st7" d="M244.7,117c-9.2,0-18.1-4-24.3-10.8c-0.7-0.7-0.6-1.8,0.1-2.5c0.7-0.7,1.8-0.6,2.5,0.1c5.6,6.2,13.5,9.7,21.7,9.7c16.1,0,29.3-13.1,29.3-29.3c0-1,0.8-1.8,1.8-1.8c1,0,1.8,0.8,1.8,1.8C277.5,102.3,262.8,117,244.7,117z"/></g><g><defs><rect id="SVGID_17_" width="512" height="512"/></defs><clipPath id="SVGID_18_"><use xlink:href="#SVGID_17_"  style="overflow:visible;"/></clipPath><path class="st8" d="M213.7,86c-1,0-1.8-0.8-1.8-1.8c0-18.1,14.7-32.8,32.8-32.8c1,0,1.8,0.8,1.8,1.8c0,1-0.8,1.8-1.8,1.8c-16.1,0-29.2,13.1-29.2,29.2C215.5,85.2,214.7,86,213.7,86z"/></g><g><defs><rect id="SVGID_19_" width="512" height="512"/></defs><clipPath id="SVGID_20_"><use xlink:href="#SVGID_19_"  style="overflow:visible;"/></clipPath><rect x="226" y="121.3" class="st9" width="37.4" height="13.7"/></g><g><defs><rect id="SVGID_21_" width="512" height="512"/></defs><clipPath id="SVGID_22_"><use xlink:href="#SVGID_21_"  style="overflow:visible;"/></clipPath><rect x="223.9" y="135" class="st10" width="41.6" height="26"/></g><g><defs><rect id="SVGID_23_" width="512" height="512"/></defs><clipPath id="SVGID_24_"><use xlink:href="#SVGID_23_"  style="overflow:visible;"/></clipPath><rect x="221.8" y="137.9" class="st11" width="45.9" height="2.9"/></g><g><defs><rect id="SVGID_25_" width="512" height="512"/></defs><clipPath id="SVGID_26_"><use xlink:href="#SVGID_25_"  style="overflow:visible;"/></clipPath><rect x="221.8" y="143.7" class="st12" width="45.9" height="2.9"/></g><g><defs><rect id="SVGID_27_" width="512" height="512"/></defs><clipPath id="SVGID_28_"><use xlink:href="#SVGID_27_"  style="overflow:visible;"/></clipPath><rect x="221.8" y="149.4" class="st13" width="45.9" height="2.9"/></g><g><defs><rect id="SVGID_29_" width="512" height="512"/></defs><clipPath id="SVGID_30_"><use xlink:href="#SVGID_29_"  style="overflow:visible;"/></clipPath><rect x="221.8" y="155.2" class="st14" width="45.9" height="2.9"/></g><g><defs><rect id="SVGID_31_" width="512" height="512"/></defs><clipPath id="SVGID_32_"><use xlink:href="#SVGID_31_"  style="overflow:visible;"/></clipPath><rect x="233" y="161" class="st15" width="23.4" height="10.4"/></g><g><defs><rect id="SVGID_33_" width="512" height="512"/></defs><clipPath id="SVGID_34_"><use xlink:href="#SVGID_33_"  style="overflow:visible;"/></clipPath><rect x="237.7" y="87.6" class="st16" width="1.8" height="47.4"/></g><g><defs><rect id="SVGID_35_" width="512" height="512"/></defs><clipPath id="SVGID_36_"><use xlink:href="#SVGID_35_"  style="overflow:visible;"/></clipPath><rect x="250" y="87.6" class="st17" width="1.8" height="47.4"/></g><g><defs><rect id="SVGID_37_" width="512" height="512"/></defs><clipPath id="SVGID_38_"><use xlink:href="#SVGID_37_"  style="overflow:visible;"/></clipPath><rect x="229.7" y="85.8" class="st18" width="30" height="1.8"/></g><g><defs><rect id="SVGID_39_" width="512" height="512"/></defs><clipPath id="SVGID_40_"><use xlink:href="#SVGID_39_"  style="overflow:visible;"/></clipPath><path class="st19" d="M430.5,165.9c0,24.2-19.6,43.7-43.7,43.7c-24.2,0-43.7-19.6-43.7-43.7c0-24.1,19.5-43.6,43.7-43.6C411,122.2,430.5,141.8,430.5,165.9z"/></g><g><defs><rect id="SVGID_41_" width="512" height="512"/></defs><clipPath id="SVGID_42_"><use xlink:href="#SVGID_41_"  style="overflow:visible;"/></clipPath><path class="st20" d="M421.3,165.9c0,19-15.4,34.4-34.4,34.4c-19,0-34.4-15.4-34.4-34.4c0-19,15.4-34.4,34.4-34.4C405.9,131.5,421.3,146.9,421.3,165.9z"/></g><g><defs><rect id="SVGID_43_" width="512" height="512"/></defs><clipPath id="SVGID_44_"><use xlink:href="#SVGID_43_"  style="overflow:visible;"/></clipPath></g><g><defs><rect id="SVGID_45_" width="512" height="512"/></defs><clipPath id="SVGID_46_"><use xlink:href="#SVGID_45_"  style="overflow:visible;"/></clipPath></g><g><defs><rect id="SVGID_47_" width="512" height="512"/></defs><clipPath id="SVGID_48_"><use xlink:href="#SVGID_47_"  style="overflow:visible;"/></clipPath></g><g><defs><rect id="SVGID_49_" width="512" height="512"/></defs><clipPath id="SVGID_50_"><use xlink:href="#SVGID_49_"  style="overflow:visible;"/></clipPath><polygon class="st21" points="105.9,122.2 99.2,122.2 97.3,131.8 107.8,131.8 "/></g><g><defs><rect id="SVGID_51_" width="512" height="512"/></defs><clipPath id="SVGID_52_"><use xlink:href="#SVGID_51_"  style="overflow:visible;"/></clipPath><polygon class="st22" points="83.6,126.4 77.9,129.7 81,139 90.1,133.8 "/></g><g><defs><rect id="SVGID_53_" width="512" height="512"/></defs><clipPath id="SVGID_54_"><use xlink:href="#SVGID_53_"  style="overflow:visible;"/></clipPath><polygon class="st23" points="66.4,141.2 63.1,146.9 70.5,153.4 75.7,144.3 "/></g><g><defs><rect id="SVGID_55_" width="512" height="512"/></defs><clipPath id="SVGID_56_"><use xlink:href="#SVGID_55_"  style="overflow:visible;"/></clipPath><polygon class="st24" points="58.9,162.6 58.9,169.2 68.5,171.1 68.5,160.6 "/></g><g><defs><rect id="SVGID_57_" width="512" height="512"/></defs><clipPath id="SVGID_58_"><use xlink:href="#SVGID_57_"  style="overflow:visible;"/></clipPath><polygon class="st25" points="63.1,184.9 66.4,190.6 75.7,187.5 70.5,178.4 "/></g><g><defs><rect id="SVGID_59_" width="512" height="512"/></defs><clipPath id="SVGID_60_"><use xlink:href="#SVGID_59_"  style="overflow:visible;"/></clipPath><polygon class="st26" points="77.9,202.1 83.6,205.4 90.1,198 81,192.8 "/></g><g><defs><rect id="SVGID_61_" width="512" height="512"/></defs><clipPath id="SVGID_62_"><use xlink:href="#SVGID_61_"  style="overflow:visible;"/></clipPath><polygon class="st27" points="99.3,209.6 105.9,209.6 107.8,199.9 97.3,199.9 "/></g><g><defs><rect id="SVGID_63_" width="512" height="512"/></defs><clipPath id="SVGID_64_"><use xlink:href="#SVGID_63_"  style="overflow:visible;"/></clipPath><polygon class="st28" points="121.5,205.4 127.3,202.1 124.1,192.8 115,198 "/></g><g><defs><rect id="SVGID_65_" width="512" height="512"/></defs><clipPath id="SVGID_66_"><use xlink:href="#SVGID_65_"  style="overflow:visible;"/></clipPath><polygon class="st29" points="138.7,190.6 142,184.9 134.7,178.4 129.4,187.5 "/></g><g><defs><rect id="SVGID_67_" width="512" height="512"/></defs><clipPath id="SVGID_68_"><use xlink:href="#SVGID_67_"  style="overflow:visible;"/></clipPath><polygon class="st30" points="146.2,169.2 146.2,162.6 136.6,160.6 136.6,171.1 "/></g><g><defs><rect id="SVGID_69_" width="512" height="512"/></defs><clipPath id="SVGID_70_"><use xlink:href="#SVGID_69_"  style="overflow:visible;"/></clipPath><polygon class="st31" points="142,146.9 138.7,141.2 129.4,144.3 134.7,153.4 "/></g><g><defs><rect id="SVGID_71_" width="512" height="512"/></defs><clipPath id="SVGID_72_"><use xlink:href="#SVGID_71_"  style="overflow:visible;"/></clipPath><polygon class="st32" points="127.3,129.7 121.5,126.4 115,133.8 124.1,139 "/></g><g><defs><rect id="SVGID_73_" width="512" height="512"/></defs><clipPath id="SVGID_74_"><use xlink:href="#SVGID_73_"  style="overflow:visible;"/></clipPath><path class="st33" d="M102.6,175.4c-5.3,0-9.5-4.3-9.5-9.5s4.3-9.5,9.5-9.5c5.3,0,9.5,4.3,9.5,9.5S107.8,175.4,102.6,175.4z M102.6,131.5c-19,0-34.4,15.4-34.4,34.4s15.4,34.4,34.4,34.4s34.4-15.4,34.4-34.4C137,146.9,121.6,131.5,102.6,131.5z"/></g><g><defs><rect id="SVGID_75_" width="512" height="512"/></defs><clipPath id="SVGID_76_"><use xlink:href="#SVGID_75_"  style="overflow:visible;"/></clipPath><path class="st34" d="M102.6,174.2c-4.6,0-8.3-3.7-8.3-8.3c0-4.6,3.7-8.3,8.3-8.3c4.6,0,8.3,3.7,8.3,8.3S107.1,174.2,102.6,174.2z M102.6,149.4c-9.1,0-16.5,7.4-16.5,16.5c0,9.1,7.4,16.5,16.5,16.5c9.1,0,16.5-7.4,16.5-16.5C119.1,156.8,111.7,149.4,102.6,149.4z"/></g><g><defs><rect id="SVGID_77_" width="512" height="512"/></defs><clipPath id="SVGID_78_"><use xlink:href="#SVGID_77_"  style="overflow:visible;"/></clipPath><circle class="st35" cx="43.7" cy="312.4" r="43.7"/></g><g><defs><rect id="SVGID_79_" width="512" height="512"/></defs><clipPath id="SVGID_80_"><use xlink:href="#SVGID_79_"  style="overflow:visible;"/></clipPath><circle class="st36" cx="43.7" cy="312.4" r="36"/></g><g><defs><rect id="SVGID_81_" width="512" height="512"/></defs><clipPath id="SVGID_82_"><use xlink:href="#SVGID_81_"  style="overflow:visible;"/></clipPath><path class="st37" d="M78,312.4c0,18.9-15.4,34.3-34.3,34.3c-18.9,0-34.3-15.4-34.3-34.3c0-19,15.4-34.3,34.3-34.3C62.6,278.1,78,293.5,78,312.4z"/></g><g><defs><rect id="SVGID_83_" width="512" height="512"/></defs><clipPath id="SVGID_84_"><use xlink:href="#SVGID_83_"  style="overflow:visible;"/></clipPath><circle class="st38" cx="43.7" cy="281" r="0.9"/></g><g><defs><rect id="SVGID_85_" width="512" height="512"/></defs><clipPath id="SVGID_86_"><use xlink:href="#SVGID_85_"  style="overflow:visible;"/></clipPath><circle class="st39" cx="28" cy="285.2" r="0.9"/></g><g><defs><rect id="SVGID_87_" width="512" height="512"/></defs><clipPath id="SVGID_88_"><use xlink:href="#SVGID_87_"  style="overflow:visible;"/></clipPath><path class="st40" d="M16.9,295.9c0.4,0.3,0.6,0.8,0.3,1.2c-0.2,0.4-0.8,0.6-1.2,0.3c-0.4-0.2-0.6-0.8-0.3-1.2C16,295.8,16.5,295.7,16.9,295.9z"/></g><g><defs><rect id="SVGID_89_" width="512" height="512"/></defs><clipPath id="SVGID_90_"><use xlink:href="#SVGID_89_"  style="overflow:visible;"/></clipPath><path class="st41" d="M12.3,311.5c0.5,0,0.9,0.4,0.9,0.9c0,0.5-0.4,0.9-0.9,0.9c-0.5,0-0.9-0.4-0.9-0.9C11.4,311.9,11.8,311.5,12.3,311.5z"/></g><g><defs><rect id="SVGID_91_" width="512" height="512"/></defs><clipPath id="SVGID_92_"><use xlink:href="#SVGID_91_"  style="overflow:visible;"/></clipPath><circle class="st42" cx="16.5" cy="328.1" r="0.9"/></g><g><defs><rect id="SVGID_93_" width="512" height="512"/></defs><clipPath id="SVGID_94_"><use xlink:href="#SVGID_93_"  style="overflow:visible;"/></clipPath><circle class="st43" cx="28" cy="339.6" r="0.9"/></g><g><defs><rect id="SVGID_95_" width="512" height="512"/></defs><clipPath id="SVGID_96_"><use xlink:href="#SVGID_95_"  style="overflow:visible;"/></clipPath><circle class="st44" cx="43.7" cy="343.8" r="0.9"/></g><g><defs><rect id="SVGID_97_" width="512" height="512"/></defs><clipPath id="SVGID_98_"><use xlink:href="#SVGID_97_"  style="overflow:visible;"/></clipPath><circle class="st45" cx="59.4" cy="339.6" r="0.9"/></g><g><defs><rect id="SVGID_99_" width="512" height="512"/></defs><clipPath id="SVGID_100_"><use xlink:href="#SVGID_99_"  style="overflow:visible;"/></clipPath><path class="st46" d="M70.4,328.9c-0.4-0.3-0.6-0.8-0.3-1.2c0.2-0.4,0.8-0.6,1.2-0.3c0.4,0.2,0.6,0.8,0.3,1.2C71.4,329,70.9,329.1,70.4,328.9z"/></g><g><defs><rect id="SVGID_101_" width="512" height="512"/></defs><clipPath id="SVGID_102_"><use xlink:href="#SVGID_101_"  style="overflow:visible;"/></clipPath><path class="st47" d="M75.1,313.3c-0.5,0-0.9-0.4-0.9-0.9s0.4-0.9,0.9-0.9c0.5,0,0.9,0.4,0.9,0.9S75.6,313.3,75.1,313.3z"/></g><g><defs><rect id="SVGID_103_" width="512" height="512"/></defs><clipPath id="SVGID_104_"><use xlink:href="#SVGID_103_"  style="overflow:visible;"/></clipPath><circle class="st48" cx="70.9" cy="296.7" r="0.9"/></g><g><defs><rect id="SVGID_105_" width="512" height="512"/></defs><clipPath id="SVGID_106_"><use xlink:href="#SVGID_105_"  style="overflow:visible;"/></clipPath><circle class="st49" cx="59.4" cy="285.2" r="0.9"/></g><g><defs><rect id="SVGID_107_" width="512" height="512"/></defs><clipPath id="SVGID_108_"><use xlink:href="#SVGID_107_"  style="overflow:visible;"/></clipPath><rect x="42.6" y="312.4" class="st50" width="2.2" height="17.4"/></g><g><defs><rect id="SVGID_109_" width="512" height="512"/></defs><clipPath id="SVGID_110_"><use xlink:href="#SVGID_109_"  style="overflow:visible;"/></clipPath><rect x="45.5" y="311.7" class="st51" width="21.6" height="1.4"/></g><g><defs><rect id="SVGID_111_" width="512" height="512"/></defs><clipPath id="SVGID_112_"><use xlink:href="#SVGID_111_"  style="overflow:visible;"/></clipPath><circle class="st52" cx="43.7" cy="312.4" r="4"/></g><g><defs><rect id="SVGID_113_" x="0" y="0" width="512" height="512"/></defs><clipPath id="SVGID_114_"><use xlink:href="#SVGID_113_"  style="overflow:visible;"/></clipPath><rect x="36.9" y="291.7" transform="matrix(0.7057 -0.7086 0.7086 0.7057 -205.8722 116.5524)" class="st53" width="0.9" height="28.8"/></g><g><defs><rect id="SVGID_115_" width="512" height="512"/></defs><clipPath id="SVGID_116_"><use xlink:href="#SVGID_115_"  style="overflow:visible;"/></clipPath><circle class="st54" cx="43.7" cy="312.4" r="2.7"/></g><g><defs><rect id="SVGID_117_" width="512" height="512"/></defs><clipPath id="SVGID_118_"><use xlink:href="#SVGID_117_"  style="overflow:visible;"/></clipPath><circle class="st55" cx="43.7" cy="312.4" r="1.3"/></g><g><defs><rect id="SVGID_119_" width="512" height="512"/></defs><clipPath id="SVGID_120_"><use xlink:href="#SVGID_119_"  style="overflow:visible;"/></clipPath><path class="st56" d="M445.7,351.7c-24.1,0-43.7-19.6-43.7-43.7c0-24.1,19.6-43.7,43.7-43.7c24.1,0,43.7,19.6,43.7,43.7C489.4,332.1,469.8,351.7,445.7,351.7z"/></g><g><defs><rect id="SVGID_121_" width="512" height="512"/></defs><clipPath id="SVGID_122_"><use xlink:href="#SVGID_121_"  style="overflow:visible;"/></clipPath><path class="st57" d="M445.7,337.2c-16.1,0-29.1-13.1-29.1-29.1c0-16.1,13.1-29.1,29.1-29.1c16.1,0,29.1,13.1,29.1,29.1C474.9,324.1,461.8,337.2,445.7,337.2z"/></g><g><defs><rect id="SVGID_123_" width="512" height="512"/></defs><clipPath id="SVGID_124_"><use xlink:href="#SVGID_123_"  style="overflow:visible;"/></clipPath><path class="st58" d="M445.7,322.6c-8,0-14.6-6.5-14.6-14.6c0-8,6.5-14.6,14.6-14.6c8,0,14.6,6.5,14.6,14.6C460.3,316.1,453.8,322.6,445.7,322.6z"/></g><g><defs><rect id="SVGID_125_" width="512" height="512"/></defs><clipPath id="SVGID_126_"><use xlink:href="#SVGID_125_"  style="overflow:visible;"/></clipPath><path class="st59" d="M456.9,317.4c-0.5,0.6-1.2,1.3-1.8,1.8L444.8,309c-0.5-0.5-0.5-1.3,0-1.8c0.5-0.5,1.3-0.5,1.8,0L456.9,317.4z"/></g><g><defs><rect id="SVGID_127_" width="512" height="512"/></defs><clipPath id="SVGID_128_"><use xlink:href="#SVGID_127_"  style="overflow:visible;"/></clipPath><path class="st60" d="M467.2,327.7c-0.6,0.6-1.2,1.3-1.8,1.8l-10.3-10.3c0.7-0.6,1.3-1.2,1.8-1.8L467.2,327.7z"/></g><g><defs><rect id="SVGID_129_" width="512" height="512"/></defs><clipPath id="SVGID_130_"><use xlink:href="#SVGID_129_"  style="overflow:visible;"/></clipPath><path class="st61" d="M477.5,338c-0.3,0.3-0.6,0.6-0.9,0.9c-0.3,0.3-0.6,0.6-0.9,0.9l-10.3-10.3c0.6-0.6,1.2-1.2,1.8-1.8L477.5,338z"/></g><g><defs><rect id="SVGID_131_" width="512" height="512"/></defs><clipPath id="SVGID_132_"><use xlink:href="#SVGID_131_"  style="overflow:visible;"/></clipPath><polygon class="st62" points="512,302.2 499.8,302.2 493.9,308 499.8,313.9 512,313.9 506.1,308 "/></g><g><defs><rect id="SVGID_133_" width="512" height="512"/></defs><clipPath id="SVGID_134_"><use xlink:href="#SVGID_133_"  style="overflow:visible;"/></clipPath><path class="st63" d="M512,306.8l-66.3,0c-0.7,0-1.3,0.6-1.3,1.3c0,0.7,0.6,1.3,1.3,1.3H512L512,306.8z"/></g><g><defs><rect id="SVGID_135_" width="512" height="512"/></defs><clipPath id="SVGID_136_"><use xlink:href="#SVGID_135_"  style="overflow:visible;"/></clipPath><rect x="169.4" y="358.6" class="st64" width="17.5" height="21.3"/></g><g><path class="st65" d="M367.2,156.2c0-5.4,3.8-9.6,9.7-9.6c5.9,0,9.7,4.2,9.7,9.6c0,5.3-3.8,9.4-9.7,9.4C371,165.6,367.2,161.5,367.2,156.2z M381.3,156.2c0-3.2-1.9-5.1-4.5-5.1c-2.6,0-4.5,1.9-4.5,5.1c0,3,1.9,4.9,4.5,4.9C379.5,161.1,381.3,159.2,381.3,156.2z M373.1,185.3l24.4-38.2h4.3l-24.4,38.2H373.1z M388.2,176.6c0-5.4,3.8-9.6,9.7-9.6c5.8,0,9.7,4.2,9.7,9.6c0,5.3-3.9,9.4-9.7,9.4C392,186,388.2,181.9,388.2,176.6z M402.4,176.6c0-3.1-1.9-5.1-4.6-5.1c-2.6,0-4.5,1.9-4.5,5.1c0,3.1,1.9,5,4.5,5C400.5,181.6,402.4,179.7,402.4,176.6z"/></g></svg>