<svg viewBox="0 0 45 39" id="goShopping" width="100%" height="100%">
<g>
<path fill="#029EE4" d="M31.8,23.5c-3.3,0-6.3-1.5-8.3-4.1l1.2-0.9c1.7,2.2,4.3,3.5,7.1,3.5c4.9,0,8.9-4,8.9-8.9c0-4.9-4-8.9-8.9-8.9
		c-2.8,0-5.4,1.3-7.1,3.5l-1.2-0.9c2-2.6,5-4.1,8.3-4.1c5.7,0,10.4,4.7,10.4,10.4C42.2,18.9,37.6,23.5,31.8,23.5z"></path>
</g>
<g>
<path fill="#029EE4" d="M32.5,17.7h-1.3c-0.7,0-1.4-0.3-1.8-0.8c-0.5-0.5-0.8-1.2-0.8-1.9H30c0,0.3,0.1,0.6,0.3,0.8
		c0.2,0.2,0.5,0.3,0.8,0.3h1.3c0.3,0,0.6-0.1,0.8-0.3c0.2-0.2,0.3-0.5,0.3-0.8c0-0.3-0.1-0.6-0.3-0.8c-0.2-0.2-0.5-0.3-0.8-0.3h-1.3
		c-0.7,0-1.4-0.3-1.8-0.8c-0.5-0.5-0.8-1.1-0.8-1.8c0-0.7,0.3-1.4,0.8-1.8c0.5-0.5,1.2-0.8,1.8-0.8h1.3c0.7,0,1.4,0.3,1.8,0.8
		c0.5,0.5,0.8,1.2,0.8,1.9h-1.5c0-0.3-0.1-0.6-0.3-0.8c-0.2-0.2-0.5-0.3-0.8-0.3h-1.3c-0.3,0-0.6,0.1-0.8,0.3
		C30.2,10.7,30,11,30,11.3c0,0.3,0.1,0.6,0.3,0.8c0.2,0.2,0.5,0.3,0.8,0.3h1.3c0.7,0,1.4,0.3,1.8,0.8c0.5,0.5,0.8,1.1,0.8,1.8
		c0,0.7-0.3,1.4-0.8,1.8C33.8,17.4,33.2,17.7,32.5,17.7z"></path>
</g>
<g>
<rect x="31.1" y="7.9" fill="#029EE4" width="1.5" height="1.5"></rect>
</g>
<g>
<rect x="31.1" y="16.9" fill="#029EE4" width="1.5" height="1.5"></rect>
</g>
<g>
<path fill="#029EE4" d="M31.8,26.3c-3.8,0-7.4-1.6-9.9-4.5l1.1-1c2.2,2.5,5.4,4,8.8,4c6.5,0,11.7-5.3,11.7-11.7
		c0-6.5-5.3-11.7-11.7-11.7c-3.4,0-6.6,1.4-8.8,4l-1.1-1C24.5,1.6,28.1,0,31.8,0C39.1,0,45,5.9,45,13.2C45,20.4,39.1,26.3,31.8,26.3
		z"></path>
</g>
<g>
<path fill="#029EE4" d="M13.2,1.5C6.7,1.5,1.5,6.7,1.5,13.2c0,6.5,5.3,11.7,11.7,11.7s11.7-5.3,11.7-11.7C24.9,6.7,19.6,1.5,13.2,1.5z
		 M13.2,26.3C5.9,26.3,0,20.4,0,13.2C0,5.9,5.9,0,13.2,0c7.3,0,13.2,5.9,13.2,13.2C26.3,20.4,20.4,26.3,13.2,26.3z"></path>
</g>
<g>
<path fill="#029EE4" d="M13.2,26.3c-3.9,0-6.9-5.8-6.9-13.2C6.2,5.8,9.3,0,13.2,0v1.5c-3,0-5.5,5.4-5.5,11.7c0,6.4,2.5,11.7,5.5,11.7
		V26.3z"></path>
</g>
<g>
<path fill="#029EE4" d="M13.2,26.3v-1.5c3,0,5.5-5.4,5.5-11.7c0-6.4-2.5-11.7-5.5-11.7V0c3.9,0,6.9,5.8,6.9,13.2
		C20.1,20.6,17.1,26.3,13.2,26.3z"></path>
</g>
<g>
<rect x="12.4" y="0.7" fill="#029EE4" width="1.5" height="24.9"></rect>
</g>
<g>
<rect x="0.7" y="12.4" fill="#029EE4" width="24.9" height="1.5"></rect>
</g>
<g>
<path fill="#029EE4" d="M13.2,7.7c-3.4,0-6.7-0.5-9.9-1.6l0.5-1.4c3.1,1,6.3,1.5,9.5,1.5c3.2,0,6.4-0.5,9.5-1.5l0.5,1.4
		C19.9,7.1,16.6,7.7,13.2,7.7z"></path>
</g>
<g>
<path fill="#029EE4" d="M3.7,21.6l-0.5-1.4c3.2-1.1,6.5-1.6,9.9-1.6c3.4,0,6.7,0.5,9.9,1.6l-0.5,1.4c-3.1-1-6.2-1.5-9.5-1.5
		C9.9,20.1,6.7,20.6,3.7,21.6z"></path>
</g>
<g>
<rect x="27.3" y="35.2" transform="matrix(0.7072 -0.7071 0.7071 0.7072 -18.0527 30.6874)" fill="#029EE4" width="1.5" height="3.9"></rect>
</g>
<g>
<path fill="#029EE4" d="M23.7,32.8l1.3,3.5l2.3-2.3L23.7,32.8z M24.4,39l-3.1-8.6l8.6,3.1L24.4,39z"></path>
</g>
<g>
<rect x="18.4" y="27" transform="matrix(0.7072 -0.707 0.707 0.7072 -14.3526 21.7573)" fill="#029EE4" width="1.5" height="2.5"></rect>
</g>
<g>
<rect x="21.8" y="25.6" fill="#029EE4" width="1.5" height="2.5"></rect>
</g>
<g>
<rect x="24.7" y="27.5" transform="matrix(0.7071 -0.7071 0.7071 0.7071 -12.3565 26.5839)" fill="#029EE4" width="2.5" height="1.5"></rect>
</g>
<g>
<rect x="16.4" y="30.9" fill="#029EE4" width="2.5" height="1.5"></rect>
</g>
<g>
<rect x="17.8" y="34.3" transform="matrix(0.707 -0.7072 0.7072 0.707 -19.1759 23.7651)" fill="#029EE4" width="2.5" height="1.5"></rect>
</g>
</svg>