<svg viewBox="0 0 38 51" id="security-note" width="100%" height="100%">
<g>
<line style="fill:none;stroke:#333333;stroke-width:2;stroke-miterlimit:10;" x1="10" y1="33" x2="12" y2="33"></line>
</g>
<g>
<line style="fill:none;stroke:#333333;stroke-width:2;stroke-miterlimit:10;" x1="14" y1="33" x2="16" y2="33"></line>
</g>
<g>
<line style="fill:none;stroke:#333333;stroke-width:2;stroke-miterlimit:10;" x1="18" y1="33" x2="20" y2="33"></line>
</g>
<g>
<line style="fill:none;stroke:#333333;stroke-width:2;stroke-miterlimit:10;" x1="10" y1="37" x2="12" y2="37"></line>
</g>
<g>
<line style="fill:none;stroke:#333333;stroke-width:2;stroke-miterlimit:10;" x1="14" y1="37" x2="16" y2="37"></line>
</g>
<g>
<line style="fill:none;stroke:#333333;stroke-width:2;stroke-miterlimit:10;" x1="18" y1="37" x2="20" y2="37"></line>
</g>
<g>
<line style="fill:none;stroke:#333333;stroke-width:2;stroke-miterlimit:10;" x1="10" y1="41" x2="12" y2="41"></line>
</g>
<g>
<line style="fill:none;stroke:#333333;stroke-width:2;stroke-miterlimit:10;" x1="14" y1="41" x2="24" y2="41"></line>
</g>
<g>
<line style="fill:none;stroke:#333333;stroke-width:2;stroke-miterlimit:10;" x1="22" y1="33" x2="24" y2="33"></line>
</g>
<g>
<line style="fill:none;stroke:#333333;stroke-width:2;stroke-miterlimit:10;" x1="10" y1="29" x2="12" y2="29"></line>
</g>
<g>
<line style="fill:none;stroke:#333333;stroke-width:2;stroke-miterlimit:10;" x1="14" y1="29" x2="16" y2="29"></line>
</g>
<g>
<line style="fill:none;stroke:#333333;stroke-width:2;stroke-miterlimit:10;" x1="18" y1="29" x2="20" y2="29"></line>
</g>
<g>
<line style="fill:none;stroke:#333333;stroke-width:2;stroke-miterlimit:10;" x1="22" y1="29" x2="24" y2="29"></line>
</g>
<g>
<line style="fill:none;stroke:#333333;stroke-width:2;stroke-miterlimit:10;" x1="22" y1="37" x2="24" y2="37"></line>
</g>
<g>
<line style="fill:none;stroke:#333333;stroke-width:2;stroke-miterlimit:10;" x1="26" y1="33" x2="28" y2="33"></line>
</g>
<g>
<line style="fill:none;stroke:#333333;stroke-width:2;stroke-miterlimit:10;" x1="26" y1="29" x2="28" y2="29"></line>
</g>
<g>
<line style="fill:none;stroke:#333333;stroke-width:2;stroke-miterlimit:10;" x1="26" y1="37" x2="28" y2="37"></line>
</g>
<g>
<line style="fill:none;stroke:#333333;stroke-width:2;stroke-miterlimit:10;" x1="26" y1="41" x2="28" y2="41"></line>
</g>
<g>
<path style="fill:none;stroke:#333333;stroke-width:2;stroke-miterlimit:10;" d="M32,20v-6c0-7.2-5.8-13-13-13C11.8,1,6,6.8,6,14v6"></path>
</g>
<g>
<path style="fill:none;stroke:#333333;stroke-width:2;stroke-miterlimit:10;" d="M10,17v-3c0-5,4-9,9-9s9,4,9,9v3"></path>
</g>
<g>
<polyline style="fill:none;stroke:#333333;stroke-width:2;stroke-miterlimit:10;" points="1,21 5,25 5,45 1,49 	"></polyline>
</g>
<g>
<polyline style="fill:none;stroke:#333333;stroke-width:2;stroke-miterlimit:10;" points="37,21 33,25 33,45 37,49 	"></polyline>
</g>
<g>
<path style="fill:none;stroke:#333333;stroke-width:2;stroke-miterlimit:10;" d="M35,20H3c-1.1,0-2,0.9-2,2v26c0,1.1,0.9,2,2,2h13c0-1.7,1.3-3,3-3c1.7,0,3,1.3,3,3h13c1.1,0,2-0.9,2-2V22
		C37,20.9,36.1,20,35,20z"></path>
</g>
</svg>