<svg width="37" height="50" viewBox="0 0 37 50" fill="none" xmlns="http://www.w3.org/2000/svg">
<path d="M12.67 18.08L23.88 6.88L18.19 1L35.93 1.03L35.94 19.33L30.26 13.46L7.1 36.61L1.38 30.71V48.99L19.09 49L13.39 43.11L22.26 34.24" stroke="#029EE4" stroke-linecap="round" stroke-linejoin="round"/>
<path d="M10.12 20.64L8.29 22.46" stroke="#029EE4" stroke-linecap="round" stroke-linejoin="round"/>
<path d="M5.92 24.84L5.37 25.39" stroke="#029EE4" stroke-linecap="round" stroke-linejoin="round"/>
<path d="M29.28 27.21L27.46 29.04" stroke="#029EE4" stroke-linecap="round" stroke-linejoin="round"/>
<path d="M25.08 31.41L24.54 31.96" stroke="#029EE4" stroke-linecap="round" stroke-linejoin="round"/>
<path d="M35.94 27L36.42 26.52" stroke="#029EE4" stroke-linecap="round" stroke-linejoin="round"/>
<path d="M30.44 32.51L33.56 29.38" stroke="#029EE4" stroke-linecap="round" stroke-linejoin="round"/>
<path d="M22.12 40.82L28.85 34.09" stroke="#029EE4" stroke-linecap="round" stroke-linejoin="round"/>
<path d="M15.59 8.36999L16.28 7.67999" stroke="#029EE4" stroke-linecap="round" stroke-linejoin="round"/>
<path d="M12.2 11.75L13.37 10.58" stroke="#029EE4" stroke-linecap="round" stroke-linejoin="round"/>
<path d="M1.23 22.72L1 22.96" stroke="#029EE4" stroke-linecap="round" stroke-linejoin="round"/>
<path d="M9.77 14.18L2.96 20.99" stroke="#029EE4" stroke-linecap="round" stroke-linejoin="round"/>
</svg>
