<svg width="35" height="46" viewBox="0 0 35 46" fill="none" xmlns="http://www.w3.org/2000/svg">
<path d="M29.4258 18.0317V12.3575C29.4186 9.34754 28.2196 6.46293 26.0913 4.33456C23.9629 2.20618 21.0783 1.00726 18.0683 1L16.6567 1C13.6467 1.00726 10.7621 2.20618 8.63372 4.33456C6.50535 6.46293 5.30643 9.34754 5.29916 12.3575V18.0317" stroke="#029EE4" stroke-miterlimit="10"/>
<path d="M25.1725 15.905V12.3575C25.1652 10.4764 24.4141 8.67463 23.0832 7.34537C21.7522 6.01611 19.9494 5.26734 18.0683 5.26251H16.6567C14.7756 5.26734 12.9728 6.01611 11.6418 7.34537C10.3108 8.67463 9.55975 10.4764 9.55249 12.3575V15.905" stroke="#029EE4" stroke-miterlimit="10"/>
<path d="M14.5208 28.6741L17.3625 31.5158L23.7517 25.1266L25.8783 27.2533L17.3625 35.7783L12.3942 30.81L14.5208 28.6741Z" stroke="#029EE4" stroke-miterlimit="10"/>
<path d="M26.5842 31.5158C26.5747 33.4801 25.9344 35.3895 24.7577 36.9625C23.581 38.5354 21.9301 39.6888 20.0484 40.2525C18.1667 40.8163 16.1536 40.7607 14.3058 40.0938C12.4581 39.427 10.8735 38.1842 9.78544 36.5486C8.69742 34.9131 8.16358 32.9713 8.2626 31.0094C8.36163 29.0475 9.08826 27.1693 10.3354 25.6516C11.5826 24.134 13.2843 23.0571 15.1898 22.5796C17.0953 22.1022 19.1038 22.2496 20.9192 22.9999" stroke="#029EE4" stroke-miterlimit="10"/>
<path d="M33.6883 42.8417C33.6835 43.4058 33.4567 43.9453 33.0569 44.3434C32.6571 44.7414 32.1166 44.9659 31.5525 44.9683H3.13583C2.57169 44.9659 2.03121 44.7414 1.63144 44.3434C1.23168 43.9453 1.00482 43.4058 1 42.8417V20.1267C1.00482 19.5625 1.23168 19.023 1.63144 18.625C2.03121 18.2269 2.57169 18.0024 3.13583 18H31.5525C32.1166 18.0024 32.6571 18.2269 33.0569 18.625C33.4567 19.023 33.6835 19.5625 33.6883 20.1267V42.8417V42.8417Z" stroke="#029EE4" stroke-miterlimit="10"/>
<path d="M1.03668 19.4208L3.87835 22.2625V40.7058L1.03668 43.5475" stroke="#029EE4" stroke-miterlimit="10"/>
<path d="M33.6883 19.4525L30.8467 22.2942V40.7375L33.6883 43.5792" stroke="#029EE4" stroke-miterlimit="10"/>
<path d="M33.6883 24.4208H30.8467" stroke="#029EE4" stroke-miterlimit="10"/>
<path d="M33.6883 27.2625H30.8467" stroke="#029EE4" stroke-miterlimit="10"/>
<path d="M33.6883 30.095H30.8467" stroke="#029EE4" stroke-miterlimit="10"/>
<path d="M33.6883 32.9367H30.8467" stroke="#029EE4" stroke-miterlimit="10"/>
<path d="M33.6883 35.7783H30.8467" stroke="#029EE4" stroke-miterlimit="10"/>
<path d="M33.6883 38.6108H30.8467" stroke="#029EE4" stroke-miterlimit="10"/>
<path d="M3.84167 23.9683H1" stroke="#029EE4" stroke-miterlimit="10"/>
<path d="M3.87835 27.2308H1.03668" stroke="#029EE4" stroke-miterlimit="10"/>
<path d="M3.87835 30.0633H1.03668" stroke="#029EE4" stroke-miterlimit="10"/>
<path d="M3.87835 32.905H1.03668" stroke="#029EE4" stroke-miterlimit="10"/>
<path d="M3.87835 35.7466H1.03668" stroke="#029EE4" stroke-miterlimit="10"/>
<path d="M3.87835 38.5792H1.03668" stroke="#029EE4" stroke-miterlimit="10"/>
</svg>
