<svg width="45" height="44" viewBox="0 0 45 44" fill="none" xmlns="http://www.w3.org/2000/svg">
<path d="M38.7516 44H10.148C8.73855 43.9976 7.38747 43.4366 6.3908 42.4399C5.39413 41.4432 4.83314 40.0921 4.83071 38.6826V22.8498C4.83313 21.4395 5.39383 20.0874 6.39024 19.0893C7.38665 18.0912 8.7377 17.5282 10.148 17.5233H38.7516C40.1627 17.5257 41.5152 18.088 42.5121 19.0866C43.5091 20.0853 44.069 21.4387 44.069 22.8498V38.6826C44.069 40.0929 43.5088 41.4454 42.5116 42.4426C41.5144 43.4398 40.1619 44 38.7516 44ZM10.148 18.4951C8.9931 18.4951 7.88547 18.9539 7.0688 19.7706C6.25213 20.5872 5.79333 21.6949 5.79333 22.8498V38.6826C5.78727 39.2584 5.89544 39.8296 6.11157 40.3632C6.3277 40.8968 6.6475 41.3823 7.05248 41.7916C7.45746 42.2008 7.93957 42.5257 8.47091 42.7474C9.00226 42.9691 9.5723 43.0832 10.148 43.0832H38.7516C39.905 43.0808 41.0103 42.6209 41.825 41.8045C42.6397 40.9881 43.0972 39.8818 43.0972 38.7285V22.8498C43.0972 21.6965 42.6397 20.5902 41.825 19.7738C41.0103 18.9574 39.905 18.4975 38.7516 18.4951H10.148Z" fill="#029EE4"/>
<path d="M27.2644 34.6488H8.66286C8.59948 34.6489 8.53673 34.6362 8.47828 34.6117C8.41984 34.5872 8.36687 34.5512 8.32248 34.506C8.27809 34.4607 8.24317 34.4071 8.21976 34.3482C8.19635 34.2893 8.18492 34.2263 8.18613 34.163V32.0819C8.18613 32.0193 8.19847 31.9573 8.22242 31.8994C8.24638 31.8416 8.2815 31.789 8.32576 31.7448C8.37003 31.7005 8.42259 31.6654 8.48043 31.6414C8.53827 31.6175 8.60026 31.6051 8.66286 31.6051H27.2644C27.3277 31.6039 27.3907 31.6153 27.4496 31.6388C27.5085 31.6622 27.5622 31.6971 27.6074 31.7415C27.6527 31.7859 27.6886 31.8388 27.7131 31.8973C27.7376 31.9557 27.7503 32.0185 27.7503 32.0819V34.2088C27.7388 34.3296 27.6826 34.4417 27.5927 34.5231C27.5028 34.6045 27.3857 34.6494 27.2644 34.6488ZM9.14876 33.7321H26.7876V32.5219H9.14876V33.7321Z" fill="#029EE4"/>
<path d="M32.6642 27.6721C31.7938 27.6721 30.9589 27.3263 30.3434 26.7108C29.7279 26.0953 29.3821 25.2605 29.3821 24.39C29.3821 23.5196 29.7279 22.6848 30.3434 22.0692C30.9589 21.4537 31.7938 21.1079 32.6642 21.1079C33.1702 21.1055 33.6699 21.221 34.1234 21.4454C34.577 21.6698 34.972 21.9969 35.277 22.4006C35.3427 22.4881 35.3709 22.5982 35.3554 22.7065C35.3399 22.8148 35.2821 22.9125 35.1945 22.9782C35.107 23.0438 34.997 23.072 34.8887 23.0565C34.7803 23.0411 34.6826 22.9832 34.617 22.8957C34.3013 22.4827 33.8628 22.1805 33.3645 22.0325C32.8663 21.8845 32.3339 21.8983 31.844 22.072C31.354 22.2457 30.9318 22.5703 30.638 22.9991C30.3443 23.4279 30.194 23.9388 30.209 24.4584C30.2239 24.9779 30.4032 25.4794 30.7212 25.8906C31.0391 26.3018 31.4793 26.6016 31.9784 26.7469C32.4775 26.8921 33.0098 26.8753 33.4987 26.6989C33.9877 26.5225 34.4081 26.1956 34.6995 25.7652C34.7611 25.6738 34.856 25.6101 34.964 25.5879C35.0719 25.5656 35.1843 25.5865 35.277 25.646C35.3651 25.7105 35.4254 25.8059 35.4459 25.9131C35.4663 26.0203 35.4453 26.1313 35.3871 26.2236C35.0866 26.6696 34.6812 27.035 34.2064 27.2876C33.7316 27.5402 33.202 27.6722 32.6642 27.6721Z" fill="#029EE4"/>
<path d="M37.4498 27.6721C36.9408 27.6732 36.4386 27.5552 35.9833 27.3276C35.5281 27.0999 35.1324 26.769 34.8278 26.3611C34.7635 26.2739 34.7352 26.1652 34.7488 26.0577C34.7625 25.9501 34.817 25.8519 34.9012 25.7836C34.9445 25.7511 34.9938 25.7274 35.0463 25.714C35.0988 25.7005 35.1534 25.6975 35.207 25.7052C35.2607 25.7129 35.3123 25.731 35.3589 25.7586C35.4055 25.7862 35.4462 25.8227 35.4787 25.8661C35.7922 26.2851 36.2308 26.5935 36.7311 26.7467C37.2315 26.9 37.7676 26.8901 38.2619 26.7186C38.7563 26.547 39.1832 26.2227 39.4811 25.7925C39.7789 25.3622 39.9322 24.8484 39.9187 24.3253C39.9053 23.8022 39.7258 23.297 39.4062 22.8826C39.0867 22.4683 38.6436 22.1663 38.1411 22.0204C37.6385 21.8745 37.1026 21.8922 36.6109 22.071C36.1191 22.2498 35.6969 22.5803 35.4054 23.0149C35.3761 23.0626 35.3374 23.1039 35.2916 23.1362C35.2458 23.1686 35.194 23.1912 35.1392 23.2028C35.0843 23.2144 35.0277 23.2147 34.9728 23.2037C34.9179 23.1928 34.8657 23.1707 34.8196 23.1389C34.7735 23.1071 34.7343 23.0662 34.7045 23.0188C34.6746 22.9714 34.6548 22.9184 34.6461 22.863C34.6375 22.8077 34.6402 22.7511 34.6541 22.6968C34.668 22.6426 34.6928 22.5917 34.727 22.5473C35.044 22.0802 35.4761 21.7027 35.9817 21.4513C36.4872 21.2 37.049 21.0833 37.6128 21.1126C38.1766 21.1418 38.7234 21.316 39.2002 21.6183C39.677 21.9206 40.0678 22.3408 40.3347 22.8382C40.6017 23.3357 40.7358 23.8936 40.7242 24.458C40.7125 25.0225 40.5555 25.5744 40.2682 26.0604C39.9809 26.5464 39.5731 26.95 39.0842 27.2324C38.5953 27.5147 38.0419 27.6662 37.4773 27.6721H37.4498Z" fill="#029EE4"/>
<path d="M16.6389 38.2701H8.66286C8.39699 38.2701 8.18613 37.9493 8.18613 37.5367C8.18613 37.1242 8.39699 36.8033 8.66286 36.8033H16.6389C16.9047 36.8033 17.1248 37.1333 17.1248 37.5367C17.1248 37.9401 16.9047 38.2701 16.6389 38.2701Z" fill="#029EE4"/>
<path d="M23.258 38.2701H21.2594C20.9936 38.2701 20.7827 37.9493 20.7827 37.5367C20.7827 37.1242 20.9936 36.8033 21.2594 36.8033H23.258C23.5239 36.8033 23.7439 37.1333 23.7439 37.5367C23.7439 37.9401 23.5239 38.2701 23.258 38.2701Z" fill="#029EE4"/>
<path d="M3.11633 21.1813L2.63044 19.6136L3.87726 19.2469C4.13845 18.7862 4.44561 18.3531 4.79404 17.9542L2.31873 18.7243L1.20942 14.993V14.9472L36.8539 3.94579L37.9999 7.61292L12.3392 15.5798H15.5846L38.2841 8.60305L40.5119 15.8365C40.8948 15.9254 41.2691 16.0481 41.6303 16.2032L39.0542 7.86962L37.7707 3.66159C37.7248 3.52407 37.679 3.38656 37.624 3.24904C37.569 3.11152 37.624 3.18486 37.624 3.15736C37.6011 3.08683 37.56 3.02358 37.5048 2.974C36.9567 1.84532 36.0247 0.948669 34.8756 0.444696C33.7266 -0.0592756 32.4356 -0.137635 31.234 0.223659L3.73057 8.69473C2.517 9.06396 1.47764 9.85914 0.803826 10.9339C0.130008 12.0086 -0.132918 13.2906 0.0634458 14.5438C0.0407468 14.6185 0.0407468 14.6983 0.0634458 14.773C0.0780544 14.8114 0.0964824 14.8483 0.118453 14.883C0.118453 15.0205 0.182627 15.1489 0.219299 15.2772L2.92381 23.8308V22.8223C2.92419 22.2697 2.9888 21.719 3.11633 21.1813ZM4.03311 9.61151L31.4724 1.14044C32.3955 0.855094 33.3878 0.888959 34.2892 1.23658C35.1907 1.58419 35.9488 2.2253 36.4414 3.05651L1.02607 13.9937C0.968001 13.0302 1.23443 12.0751 1.78282 11.2807C2.33121 10.4864 3.12993 9.89872 4.05145 9.61151H4.03311Z" fill="#029EE4"/>
<path d="M30.3173 15.5798H30.5648C30.4838 15.5571 30.3982 15.5571 30.3173 15.5798Z" fill="#029EE4"/>
<path d="M33.6543 15.5798L36.8081 14.663L37.1106 15.5798H38.1099L37.5782 13.8471C37.5604 13.7869 37.5308 13.7309 37.491 13.6824C37.4511 13.6339 37.402 13.5939 37.3464 13.5648C37.2907 13.5357 37.2298 13.5181 37.1673 13.5131C37.1047 13.508 37.0418 13.5156 36.9823 13.5354L32.9209 14.7914C32.8606 14.8092 32.8044 14.8388 32.7555 14.8785C32.7067 14.9182 32.6662 14.9671 32.6364 15.0225C32.6066 15.0779 32.588 15.1386 32.5818 15.2012C32.5755 15.2639 32.5817 15.3271 32.6 15.3873L32.6642 15.5798H33.6635H33.6543Z" fill="#029EE4"/>
<path d="M27.081 38.2701H25.0916C24.8257 38.2701 24.6057 37.9493 24.6057 37.5367C24.6057 37.1242 24.8257 36.8033 25.0916 36.8033H27.081C27.3469 36.8033 27.5669 37.1333 27.5669 37.5367C27.5669 37.9401 27.3469 38.2701 27.081 38.2701Z" fill="#029EE4"/>
</svg>
